<?xml version="1.0" encoding="utf-8" standalone="no"?>
<!DOCTYPE svg PUBLIC "-//W3C//DTD SVG 1.1//EN"
  "http://www.w3.org/Graphics/SVG/1.1/DTD/svg11.dtd">
<svg xmlns:xlink="http://www.w3.org/1999/xlink" width="432pt" height="648pt" viewBox="0 0 432 648" xmlns="http://www.w3.org/2000/svg" version="1.1">
 <metadata>
  <rdf:RDF xmlns:dc="http://purl.org/dc/elements/1.1/" xmlns:cc="http://creativecommons.org/ns#" xmlns:rdf="http://www.w3.org/1999/02/22-rdf-syntax-ns#">
   <cc:Work>
    <dc:type rdf:resource="http://purl.org/dc/dcmitype/StillImage"/>
    <dc:date>2022-08-14T00:00:56.062973</dc:date>
    <dc:format>image/svg+xml</dc:format>
    <dc:creator>
     <cc:Agent>
      <dc:title>Matplotlib v3.5.3, https://matplotlib.org/</dc:title>
     </cc:Agent>
    </dc:creator>
   </cc:Work>
  </rdf:RDF>
 </metadata>
 <defs>
  <style type="text/css">*{stroke-linejoin: round; stroke-linecap: butt}</style>
 </defs>
 <g id="figure_1">
  <g id="patch_1">
   <path d="M 0 648 
L 432 648 
L 432 0 
L 0 0 
z
" style="fill: #ffffff"/>
  </g>
  <g id="axes_1">
   <g id="patch_2">
    <path d="M 42.01 115.616476 
L 421.2 115.616476 
L 421.2 27.79125 
L 42.01 27.79125 
z
" style="fill: #ffffff"/>
   </g>
   <g id="matplotlib.axis_1">
    <g id="xtick_1">
     <g id="line2d_1">
      <defs>
       <path id="m8665b35aec" d="M 0 0 
L 0 3.5 
" style="stroke: #000000; stroke-width: 0.8"/>
      </defs>
      <g>
       <use xlink:href="#m8665b35aec" x="59.245909" y="115.616476" style="stroke: #000000; stroke-width: 0.8"/>
      </g>
     </g>
    </g>
    <g id="xtick_2">
     <g id="line2d_2">
      <g>
       <use xlink:href="#m8665b35aec" x="116.939329" y="115.616476" style="stroke: #000000; stroke-width: 0.8"/>
      </g>
     </g>
    </g>
    <g id="xtick_3">
     <g id="line2d_3">
      <g>
       <use xlink:href="#m8665b35aec" x="174.632748" y="115.616476" style="stroke: #000000; stroke-width: 0.8"/>
      </g>
     </g>
    </g>
    <g id="xtick_4">
     <g id="line2d_4">
      <g>
       <use xlink:href="#m8665b35aec" x="232.326168" y="115.616476" style="stroke: #000000; stroke-width: 0.8"/>
      </g>
     </g>
    </g>
    <g id="xtick_5">
     <g id="line2d_5">
      <g>
       <use xlink:href="#m8665b35aec" x="290.019587" y="115.616476" style="stroke: #000000; stroke-width: 0.8"/>
      </g>
     </g>
    </g>
    <g id="xtick_6">
     <g id="line2d_6">
      <g>
       <use xlink:href="#m8665b35aec" x="347.713007" y="115.616476" style="stroke: #000000; stroke-width: 0.8"/>
      </g>
     </g>
    </g>
    <g id="xtick_7">
     <g id="line2d_7">
      <g>
       <use xlink:href="#m8665b35aec" x="405.406426" y="115.616476" style="stroke: #000000; stroke-width: 0.8"/>
      </g>
     </g>
    </g>
   </g>
   <g id="matplotlib.axis_2">
    <g id="ytick_1">
     <g id="line2d_8">
      <defs>
       <path id="mebf4d7efc5" d="M 0 0 
L -3.5 0 
" style="stroke: #000000; stroke-width: 0.8"/>
      </defs>
      <g>
       <use xlink:href="#mebf4d7efc5" x="42.01" y="115.197167" style="stroke: #000000; stroke-width: 0.8"/>
      </g>
     </g>
     <g id="text_1">
      <!-- −0.2 -->
      <g transform="translate(10.727188 118.996386)scale(0.1 -0.1)">
       <defs>
        <path id="DejaVuSans-2212" d="M 678 2272 
L 4684 2272 
L 4684 1741 
L 678 1741 
L 678 2272 
z
" transform="scale(0.015625)"/>
        <path id="DejaVuSans-30" d="M 2034 4250 
Q 1547 4250 1301 3770 
Q 1056 3291 1056 2328 
Q 1056 1369 1301 889 
Q 1547 409 2034 409 
Q 2525 409 2770 889 
Q 3016 1369 3016 2328 
Q 3016 3291 2770 3770 
Q 2525 4250 2034 4250 
z
M 2034 4750 
Q 2819 4750 3233 4129 
Q 3647 3509 3647 2328 
Q 3647 1150 3233 529 
Q 2819 -91 2034 -91 
Q 1250 -91 836 529 
Q 422 1150 422 2328 
Q 422 3509 836 4129 
Q 1250 4750 2034 4750 
z
" transform="scale(0.015625)"/>
        <path id="DejaVuSans-2e" d="M 684 794 
L 1344 794 
L 1344 0 
L 684 0 
L 684 794 
z
" transform="scale(0.015625)"/>
        <path id="DejaVuSans-32" d="M 1228 531 
L 3431 531 
L 3431 0 
L 469 0 
L 469 531 
Q 828 903 1448 1529 
Q 2069 2156 2228 2338 
Q 2531 2678 2651 2914 
Q 2772 3150 2772 3378 
Q 2772 3750 2511 3984 
Q 2250 4219 1831 4219 
Q 1534 4219 1204 4116 
Q 875 4013 500 3803 
L 500 4441 
Q 881 4594 1212 4672 
Q 1544 4750 1819 4750 
Q 2544 4750 2975 4387 
Q 3406 4025 3406 3419 
Q 3406 3131 3298 2873 
Q 3191 2616 2906 2266 
Q 2828 2175 2409 1742 
Q 1991 1309 1228 531 
z
" transform="scale(0.015625)"/>
       </defs>
       <use xlink:href="#DejaVuSans-2212"/>
       <use xlink:href="#DejaVuSans-30" x="83.789062"/>
       <use xlink:href="#DejaVuSans-2e" x="147.412109"/>
       <use xlink:href="#DejaVuSans-32" x="179.199219"/>
      </g>
     </g>
    </g>
    <g id="ytick_2">
     <g id="line2d_9">
      <g>
       <use xlink:href="#mebf4d7efc5" x="42.01" y="80.300052" style="stroke: #000000; stroke-width: 0.8"/>
      </g>
     </g>
     <g id="text_2">
      <!-- −0.1 -->
      <g transform="translate(10.727188 84.099271)scale(0.1 -0.1)">
       <defs>
        <path id="DejaVuSans-31" d="M 794 531 
L 1825 531 
L 1825 4091 
L 703 3866 
L 703 4441 
L 1819 4666 
L 2450 4666 
L 2450 531 
L 3481 531 
L 3481 0 
L 794 0 
L 794 531 
z
" transform="scale(0.015625)"/>
       </defs>
       <use xlink:href="#DejaVuSans-2212"/>
       <use xlink:href="#DejaVuSans-30" x="83.789062"/>
       <use xlink:href="#DejaVuSans-2e" x="147.412109"/>
       <use xlink:href="#DejaVuSans-31" x="179.199219"/>
      </g>
     </g>
    </g>
    <g id="ytick_3">
     <g id="line2d_10">
      <g>
       <use xlink:href="#mebf4d7efc5" x="42.01" y="45.402938" style="stroke: #000000; stroke-width: 0.8"/>
      </g>
     </g>
     <g id="text_3">
      <!-- 0.0 -->
      <g transform="translate(19.106875 49.202156)scale(0.1 -0.1)">
       <use xlink:href="#DejaVuSans-30"/>
       <use xlink:href="#DejaVuSans-2e" x="63.623047"/>
       <use xlink:href="#DejaVuSans-30" x="95.410156"/>
      </g>
     </g>
    </g>
   </g>
   <g id="line2d_11">
    <path d="M 59.245909 45.336485 
L 62.13058 44.900114 
L 65.015251 44.423945 
L 66.457587 44.383702 
L 67.899922 44.643701 
L 69.342258 45.37303 
L 70.784593 46.77412 
L 72.226928 49.074136 
L 73.669264 52.502081 
L 75.111599 57.235912 
L 76.553935 63.311323 
L 77.99627 70.511928 
L 80.880941 86.018628 
L 82.323277 92.947015 
L 83.765612 98.683757 
L 85.207948 103.085218 
L 86.650283 106.204363 
L 88.092619 108.195965 
L 89.534954 109.252625 
L 90.97729 109.573086 
L 92.419625 109.347793 
L 93.861961 108.751535 
L 99.631303 105.507632 
L 101.073638 105.047444 
L 102.515974 104.900242 
L 103.958309 105.120716 
L 105.400645 105.734646 
L 106.84298 106.725621 
L 109.727651 109.454892 
L 111.169987 110.781501 
L 112.612322 111.62442 
L 114.054658 111.483716 
L 115.496993 109.920487 
L 116.939329 106.651091 
L 118.381664 101.485487 
L 119.824 94.434605 
L 121.266335 85.851161 
L 124.151006 67.243726 
L 125.593342 58.93411 
L 127.035677 51.941056 
L 128.478013 46.292707 
L 129.920348 41.786374 
L 131.362684 38.192902 
L 132.805019 35.452418 
L 134.247355 33.583818 
L 135.68969 32.468237 
L 137.132025 31.914725 
L 138.574361 31.783306 
L 140.016696 31.977782 
L 141.459032 32.437107 
L 142.901367 33.126839 
L 144.343703 34.031637 
L 145.786038 35.131203 
L 148.670709 37.747178 
L 152.997716 42.161923 
L 158.767058 48.036325 
L 163.094064 52.037717 
L 165.978735 54.435248 
L 168.863406 56.597771 
L 171.748077 58.520933 
L 174.632748 60.207115 
L 177.517419 61.66312 
L 180.40209 62.898489 
L 183.286761 63.924586 
L 186.171432 64.753845 
L 189.056103 65.399292 
L 191.940774 65.874133 
L 196.267781 66.295046 
L 200.594787 66.40485 
L 204.921793 66.245404 
L 209.2488 65.855891 
L 213.575806 65.272976 
L 219.345148 64.252861 
L 226.556826 62.68742 
L 235.210839 60.541975 
L 264.057548 53.144024 
L 272.711561 51.218806 
L 281.365574 49.519453 
L 290.019587 48.063149 
L 298.6736 46.851679 
L 307.327613 45.875768 
L 315.981626 45.118518 
L 326.077975 44.480433 
L 336.174323 44.067774 
L 347.713007 43.818503 
L 362.136362 43.753084 
L 380.886723 43.920377 
L 403.964091 44.290471 
L 403.964091 44.290471 
" clip-path="url(#pc4c5b251f3)" style="fill: none; stroke: #1f77b4; stroke-width: 1.5; stroke-linecap: square"/>
   </g>
   <g id="patch_3">
    <path d="M 42.01 115.616476 
L 42.01 27.79125 
" style="fill: none; stroke: #000000; stroke-width: 0.8; stroke-linejoin: miter; stroke-linecap: square"/>
   </g>
   <g id="patch_4">
    <path d="M 421.2 115.616476 
L 421.2 27.79125 
" style="fill: none; stroke: #000000; stroke-width: 0.8; stroke-linejoin: miter; stroke-linecap: square"/>
   </g>
   <g id="patch_5">
    <path d="M 42.01 115.616476 
L 421.2 115.616476 
" style="fill: none; stroke: #000000; stroke-width: 0.8; stroke-linejoin: miter; stroke-linecap: square"/>
   </g>
   <g id="patch_6">
    <path d="M 42.01 27.79125 
L 421.2 27.79125 
" style="fill: none; stroke: #000000; stroke-width: 0.8; stroke-linejoin: miter; stroke-linecap: square"/>
   </g>
   <g id="text_4">
    <!-- Position $x$ [m] -->
    <g transform="translate(190.085 21.79125)scale(0.12 -0.12)">
     <defs>
      <path id="DejaVuSans-50" d="M 1259 4147 
L 1259 2394 
L 2053 2394 
Q 2494 2394 2734 2622 
Q 2975 2850 2975 3272 
Q 2975 3691 2734 3919 
Q 2494 4147 2053 4147 
L 1259 4147 
z
M 628 4666 
L 2053 4666 
Q 2838 4666 3239 4311 
Q 3641 3956 3641 3272 
Q 3641 2581 3239 2228 
Q 2838 1875 2053 1875 
L 1259 1875 
L 1259 0 
L 628 0 
L 628 4666 
z
" transform="scale(0.015625)"/>
      <path id="DejaVuSans-6f" d="M 1959 3097 
Q 1497 3097 1228 2736 
Q 959 2375 959 1747 
Q 959 1119 1226 758 
Q 1494 397 1959 397 
Q 2419 397 2687 759 
Q 2956 1122 2956 1747 
Q 2956 2369 2687 2733 
Q 2419 3097 1959 3097 
z
M 1959 3584 
Q 2709 3584 3137 3096 
Q 3566 2609 3566 1747 
Q 3566 888 3137 398 
Q 2709 -91 1959 -91 
Q 1206 -91 779 398 
Q 353 888 353 1747 
Q 353 2609 779 3096 
Q 1206 3584 1959 3584 
z
" transform="scale(0.015625)"/>
      <path id="DejaVuSans-73" d="M 2834 3397 
L 2834 2853 
Q 2591 2978 2328 3040 
Q 2066 3103 1784 3103 
Q 1356 3103 1142 2972 
Q 928 2841 928 2578 
Q 928 2378 1081 2264 
Q 1234 2150 1697 2047 
L 1894 2003 
Q 2506 1872 2764 1633 
Q 3022 1394 3022 966 
Q 3022 478 2636 193 
Q 2250 -91 1575 -91 
Q 1294 -91 989 -36 
Q 684 19 347 128 
L 347 722 
Q 666 556 975 473 
Q 1284 391 1588 391 
Q 1994 391 2212 530 
Q 2431 669 2431 922 
Q 2431 1156 2273 1281 
Q 2116 1406 1581 1522 
L 1381 1569 
Q 847 1681 609 1914 
Q 372 2147 372 2553 
Q 372 3047 722 3315 
Q 1072 3584 1716 3584 
Q 2034 3584 2315 3537 
Q 2597 3491 2834 3397 
z
" transform="scale(0.015625)"/>
      <path id="DejaVuSans-69" d="M 603 3500 
L 1178 3500 
L 1178 0 
L 603 0 
L 603 3500 
z
M 603 4863 
L 1178 4863 
L 1178 4134 
L 603 4134 
L 603 4863 
z
" transform="scale(0.015625)"/>
      <path id="DejaVuSans-74" d="M 1172 4494 
L 1172 3500 
L 2356 3500 
L 2356 3053 
L 1172 3053 
L 1172 1153 
Q 1172 725 1289 603 
Q 1406 481 1766 481 
L 2356 481 
L 2356 0 
L 1766 0 
Q 1100 0 847 248 
Q 594 497 594 1153 
L 594 3053 
L 172 3053 
L 172 3500 
L 594 3500 
L 594 4494 
L 1172 4494 
z
" transform="scale(0.015625)"/>
      <path id="DejaVuSans-6e" d="M 3513 2113 
L 3513 0 
L 2938 0 
L 2938 2094 
Q 2938 2591 2744 2837 
Q 2550 3084 2163 3084 
Q 1697 3084 1428 2787 
Q 1159 2491 1159 1978 
L 1159 0 
L 581 0 
L 581 3500 
L 1159 3500 
L 1159 2956 
Q 1366 3272 1645 3428 
Q 1925 3584 2291 3584 
Q 2894 3584 3203 3211 
Q 3513 2838 3513 2113 
z
" transform="scale(0.015625)"/>
      <path id="DejaVuSans-20" transform="scale(0.015625)"/>
      <path id="DejaVuSans-Oblique-78" d="M 3841 3500 
L 2234 1784 
L 3219 0 
L 2559 0 
L 1819 1388 
L 531 0 
L -166 0 
L 1556 1844 
L 641 3500 
L 1300 3500 
L 1972 2234 
L 3144 3500 
L 3841 3500 
z
" transform="scale(0.015625)"/>
      <path id="DejaVuSans-5b" d="M 550 4863 
L 1875 4863 
L 1875 4416 
L 1125 4416 
L 1125 -397 
L 1875 -397 
L 1875 -844 
L 550 -844 
L 550 4863 
z
" transform="scale(0.015625)"/>
      <path id="DejaVuSans-6d" d="M 3328 2828 
Q 3544 3216 3844 3400 
Q 4144 3584 4550 3584 
Q 5097 3584 5394 3201 
Q 5691 2819 5691 2113 
L 5691 0 
L 5113 0 
L 5113 2094 
Q 5113 2597 4934 2840 
Q 4756 3084 4391 3084 
Q 3944 3084 3684 2787 
Q 3425 2491 3425 1978 
L 3425 0 
L 2847 0 
L 2847 2094 
Q 2847 2600 2669 2842 
Q 2491 3084 2119 3084 
Q 1678 3084 1418 2786 
Q 1159 2488 1159 1978 
L 1159 0 
L 581 0 
L 581 3500 
L 1159 3500 
L 1159 2956 
Q 1356 3278 1631 3431 
Q 1906 3584 2284 3584 
Q 2666 3584 2933 3390 
Q 3200 3197 3328 2828 
z
" transform="scale(0.015625)"/>
      <path id="DejaVuSans-5d" d="M 1947 4863 
L 1947 -844 
L 622 -844 
L 622 -397 
L 1369 -397 
L 1369 4416 
L 622 4416 
L 622 4863 
L 1947 4863 
z
" transform="scale(0.015625)"/>
     </defs>
     <use xlink:href="#DejaVuSans-50" transform="translate(0 0.015625)"/>
     <use xlink:href="#DejaVuSans-6f" transform="translate(60.302734 0.015625)"/>
     <use xlink:href="#DejaVuSans-73" transform="translate(121.484375 0.015625)"/>
     <use xlink:href="#DejaVuSans-69" transform="translate(173.583984 0.015625)"/>
     <use xlink:href="#DejaVuSans-74" transform="translate(201.367188 0.015625)"/>
     <use xlink:href="#DejaVuSans-69" transform="translate(240.576172 0.015625)"/>
     <use xlink:href="#DejaVuSans-6f" transform="translate(268.359375 0.015625)"/>
     <use xlink:href="#DejaVuSans-6e" transform="translate(329.541016 0.015625)"/>
     <use xlink:href="#DejaVuSans-20" transform="translate(392.919922 0.015625)"/>
     <use xlink:href="#DejaVuSans-Oblique-78" transform="translate(424.707031 0.015625)"/>
     <use xlink:href="#DejaVuSans-20" transform="translate(483.886719 0.015625)"/>
     <use xlink:href="#DejaVuSans-5b" transform="translate(515.673828 0.015625)"/>
     <use xlink:href="#DejaVuSans-6d" transform="translate(554.6875 0.015625)"/>
     <use xlink:href="#DejaVuSans-5d" transform="translate(652.099609 0.015625)"/>
    </g>
   </g>
  </g>
  <g id="axes_2">
   <g id="patch_7">
    <path d="M 42.01 237.811732 
L 421.2 237.811732 
L 421.2 149.986506 
L 42.01 149.986506 
z
" style="fill: #ffffff"/>
   </g>
   <g id="matplotlib.axis_3">
    <g id="xtick_8">
     <g id="line2d_12">
      <g>
       <use xlink:href="#m8665b35aec" x="59.245909" y="237.811732" style="stroke: #000000; stroke-width: 0.8"/>
      </g>
     </g>
    </g>
    <g id="xtick_9">
     <g id="line2d_13">
      <g>
       <use xlink:href="#m8665b35aec" x="116.939329" y="237.811732" style="stroke: #000000; stroke-width: 0.8"/>
      </g>
     </g>
    </g>
    <g id="xtick_10">
     <g id="line2d_14">
      <g>
       <use xlink:href="#m8665b35aec" x="174.632748" y="237.811732" style="stroke: #000000; stroke-width: 0.8"/>
      </g>
     </g>
    </g>
    <g id="xtick_11">
     <g id="line2d_15">
      <g>
       <use xlink:href="#m8665b35aec" x="232.326168" y="237.811732" style="stroke: #000000; stroke-width: 0.8"/>
      </g>
     </g>
    </g>
    <g id="xtick_12">
     <g id="line2d_16">
      <g>
       <use xlink:href="#m8665b35aec" x="290.019587" y="237.811732" style="stroke: #000000; stroke-width: 0.8"/>
      </g>
     </g>
    </g>
    <g id="xtick_13">
     <g id="line2d_17">
      <g>
       <use xlink:href="#m8665b35aec" x="347.713007" y="237.811732" style="stroke: #000000; stroke-width: 0.8"/>
      </g>
     </g>
    </g>
    <g id="xtick_14">
     <g id="line2d_18">
      <g>
       <use xlink:href="#m8665b35aec" x="405.406426" y="237.811732" style="stroke: #000000; stroke-width: 0.8"/>
      </g>
     </g>
    </g>
   </g>
   <g id="matplotlib.axis_4">
    <g id="ytick_4">
     <g id="line2d_19">
      <g>
       <use xlink:href="#mebf4d7efc5" x="42.01" y="237.7403" style="stroke: #000000; stroke-width: 0.8"/>
      </g>
     </g>
     <g id="text_5">
      <!-- −1 -->
      <g transform="translate(20.267813 241.539519)scale(0.1 -0.1)">
       <use xlink:href="#DejaVuSans-2212"/>
       <use xlink:href="#DejaVuSans-31" x="83.789062"/>
      </g>
     </g>
    </g>
    <g id="ytick_5">
     <g id="line2d_20">
      <g>
       <use xlink:href="#mebf4d7efc5" x="42.01" y="197.550276" style="stroke: #000000; stroke-width: 0.8"/>
      </g>
     </g>
     <g id="text_6">
      <!-- 0 -->
      <g transform="translate(28.6475 201.349494)scale(0.1 -0.1)">
       <use xlink:href="#DejaVuSans-30"/>
      </g>
     </g>
    </g>
    <g id="ytick_6">
     <g id="line2d_21">
      <g>
       <use xlink:href="#mebf4d7efc5" x="42.01" y="157.360251" style="stroke: #000000; stroke-width: 0.8"/>
      </g>
     </g>
     <g id="text_7">
      <!-- 1 -->
      <g transform="translate(28.6475 161.15947)scale(0.1 -0.1)">
       <use xlink:href="#DejaVuSans-31"/>
      </g>
     </g>
    </g>
   </g>
   <g id="line2d_22">
    <path d="M 59.245909 196.946755 
L 60.688245 196.506457 
L 62.13058 196.294025 
L 63.572916 196.39245 
L 65.015251 196.903968 
L 66.457587 197.955721 
L 67.899922 199.70233 
L 69.342258 202.307395 
L 70.784593 205.905747 
L 72.226928 210.576751 
L 73.669264 216.237767 
L 76.553935 228.383021 
L 77.99627 232.593645 
L 79.438606 233.819676 
L 80.880941 231.678273 
L 82.323277 226.946698 
L 86.650283 209.218252 
L 88.092619 204.449466 
L 89.534954 200.592341 
L 90.97729 197.638155 
L 92.419625 195.530285 
L 93.861961 194.187272 
L 95.304296 193.521309 
L 96.746632 193.448727 
L 98.188967 193.894646 
L 99.631303 194.791617 
L 101.073638 196.073063 
L 102.515974 197.659775 
L 106.84298 202.890639 
L 108.285316 204.006382 
L 109.727651 204.195954 
L 111.169987 202.954646 
L 112.612322 199.711698 
L 114.054658 193.872911 
L 115.496993 186.610916 
L 119.824 161.111259 
L 121.266335 155.490373 
L 122.708671 153.978562 
L 124.151006 156.6819 
L 125.593342 162.1583 
L 127.035677 168.522401 
L 128.478013 174.372283 
L 129.920348 178.967918 
L 132.805019 186.851691 
L 134.247355 190.844066 
L 135.68969 193.831905 
L 137.132025 196.062028 
L 138.574361 197.754514 
L 140.016696 199.091602 
L 142.901367 201.228982 
L 144.343703 202.206404 
L 145.786038 203.029628 
L 147.228374 203.626741 
L 148.670709 204.038903 
L 150.113045 204.300972 
L 152.997716 204.485866 
L 155.882387 204.357025 
L 160.209393 203.820835 
L 165.978735 202.807645 
L 180.40209 200.149991 
L 189.056103 198.834974 
L 196.267781 197.946185 
L 204.921793 197.118582 
L 213.575806 196.523916 
L 223.672155 196.078779 
L 235.210839 195.833382 
L 248.191858 195.803911 
L 265.499884 196.018195 
L 301.558271 196.772121 
L 331.847316 197.289508 
L 360.694026 197.559867 
L 396.752413 197.662243 
L 403.964091 197.663363 
L 403.964091 197.663363 
" clip-path="url(#p72a24dc729)" style="fill: none; stroke: #1f77b4; stroke-width: 1.5; stroke-linecap: square"/>
   </g>
   <g id="patch_8">
    <path d="M 42.01 237.811732 
L 42.01 149.986506 
" style="fill: none; stroke: #000000; stroke-width: 0.8; stroke-linejoin: miter; stroke-linecap: square"/>
   </g>
   <g id="patch_9">
    <path d="M 421.2 237.811732 
L 421.2 149.986506 
" style="fill: none; stroke: #000000; stroke-width: 0.8; stroke-linejoin: miter; stroke-linecap: square"/>
   </g>
   <g id="patch_10">
    <path d="M 42.01 237.811732 
L 421.2 237.811732 
" style="fill: none; stroke: #000000; stroke-width: 0.8; stroke-linejoin: miter; stroke-linecap: square"/>
   </g>
   <g id="patch_11">
    <path d="M 42.01 149.986506 
L 421.2 149.986506 
" style="fill: none; stroke: #000000; stroke-width: 0.8; stroke-linejoin: miter; stroke-linecap: square"/>
   </g>
   <g id="text_8">
    <!-- Velocity $v$ [m/s] -->
    <g transform="translate(184.505 143.986506)scale(0.12 -0.12)">
     <defs>
      <path id="DejaVuSans-56" d="M 1831 0 
L 50 4666 
L 709 4666 
L 2188 738 
L 3669 4666 
L 4325 4666 
L 2547 0 
L 1831 0 
z
" transform="scale(0.015625)"/>
      <path id="DejaVuSans-65" d="M 3597 1894 
L 3597 1613 
L 953 1613 
Q 991 1019 1311 708 
Q 1631 397 2203 397 
Q 2534 397 2845 478 
Q 3156 559 3463 722 
L 3463 178 
Q 3153 47 2828 -22 
Q 2503 -91 2169 -91 
Q 1331 -91 842 396 
Q 353 884 353 1716 
Q 353 2575 817 3079 
Q 1281 3584 2069 3584 
Q 2775 3584 3186 3129 
Q 3597 2675 3597 1894 
z
M 3022 2063 
Q 3016 2534 2758 2815 
Q 2500 3097 2075 3097 
Q 1594 3097 1305 2825 
Q 1016 2553 972 2059 
L 3022 2063 
z
" transform="scale(0.015625)"/>
      <path id="DejaVuSans-6c" d="M 603 4863 
L 1178 4863 
L 1178 0 
L 603 0 
L 603 4863 
z
" transform="scale(0.015625)"/>
      <path id="DejaVuSans-63" d="M 3122 3366 
L 3122 2828 
Q 2878 2963 2633 3030 
Q 2388 3097 2138 3097 
Q 1578 3097 1268 2742 
Q 959 2388 959 1747 
Q 959 1106 1268 751 
Q 1578 397 2138 397 
Q 2388 397 2633 464 
Q 2878 531 3122 666 
L 3122 134 
Q 2881 22 2623 -34 
Q 2366 -91 2075 -91 
Q 1284 -91 818 406 
Q 353 903 353 1747 
Q 353 2603 823 3093 
Q 1294 3584 2113 3584 
Q 2378 3584 2631 3529 
Q 2884 3475 3122 3366 
z
" transform="scale(0.015625)"/>
      <path id="DejaVuSans-79" d="M 2059 -325 
Q 1816 -950 1584 -1140 
Q 1353 -1331 966 -1331 
L 506 -1331 
L 506 -850 
L 844 -850 
Q 1081 -850 1212 -737 
Q 1344 -625 1503 -206 
L 1606 56 
L 191 3500 
L 800 3500 
L 1894 763 
L 2988 3500 
L 3597 3500 
L 2059 -325 
z
" transform="scale(0.015625)"/>
      <path id="DejaVuSans-Oblique-76" d="M 459 3500 
L 1069 3500 
L 1581 525 
L 3256 3500 
L 3866 3500 
L 1875 0 
L 1100 0 
L 459 3500 
z
" transform="scale(0.015625)"/>
      <path id="DejaVuSans-2f" d="M 1625 4666 
L 2156 4666 
L 531 -594 
L 0 -594 
L 1625 4666 
z
" transform="scale(0.015625)"/>
     </defs>
     <use xlink:href="#DejaVuSans-56" transform="translate(0 0.015625)"/>
     <use xlink:href="#DejaVuSans-65" transform="translate(68.408203 0.015625)"/>
     <use xlink:href="#DejaVuSans-6c" transform="translate(129.931641 0.015625)"/>
     <use xlink:href="#DejaVuSans-6f" transform="translate(157.714844 0.015625)"/>
     <use xlink:href="#DejaVuSans-63" transform="translate(218.896484 0.015625)"/>
     <use xlink:href="#DejaVuSans-69" transform="translate(273.876953 0.015625)"/>
     <use xlink:href="#DejaVuSans-74" transform="translate(301.660156 0.015625)"/>
     <use xlink:href="#DejaVuSans-79" transform="translate(340.869141 0.015625)"/>
     <use xlink:href="#DejaVuSans-20" transform="translate(400.048828 0.015625)"/>
     <use xlink:href="#DejaVuSans-Oblique-76" transform="translate(431.835938 0.015625)"/>
     <use xlink:href="#DejaVuSans-20" transform="translate(491.015625 0.015625)"/>
     <use xlink:href="#DejaVuSans-5b" transform="translate(522.802734 0.015625)"/>
     <use xlink:href="#DejaVuSans-6d" transform="translate(561.816406 0.015625)"/>
     <use xlink:href="#DejaVuSans-2f" transform="translate(659.228516 0.015625)"/>
     <use xlink:href="#DejaVuSans-73" transform="translate(692.919922 0.015625)"/>
     <use xlink:href="#DejaVuSans-5d" transform="translate(745.019531 0.015625)"/>
    </g>
   </g>
  </g>
  <g id="axes_3">
   <g id="patch_12">
    <path d="M 42.01 360.006988 
L 421.2 360.006988 
L 421.2 272.181762 
L 42.01 272.181762 
z
" style="fill: #ffffff"/>
   </g>
   <g id="matplotlib.axis_5">
    <g id="xtick_15">
     <g id="line2d_23">
      <g>
       <use xlink:href="#m8665b35aec" x="59.245909" y="360.006988" style="stroke: #000000; stroke-width: 0.8"/>
      </g>
     </g>
    </g>
    <g id="xtick_16">
     <g id="line2d_24">
      <g>
       <use xlink:href="#m8665b35aec" x="116.939329" y="360.006988" style="stroke: #000000; stroke-width: 0.8"/>
      </g>
     </g>
    </g>
    <g id="xtick_17">
     <g id="line2d_25">
      <g>
       <use xlink:href="#m8665b35aec" x="174.632748" y="360.006988" style="stroke: #000000; stroke-width: 0.8"/>
      </g>
     </g>
    </g>
    <g id="xtick_18">
     <g id="line2d_26">
      <g>
       <use xlink:href="#m8665b35aec" x="232.326168" y="360.006988" style="stroke: #000000; stroke-width: 0.8"/>
      </g>
     </g>
    </g>
    <g id="xtick_19">
     <g id="line2d_27">
      <g>
       <use xlink:href="#m8665b35aec" x="290.019587" y="360.006988" style="stroke: #000000; stroke-width: 0.8"/>
      </g>
     </g>
    </g>
    <g id="xtick_20">
     <g id="line2d_28">
      <g>
       <use xlink:href="#m8665b35aec" x="347.713007" y="360.006988" style="stroke: #000000; stroke-width: 0.8"/>
      </g>
     </g>
    </g>
    <g id="xtick_21">
     <g id="line2d_29">
      <g>
       <use xlink:href="#m8665b35aec" x="405.406426" y="360.006988" style="stroke: #000000; stroke-width: 0.8"/>
      </g>
     </g>
    </g>
   </g>
   <g id="matplotlib.axis_6">
    <g id="ytick_7">
     <g id="line2d_30">
      <g>
       <use xlink:href="#mebf4d7efc5" x="42.01" y="336.243253" style="stroke: #000000; stroke-width: 0.8"/>
      </g>
     </g>
     <g id="text_9">
      <!-- −4 -->
      <g transform="translate(20.267813 340.042472)scale(0.1 -0.1)">
       <defs>
        <path id="DejaVuSans-34" d="M 2419 4116 
L 825 1625 
L 2419 1625 
L 2419 4116 
z
M 2253 4666 
L 3047 4666 
L 3047 1625 
L 3713 1625 
L 3713 1100 
L 3047 1100 
L 3047 0 
L 2419 0 
L 2419 1100 
L 313 1100 
L 313 1709 
L 2253 4666 
z
" transform="scale(0.015625)"/>
       </defs>
       <use xlink:href="#DejaVuSans-2212"/>
       <use xlink:href="#DejaVuSans-34" x="83.789062"/>
      </g>
     </g>
    </g>
    <g id="ytick_8">
     <g id="line2d_31">
      <g>
       <use xlink:href="#mebf4d7efc5" x="42.01" y="306.309173" style="stroke: #000000; stroke-width: 0.8"/>
      </g>
     </g>
     <g id="text_10">
      <!-- −2 -->
      <g transform="translate(20.267813 310.108391)scale(0.1 -0.1)">
       <use xlink:href="#DejaVuSans-2212"/>
       <use xlink:href="#DejaVuSans-32" x="83.789062"/>
      </g>
     </g>
    </g>
    <g id="ytick_9">
     <g id="line2d_32">
      <g>
       <use xlink:href="#mebf4d7efc5" x="42.01" y="276.375092" style="stroke: #000000; stroke-width: 0.8"/>
      </g>
     </g>
     <g id="text_11">
      <!-- 0 -->
      <g transform="translate(28.6475 280.174311)scale(0.1 -0.1)">
       <use xlink:href="#DejaVuSans-30"/>
      </g>
     </g>
    </g>
   </g>
   <g id="line2d_33">
    <path d="M 59.245909 292.185848 
L 60.688245 292.597774 
L 62.13058 293.285138 
L 63.572916 294.250249 
L 65.015251 295.496714 
L 66.457587 297.029361 
L 67.899922 298.854458 
L 69.342258 300.980396 
L 70.784593 303.41873 
L 72.226928 306.184736 
L 73.669264 309.295672 
L 75.111599 312.762846 
L 77.99627 320.658821 
L 82.323277 333.031801 
L 83.765612 336.682541 
L 85.207948 339.977337 
L 86.650283 342.917281 
L 88.092619 345.519742 
L 89.534954 347.805019 
L 90.97729 349.790916 
L 92.419625 351.491155 
L 93.861961 352.915382 
L 95.304296 354.069723 
L 96.746632 354.957348 
L 98.188967 355.578877 
L 99.631303 355.932638 
L 101.073638 356.014932 
L 102.515974 355.820475 
L 103.958309 355.343144 
L 105.400645 354.577062 
L 106.84298 353.517834 
L 108.285316 352.163501 
L 109.727651 350.51447 
L 111.169987 348.571522 
L 112.612322 346.331133 
L 114.054658 343.777982 
L 115.496993 340.882784 
L 116.939329 337.610601 
L 118.381664 333.933114 
L 121.266335 325.454324 
L 124.151006 316.418111 
L 127.035677 308.296825 
L 128.478013 304.767692 
L 129.920348 301.580691 
L 131.362684 298.712281 
L 132.805019 296.138437 
L 134.247355 293.829846 
L 135.68969 291.760638 
L 137.132025 289.912241 
L 138.574361 288.267296 
L 140.016696 286.808203 
L 142.901367 284.373693 
L 145.786038 282.45971 
L 148.670709 280.951778 
L 151.55538 279.773506 
L 154.440051 278.860535 
L 157.324722 278.158596 
L 161.651729 277.405781 
L 165.978735 276.912464 
L 171.748077 276.519042 
L 178.959755 276.280162 
L 190.498439 276.175053 
L 216.460477 276.263771 
L 271.269226 276.413118 
L 379.444388 276.381387 
L 403.964091 276.375396 
L 403.964091 276.375396 
" clip-path="url(#p10e7a3604c)" style="fill: none; stroke: #1f77b4; stroke-width: 1.5; stroke-linecap: square"/>
   </g>
   <g id="patch_13">
    <path d="M 42.01 360.006988 
L 42.01 272.181762 
" style="fill: none; stroke: #000000; stroke-width: 0.8; stroke-linejoin: miter; stroke-linecap: square"/>
   </g>
   <g id="patch_14">
    <path d="M 421.2 360.006988 
L 421.2 272.181762 
" style="fill: none; stroke: #000000; stroke-width: 0.8; stroke-linejoin: miter; stroke-linecap: square"/>
   </g>
   <g id="patch_15">
    <path d="M 42.01 360.006988 
L 421.2 360.006988 
" style="fill: none; stroke: #000000; stroke-width: 0.8; stroke-linejoin: miter; stroke-linecap: square"/>
   </g>
   <g id="patch_16">
    <path d="M 42.01 272.181762 
L 421.2 272.181762 
" style="fill: none; stroke: #000000; stroke-width: 0.8; stroke-linejoin: miter; stroke-linecap: square"/>
   </g>
   <g id="text_12">
    <!-- Angle $\theta$ [rad] -->
    <g transform="translate(192.365 266.181762)scale(0.12 -0.12)">
     <defs>
      <path id="DejaVuSans-41" d="M 2188 4044 
L 1331 1722 
L 3047 1722 
L 2188 4044 
z
M 1831 4666 
L 2547 4666 
L 4325 0 
L 3669 0 
L 3244 1197 
L 1141 1197 
L 716 0 
L 50 0 
L 1831 4666 
z
" transform="scale(0.015625)"/>
      <path id="DejaVuSans-67" d="M 2906 1791 
Q 2906 2416 2648 2759 
Q 2391 3103 1925 3103 
Q 1463 3103 1205 2759 
Q 947 2416 947 1791 
Q 947 1169 1205 825 
Q 1463 481 1925 481 
Q 2391 481 2648 825 
Q 2906 1169 2906 1791 
z
M 3481 434 
Q 3481 -459 3084 -895 
Q 2688 -1331 1869 -1331 
Q 1566 -1331 1297 -1286 
Q 1028 -1241 775 -1147 
L 775 -588 
Q 1028 -725 1275 -790 
Q 1522 -856 1778 -856 
Q 2344 -856 2625 -561 
Q 2906 -266 2906 331 
L 2906 616 
Q 2728 306 2450 153 
Q 2172 0 1784 0 
Q 1141 0 747 490 
Q 353 981 353 1791 
Q 353 2603 747 3093 
Q 1141 3584 1784 3584 
Q 2172 3584 2450 3431 
Q 2728 3278 2906 2969 
L 2906 3500 
L 3481 3500 
L 3481 434 
z
" transform="scale(0.015625)"/>
      <path id="DejaVuSans-Oblique-3b8" d="M 2913 2219 
L 925 2219 
Q 791 1284 928 888 
Q 1100 400 1566 400 
Q 2034 400 2391 891 
Q 2703 1322 2913 2219 
z
M 3009 2750 
Q 3094 3638 2984 3950 
Q 2813 4444 2353 4444 
Q 1875 4444 1525 3956 
Q 1250 3563 1034 2750 
L 3009 2750 
z
M 2444 4913 
Q 3194 4913 3494 4250 
Q 3794 3591 3566 2422 
Q 3341 1256 2781 594 
Q 2225 -72 1475 -72 
Q 722 -72 425 594 
Q 128 1256 353 2422 
Q 581 3591 1134 4250 
Q 1691 4913 2444 4913 
z
" transform="scale(0.015625)"/>
      <path id="DejaVuSans-72" d="M 2631 2963 
Q 2534 3019 2420 3045 
Q 2306 3072 2169 3072 
Q 1681 3072 1420 2755 
Q 1159 2438 1159 1844 
L 1159 0 
L 581 0 
L 581 3500 
L 1159 3500 
L 1159 2956 
Q 1341 3275 1631 3429 
Q 1922 3584 2338 3584 
Q 2397 3584 2469 3576 
Q 2541 3569 2628 3553 
L 2631 2963 
z
" transform="scale(0.015625)"/>
      <path id="DejaVuSans-61" d="M 2194 1759 
Q 1497 1759 1228 1600 
Q 959 1441 959 1056 
Q 959 750 1161 570 
Q 1363 391 1709 391 
Q 2188 391 2477 730 
Q 2766 1069 2766 1631 
L 2766 1759 
L 2194 1759 
z
M 3341 1997 
L 3341 0 
L 2766 0 
L 2766 531 
Q 2569 213 2275 61 
Q 1981 -91 1556 -91 
Q 1019 -91 701 211 
Q 384 513 384 1019 
Q 384 1609 779 1909 
Q 1175 2209 1959 2209 
L 2766 2209 
L 2766 2266 
Q 2766 2663 2505 2880 
Q 2244 3097 1772 3097 
Q 1472 3097 1187 3025 
Q 903 2953 641 2809 
L 641 3341 
Q 956 3463 1253 3523 
Q 1550 3584 1831 3584 
Q 2591 3584 2966 3190 
Q 3341 2797 3341 1997 
z
" transform="scale(0.015625)"/>
      <path id="DejaVuSans-64" d="M 2906 2969 
L 2906 4863 
L 3481 4863 
L 3481 0 
L 2906 0 
L 2906 525 
Q 2725 213 2448 61 
Q 2172 -91 1784 -91 
Q 1150 -91 751 415 
Q 353 922 353 1747 
Q 353 2572 751 3078 
Q 1150 3584 1784 3584 
Q 2172 3584 2448 3432 
Q 2725 3281 2906 2969 
z
M 947 1747 
Q 947 1113 1208 752 
Q 1469 391 1925 391 
Q 2381 391 2643 752 
Q 2906 1113 2906 1747 
Q 2906 2381 2643 2742 
Q 2381 3103 1925 3103 
Q 1469 3103 1208 2742 
Q 947 2381 947 1747 
z
" transform="scale(0.015625)"/>
     </defs>
     <use xlink:href="#DejaVuSans-41" transform="translate(0 0.234375)"/>
     <use xlink:href="#DejaVuSans-6e" transform="translate(68.408203 0.234375)"/>
     <use xlink:href="#DejaVuSans-67" transform="translate(131.787109 0.234375)"/>
     <use xlink:href="#DejaVuSans-6c" transform="translate(195.263672 0.234375)"/>
     <use xlink:href="#DejaVuSans-65" transform="translate(223.046875 0.234375)"/>
     <use xlink:href="#DejaVuSans-20" transform="translate(284.570312 0.234375)"/>
     <use xlink:href="#DejaVuSans-Oblique-3b8" transform="translate(316.357422 0.234375)"/>
     <use xlink:href="#DejaVuSans-20" transform="translate(377.539062 0.234375)"/>
     <use xlink:href="#DejaVuSans-5b" transform="translate(409.326172 0.234375)"/>
     <use xlink:href="#DejaVuSans-72" transform="translate(448.339844 0.234375)"/>
     <use xlink:href="#DejaVuSans-61" transform="translate(489.453125 0.234375)"/>
     <use xlink:href="#DejaVuSans-64" transform="translate(550.732422 0.234375)"/>
     <use xlink:href="#DejaVuSans-5d" transform="translate(614.208984 0.234375)"/>
    </g>
   </g>
  </g>
  <g id="axes_4">
   <g id="patch_17">
    <path d="M 42.01 482.202244 
L 421.2 482.202244 
L 421.2 394.377018 
L 42.01 394.377018 
z
" style="fill: #ffffff"/>
   </g>
   <g id="matplotlib.axis_7">
    <g id="xtick_22">
     <g id="line2d_34">
      <g>
       <use xlink:href="#m8665b35aec" x="59.245909" y="482.202244" style="stroke: #000000; stroke-width: 0.8"/>
      </g>
     </g>
    </g>
    <g id="xtick_23">
     <g id="line2d_35">
      <g>
       <use xlink:href="#m8665b35aec" x="116.939329" y="482.202244" style="stroke: #000000; stroke-width: 0.8"/>
      </g>
     </g>
    </g>
    <g id="xtick_24">
     <g id="line2d_36">
      <g>
       <use xlink:href="#m8665b35aec" x="174.632748" y="482.202244" style="stroke: #000000; stroke-width: 0.8"/>
      </g>
     </g>
    </g>
    <g id="xtick_25">
     <g id="line2d_37">
      <g>
       <use xlink:href="#m8665b35aec" x="232.326168" y="482.202244" style="stroke: #000000; stroke-width: 0.8"/>
      </g>
     </g>
    </g>
    <g id="xtick_26">
     <g id="line2d_38">
      <g>
       <use xlink:href="#m8665b35aec" x="290.019587" y="482.202244" style="stroke: #000000; stroke-width: 0.8"/>
      </g>
     </g>
    </g>
    <g id="xtick_27">
     <g id="line2d_39">
      <g>
       <use xlink:href="#m8665b35aec" x="347.713007" y="482.202244" style="stroke: #000000; stroke-width: 0.8"/>
      </g>
     </g>
    </g>
    <g id="xtick_28">
     <g id="line2d_40">
      <g>
       <use xlink:href="#m8665b35aec" x="405.406426" y="482.202244" style="stroke: #000000; stroke-width: 0.8"/>
      </g>
     </g>
    </g>
   </g>
   <g id="matplotlib.axis_8">
    <g id="ytick_10">
     <g id="line2d_41">
      <g>
       <use xlink:href="#mebf4d7efc5" x="42.01" y="473.740936" style="stroke: #000000; stroke-width: 0.8"/>
      </g>
     </g>
     <g id="text_13">
      <!-- −10 -->
      <g transform="translate(13.905313 477.540154)scale(0.1 -0.1)">
       <use xlink:href="#DejaVuSans-2212"/>
       <use xlink:href="#DejaVuSans-31" x="83.789062"/>
       <use xlink:href="#DejaVuSans-30" x="147.412109"/>
      </g>
     </g>
    </g>
    <g id="ytick_11">
     <g id="line2d_42">
      <g>
       <use xlink:href="#mebf4d7efc5" x="42.01" y="439.747539" style="stroke: #000000; stroke-width: 0.8"/>
      </g>
     </g>
     <g id="text_14">
      <!-- 0 -->
      <g transform="translate(28.6475 443.546758)scale(0.1 -0.1)">
       <use xlink:href="#DejaVuSans-30"/>
      </g>
     </g>
    </g>
    <g id="ytick_12">
     <g id="line2d_43">
      <g>
       <use xlink:href="#mebf4d7efc5" x="42.01" y="405.754142" style="stroke: #000000; stroke-width: 0.8"/>
      </g>
     </g>
     <g id="text_15">
      <!-- 10 -->
      <g transform="translate(22.285 409.553361)scale(0.1 -0.1)">
       <use xlink:href="#DejaVuSans-31"/>
       <use xlink:href="#DejaVuSans-30" x="63.623047"/>
      </g>
     </g>
    </g>
   </g>
   <g id="line2d_44">
    <path d="M 59.245909 442.243054 
L 65.015251 452.362192 
L 69.342258 460.46048 
L 72.226928 466.417853 
L 76.553935 475.76021 
L 77.99627 477.750741 
L 79.438606 478.210188 
L 80.880941 476.972637 
L 82.323277 474.459741 
L 88.092619 461.920814 
L 90.97729 456.473442 
L 95.304296 449.022239 
L 101.073638 439.251394 
L 105.400645 431.463396 
L 112.612322 418.010389 
L 114.054658 415.050278 
L 115.496993 411.785741 
L 119.824 401.043834 
L 121.266335 398.754524 
L 122.708671 398.369074 
L 124.151006 399.946449 
L 125.593342 402.786739 
L 128.478013 409.277608 
L 131.362684 415.070515 
L 132.805019 417.62355 
L 135.68969 421.978665 
L 138.574361 425.674815 
L 140.016696 427.281167 
L 141.459032 428.717869 
L 142.901367 429.981106 
L 145.786038 432.034214 
L 148.670709 433.694349 
L 151.55538 435.038928 
L 154.440051 436.114247 
L 157.324722 436.965074 
L 160.209393 437.632495 
L 164.5364 438.366764 
L 168.863406 438.865569 
L 174.632748 439.285726 
L 181.844426 439.571505 
L 193.38311 439.756478 
L 215.018142 439.810634 
L 403.964091 439.745331 
L 403.964091 439.745331 
" clip-path="url(#pdd984f12ca)" style="fill: none; stroke: #1f77b4; stroke-width: 1.5; stroke-linecap: square"/>
   </g>
   <g id="patch_18">
    <path d="M 42.01 482.202244 
L 42.01 394.377018 
" style="fill: none; stroke: #000000; stroke-width: 0.8; stroke-linejoin: miter; stroke-linecap: square"/>
   </g>
   <g id="patch_19">
    <path d="M 421.2 482.202244 
L 421.2 394.377018 
" style="fill: none; stroke: #000000; stroke-width: 0.8; stroke-linejoin: miter; stroke-linecap: square"/>
   </g>
   <g id="patch_20">
    <path d="M 42.01 482.202244 
L 421.2 482.202244 
" style="fill: none; stroke: #000000; stroke-width: 0.8; stroke-linejoin: miter; stroke-linecap: square"/>
   </g>
   <g id="patch_21">
    <path d="M 42.01 394.377018 
L 421.2 394.377018 
" style="fill: none; stroke: #000000; stroke-width: 0.8; stroke-linejoin: miter; stroke-linecap: square"/>
   </g>
   <g id="text_16">
    <!-- Angular velocity $\omega$ [rad/s] -->
    <g transform="translate(154.265 388.377018)scale(0.12 -0.12)">
     <defs>
      <path id="DejaVuSans-75" d="M 544 1381 
L 544 3500 
L 1119 3500 
L 1119 1403 
Q 1119 906 1312 657 
Q 1506 409 1894 409 
Q 2359 409 2629 706 
Q 2900 1003 2900 1516 
L 2900 3500 
L 3475 3500 
L 3475 0 
L 2900 0 
L 2900 538 
Q 2691 219 2414 64 
Q 2138 -91 1772 -91 
Q 1169 -91 856 284 
Q 544 659 544 1381 
z
M 1991 3584 
L 1991 3584 
z
" transform="scale(0.015625)"/>
      <path id="DejaVuSans-76" d="M 191 3500 
L 800 3500 
L 1894 563 
L 2988 3500 
L 3597 3500 
L 2284 0 
L 1503 0 
L 191 3500 
z
" transform="scale(0.015625)"/>
      <path id="DejaVuSans-Oblique-3c9" d="M 1369 -91 
Q 72 -91 434 1766 
Q 575 2500 1256 3500 
L 1875 3500 
Q 1231 2500 1088 1750 
Q 819 397 1519 397 
Q 2166 397 2478 2078 
L 3009 2078 
Q 2669 388 3316 397 
Q 4013 403 4275 1750 
Q 4419 2500 4169 3500 
L 4788 3500 
Q 5075 2500 4934 1766 
Q 4578 -94 3278 -91 
Q 2428 -88 2503 844 
Q 2194 -91 1369 -91 
z
" transform="scale(0.015625)"/>
     </defs>
     <use xlink:href="#DejaVuSans-41" transform="translate(0 0.015625)"/>
     <use xlink:href="#DejaVuSans-6e" transform="translate(68.408203 0.015625)"/>
     <use xlink:href="#DejaVuSans-67" transform="translate(131.787109 0.015625)"/>
     <use xlink:href="#DejaVuSans-75" transform="translate(195.263672 0.015625)"/>
     <use xlink:href="#DejaVuSans-6c" transform="translate(258.642578 0.015625)"/>
     <use xlink:href="#DejaVuSans-61" transform="translate(286.425781 0.015625)"/>
     <use xlink:href="#DejaVuSans-72" transform="translate(347.705078 0.015625)"/>
     <use xlink:href="#DejaVuSans-20" transform="translate(388.818359 0.015625)"/>
     <use xlink:href="#DejaVuSans-76" transform="translate(420.605469 0.015625)"/>
     <use xlink:href="#DejaVuSans-65" transform="translate(479.785156 0.015625)"/>
     <use xlink:href="#DejaVuSans-6c" transform="translate(541.308594 0.015625)"/>
     <use xlink:href="#DejaVuSans-6f" transform="translate(569.091797 0.015625)"/>
     <use xlink:href="#DejaVuSans-63" transform="translate(630.273438 0.015625)"/>
     <use xlink:href="#DejaVuSans-69" transform="translate(685.253906 0.015625)"/>
     <use xlink:href="#DejaVuSans-74" transform="translate(713.037109 0.015625)"/>
     <use xlink:href="#DejaVuSans-79" transform="translate(752.246094 0.015625)"/>
     <use xlink:href="#DejaVuSans-20" transform="translate(811.425781 0.015625)"/>
     <use xlink:href="#DejaVuSans-Oblique-3c9" transform="translate(843.212891 0.015625)"/>
     <use xlink:href="#DejaVuSans-20" transform="translate(926.953125 0.015625)"/>
     <use xlink:href="#DejaVuSans-5b" transform="translate(958.740234 0.015625)"/>
     <use xlink:href="#DejaVuSans-72" transform="translate(997.753906 0.015625)"/>
     <use xlink:href="#DejaVuSans-61" transform="translate(1038.867188 0.015625)"/>
     <use xlink:href="#DejaVuSans-64" transform="translate(1100.146484 0.015625)"/>
     <use xlink:href="#DejaVuSans-2f" transform="translate(1163.623047 0.015625)"/>
     <use xlink:href="#DejaVuSans-73" transform="translate(1197.314453 0.015625)"/>
     <use xlink:href="#DejaVuSans-5d" transform="translate(1249.414062 0.015625)"/>
    </g>
   </g>
  </g>
  <g id="axes_5">
   <g id="patch_22">
    <path d="M 42.01 604.3975 
L 421.2 604.3975 
L 421.2 516.572274 
L 42.01 516.572274 
z
" style="fill: #ffffff"/>
   </g>
   <g id="matplotlib.axis_9">
    <g id="xtick_29">
     <g id="line2d_45">
      <g>
       <use xlink:href="#m8665b35aec" x="59.245909" y="604.3975" style="stroke: #000000; stroke-width: 0.8"/>
      </g>
     </g>
     <g id="text_17">
      <!-- 0 -->
      <g transform="translate(56.064659 618.995938)scale(0.1 -0.1)">
       <use xlink:href="#DejaVuSans-30"/>
      </g>
     </g>
    </g>
    <g id="xtick_30">
     <g id="line2d_46">
      <g>
       <use xlink:href="#m8665b35aec" x="116.939329" y="604.3975" style="stroke: #000000; stroke-width: 0.8"/>
      </g>
     </g>
     <g id="text_18">
      <!-- 1 -->
      <g transform="translate(113.758079 618.995938)scale(0.1 -0.1)">
       <use xlink:href="#DejaVuSans-31"/>
      </g>
     </g>
    </g>
    <g id="xtick_31">
     <g id="line2d_47">
      <g>
       <use xlink:href="#m8665b35aec" x="174.632748" y="604.3975" style="stroke: #000000; stroke-width: 0.8"/>
      </g>
     </g>
     <g id="text_19">
      <!-- 2 -->
      <g transform="translate(171.451498 618.995938)scale(0.1 -0.1)">
       <use xlink:href="#DejaVuSans-32"/>
      </g>
     </g>
    </g>
    <g id="xtick_32">
     <g id="line2d_48">
      <g>
       <use xlink:href="#m8665b35aec" x="232.326168" y="604.3975" style="stroke: #000000; stroke-width: 0.8"/>
      </g>
     </g>
     <g id="text_20">
      <!-- 3 -->
      <g transform="translate(229.144918 618.995938)scale(0.1 -0.1)">
       <defs>
        <path id="DejaVuSans-33" d="M 2597 2516 
Q 3050 2419 3304 2112 
Q 3559 1806 3559 1356 
Q 3559 666 3084 287 
Q 2609 -91 1734 -91 
Q 1441 -91 1130 -33 
Q 819 25 488 141 
L 488 750 
Q 750 597 1062 519 
Q 1375 441 1716 441 
Q 2309 441 2620 675 
Q 2931 909 2931 1356 
Q 2931 1769 2642 2001 
Q 2353 2234 1838 2234 
L 1294 2234 
L 1294 2753 
L 1863 2753 
Q 2328 2753 2575 2939 
Q 2822 3125 2822 3475 
Q 2822 3834 2567 4026 
Q 2313 4219 1838 4219 
Q 1578 4219 1281 4162 
Q 984 4106 628 3988 
L 628 4550 
Q 988 4650 1302 4700 
Q 1616 4750 1894 4750 
Q 2613 4750 3031 4423 
Q 3450 4097 3450 3541 
Q 3450 3153 3228 2886 
Q 3006 2619 2597 2516 
z
" transform="scale(0.015625)"/>
       </defs>
       <use xlink:href="#DejaVuSans-33"/>
      </g>
     </g>
    </g>
    <g id="xtick_33">
     <g id="line2d_49">
      <g>
       <use xlink:href="#m8665b35aec" x="290.019587" y="604.3975" style="stroke: #000000; stroke-width: 0.8"/>
      </g>
     </g>
     <g id="text_21">
      <!-- 4 -->
      <g transform="translate(286.838337 618.995938)scale(0.1 -0.1)">
       <use xlink:href="#DejaVuSans-34"/>
      </g>
     </g>
    </g>
    <g id="xtick_34">
     <g id="line2d_50">
      <g>
       <use xlink:href="#m8665b35aec" x="347.713007" y="604.3975" style="stroke: #000000; stroke-width: 0.8"/>
      </g>
     </g>
     <g id="text_22">
      <!-- 5 -->
      <g transform="translate(344.531757 618.995938)scale(0.1 -0.1)">
       <defs>
        <path id="DejaVuSans-35" d="M 691 4666 
L 3169 4666 
L 3169 4134 
L 1269 4134 
L 1269 2991 
Q 1406 3038 1543 3061 
Q 1681 3084 1819 3084 
Q 2600 3084 3056 2656 
Q 3513 2228 3513 1497 
Q 3513 744 3044 326 
Q 2575 -91 1722 -91 
Q 1428 -91 1123 -41 
Q 819 9 494 109 
L 494 744 
Q 775 591 1075 516 
Q 1375 441 1709 441 
Q 2250 441 2565 725 
Q 2881 1009 2881 1497 
Q 2881 1984 2565 2268 
Q 2250 2553 1709 2553 
Q 1456 2553 1204 2497 
Q 953 2441 691 2322 
L 691 4666 
z
" transform="scale(0.015625)"/>
       </defs>
       <use xlink:href="#DejaVuSans-35"/>
      </g>
     </g>
    </g>
    <g id="xtick_35">
     <g id="line2d_51">
      <g>
       <use xlink:href="#m8665b35aec" x="405.406426" y="604.3975" style="stroke: #000000; stroke-width: 0.8"/>
      </g>
     </g>
     <g id="text_23">
      <!-- 6 -->
      <g transform="translate(402.225176 618.995938)scale(0.1 -0.1)">
       <defs>
        <path id="DejaVuSans-36" d="M 2113 2584 
Q 1688 2584 1439 2293 
Q 1191 2003 1191 1497 
Q 1191 994 1439 701 
Q 1688 409 2113 409 
Q 2538 409 2786 701 
Q 3034 994 3034 1497 
Q 3034 2003 2786 2293 
Q 2538 2584 2113 2584 
z
M 3366 4563 
L 3366 3988 
Q 3128 4100 2886 4159 
Q 2644 4219 2406 4219 
Q 1781 4219 1451 3797 
Q 1122 3375 1075 2522 
Q 1259 2794 1537 2939 
Q 1816 3084 2150 3084 
Q 2853 3084 3261 2657 
Q 3669 2231 3669 1497 
Q 3669 778 3244 343 
Q 2819 -91 2113 -91 
Q 1303 -91 875 529 
Q 447 1150 447 2328 
Q 447 3434 972 4092 
Q 1497 4750 2381 4750 
Q 2619 4750 2861 4703 
Q 3103 4656 3366 4563 
z
" transform="scale(0.015625)"/>
       </defs>
       <use xlink:href="#DejaVuSans-36"/>
      </g>
     </g>
    </g>
    <g id="text_24">
     <!-- Simulation time $t$ [s] -->
     <g transform="translate(180.405 632.674062)scale(0.1 -0.1)">
      <defs>
       <path id="DejaVuSans-53" d="M 3425 4513 
L 3425 3897 
Q 3066 4069 2747 4153 
Q 2428 4238 2131 4238 
Q 1616 4238 1336 4038 
Q 1056 3838 1056 3469 
Q 1056 3159 1242 3001 
Q 1428 2844 1947 2747 
L 2328 2669 
Q 3034 2534 3370 2195 
Q 3706 1856 3706 1288 
Q 3706 609 3251 259 
Q 2797 -91 1919 -91 
Q 1588 -91 1214 -16 
Q 841 59 441 206 
L 441 856 
Q 825 641 1194 531 
Q 1563 422 1919 422 
Q 2459 422 2753 634 
Q 3047 847 3047 1241 
Q 3047 1584 2836 1778 
Q 2625 1972 2144 2069 
L 1759 2144 
Q 1053 2284 737 2584 
Q 422 2884 422 3419 
Q 422 4038 858 4394 
Q 1294 4750 2059 4750 
Q 2388 4750 2728 4690 
Q 3069 4631 3425 4513 
z
" transform="scale(0.015625)"/>
       <path id="DejaVuSans-Oblique-74" d="M 2706 3500 
L 2619 3053 
L 1472 3053 
L 1100 1153 
Q 1081 1047 1072 975 
Q 1063 903 1063 863 
Q 1063 663 1183 572 
Q 1303 481 1569 481 
L 2150 481 
L 2053 0 
L 1503 0 
Q 991 0 739 200 
Q 488 400 488 806 
Q 488 878 497 964 
Q 506 1050 525 1153 
L 897 3053 
L 409 3053 
L 500 3500 
L 978 3500 
L 1172 4494 
L 1747 4494 
L 1556 3500 
L 2706 3500 
z
" transform="scale(0.015625)"/>
      </defs>
      <use xlink:href="#DejaVuSans-53" transform="translate(0 0.015625)"/>
      <use xlink:href="#DejaVuSans-69" transform="translate(63.476562 0.015625)"/>
      <use xlink:href="#DejaVuSans-6d" transform="translate(91.259766 0.015625)"/>
      <use xlink:href="#DejaVuSans-75" transform="translate(188.671875 0.015625)"/>
      <use xlink:href="#DejaVuSans-6c" transform="translate(252.050781 0.015625)"/>
      <use xlink:href="#DejaVuSans-61" transform="translate(279.833984 0.015625)"/>
      <use xlink:href="#DejaVuSans-74" transform="translate(341.113281 0.015625)"/>
      <use xlink:href="#DejaVuSans-69" transform="translate(380.322266 0.015625)"/>
      <use xlink:href="#DejaVuSans-6f" transform="translate(408.105469 0.015625)"/>
      <use xlink:href="#DejaVuSans-6e" transform="translate(469.287109 0.015625)"/>
      <use xlink:href="#DejaVuSans-20" transform="translate(532.666016 0.015625)"/>
      <use xlink:href="#DejaVuSans-74" transform="translate(564.453125 0.015625)"/>
      <use xlink:href="#DejaVuSans-69" transform="translate(603.662109 0.015625)"/>
      <use xlink:href="#DejaVuSans-6d" transform="translate(631.445312 0.015625)"/>
      <use xlink:href="#DejaVuSans-65" transform="translate(728.857422 0.015625)"/>
      <use xlink:href="#DejaVuSans-20" transform="translate(790.380859 0.015625)"/>
      <use xlink:href="#DejaVuSans-Oblique-74" transform="translate(822.167969 0.015625)"/>
      <use xlink:href="#DejaVuSans-20" transform="translate(861.376953 0.015625)"/>
      <use xlink:href="#DejaVuSans-5b" transform="translate(893.164062 0.015625)"/>
      <use xlink:href="#DejaVuSans-73" transform="translate(932.177734 0.015625)"/>
      <use xlink:href="#DejaVuSans-5d" transform="translate(984.277344 0.015625)"/>
     </g>
    </g>
   </g>
   <g id="matplotlib.axis_10">
    <g id="ytick_13">
     <g id="line2d_52">
      <g>
       <use xlink:href="#mebf4d7efc5" x="42.01" y="600.405444" style="stroke: #000000; stroke-width: 0.8"/>
      </g>
     </g>
     <g id="text_25">
      <!-- −2 -->
      <g transform="translate(20.267813 604.204663)scale(0.1 -0.1)">
       <use xlink:href="#DejaVuSans-2212"/>
       <use xlink:href="#DejaVuSans-32" x="83.789062"/>
      </g>
     </g>
    </g>
    <g id="ytick_14">
     <g id="line2d_53">
      <g>
       <use xlink:href="#mebf4d7efc5" x="42.01" y="560.484887" style="stroke: #000000; stroke-width: 0.8"/>
      </g>
     </g>
     <g id="text_26">
      <!-- 0 -->
      <g transform="translate(28.6475 564.284106)scale(0.1 -0.1)">
       <use xlink:href="#DejaVuSans-30"/>
      </g>
     </g>
    </g>
    <g id="ytick_15">
     <g id="line2d_54">
      <g>
       <use xlink:href="#mebf4d7efc5" x="42.01" y="520.56433" style="stroke: #000000; stroke-width: 0.8"/>
      </g>
     </g>
     <g id="text_27">
      <!-- 2 -->
      <g transform="translate(28.6475 524.363549)scale(0.1 -0.1)">
       <use xlink:href="#DejaVuSans-32"/>
      </g>
     </g>
    </g>
   </g>
   <g id="line2d_55">
    <path d="M 59.245909 572.34684 
L 60.688245 573.620971 
L 62.13058 573.839668 
L 63.572916 572.996969 
L 65.015251 570.985842 
L 66.457587 567.839672 
L 67.899922 563.873275 
L 70.784593 555.259052 
L 72.226928 552.494586 
L 73.669264 552.480858 
L 75.111599 555.826331 
L 76.553935 562.139453 
L 77.99627 569.97986 
L 79.438606 577.179898 
L 80.880941 581.600085 
L 82.323277 581.809158 
L 83.765612 577.877993 
L 85.207948 570.721791 
L 89.534954 544.323788 
L 90.97729 538.845119 
L 92.419625 536.280182 
L 93.861961 536.354697 
L 95.304296 538.616122 
L 96.746632 542.591866 
L 98.188967 547.871423 
L 99.631303 554.107956 
L 103.958309 575.070607 
L 105.400645 581.068761 
L 106.84298 585.148773 
L 108.285316 585.997362 
L 109.727651 581.969559 
L 111.169987 571.221458 
L 112.612322 551.982037 
L 114.054658 522.907487 
L 115.496993 520.56433 
L 129.920348 520.56433 
L 131.362684 536.293081 
L 132.805019 574.764083 
L 134.247355 600.405444 
L 144.343703 600.405444 
L 145.786038 596.790696 
L 147.228374 590.965901 
L 148.670709 585.668723 
L 150.113045 580.94021 
L 151.55538 576.777175 
L 152.997716 573.150694 
L 154.440051 570.018328 
L 155.882387 567.3318 
L 157.324722 565.04192 
L 158.767058 563.101186 
L 160.209393 561.465509 
L 161.651729 560.094828 
L 163.094064 558.953353 
L 164.5364 558.009472 
L 165.978735 557.235479 
L 167.421071 556.60722 
L 170.305742 555.707129 
L 173.190413 555.173775 
L 176.075084 554.904502 
L 180.40209 554.849431 
L 184.729097 555.051426 
L 190.498439 555.550874 
L 203.479458 556.994678 
L 213.575806 558.089667 
L 227.999161 559.371922 
L 242.422516 560.287537 
L 258.288207 560.904324 
L 268.384555 561.136504 
L 290.019587 561.302687 
L 327.52031 561.050965 
L 379.444388 560.600307 
L 403.964091 560.488395 
L 403.964091 560.488395 
" clip-path="url(#p9c48125631)" style="fill: none; stroke: #1f77b4; stroke-width: 1.5; stroke-linecap: square"/>
   </g>
   <g id="patch_23">
    <path d="M 42.01 604.3975 
L 42.01 516.572274 
" style="fill: none; stroke: #000000; stroke-width: 0.8; stroke-linejoin: miter; stroke-linecap: square"/>
   </g>
   <g id="patch_24">
    <path d="M 421.2 604.3975 
L 421.2 516.572274 
" style="fill: none; stroke: #000000; stroke-width: 0.8; stroke-linejoin: miter; stroke-linecap: square"/>
   </g>
   <g id="patch_25">
    <path d="M 42.01 604.3975 
L 421.2 604.3975 
" style="fill: none; stroke: #000000; stroke-width: 0.8; stroke-linejoin: miter; stroke-linecap: square"/>
   </g>
   <g id="patch_26">
    <path d="M 42.01 516.572274 
L 421.2 516.572274 
" style="fill: none; stroke: #000000; stroke-width: 0.8; stroke-linejoin: miter; stroke-linecap: square"/>
   </g>
   <g id="text_28">
    <!-- Control input $F$ [N] -->
    <g transform="translate(175.985 510.572274)scale(0.12 -0.12)">
     <defs>
      <path id="DejaVuSans-43" d="M 4122 4306 
L 4122 3641 
Q 3803 3938 3442 4084 
Q 3081 4231 2675 4231 
Q 1875 4231 1450 3742 
Q 1025 3253 1025 2328 
Q 1025 1406 1450 917 
Q 1875 428 2675 428 
Q 3081 428 3442 575 
Q 3803 722 4122 1019 
L 4122 359 
Q 3791 134 3420 21 
Q 3050 -91 2638 -91 
Q 1578 -91 968 557 
Q 359 1206 359 2328 
Q 359 3453 968 4101 
Q 1578 4750 2638 4750 
Q 3056 4750 3426 4639 
Q 3797 4528 4122 4306 
z
" transform="scale(0.015625)"/>
      <path id="DejaVuSans-70" d="M 1159 525 
L 1159 -1331 
L 581 -1331 
L 581 3500 
L 1159 3500 
L 1159 2969 
Q 1341 3281 1617 3432 
Q 1894 3584 2278 3584 
Q 2916 3584 3314 3078 
Q 3713 2572 3713 1747 
Q 3713 922 3314 415 
Q 2916 -91 2278 -91 
Q 1894 -91 1617 61 
Q 1341 213 1159 525 
z
M 3116 1747 
Q 3116 2381 2855 2742 
Q 2594 3103 2138 3103 
Q 1681 3103 1420 2742 
Q 1159 2381 1159 1747 
Q 1159 1113 1420 752 
Q 1681 391 2138 391 
Q 2594 391 2855 752 
Q 3116 1113 3116 1747 
z
" transform="scale(0.015625)"/>
      <path id="DejaVuSans-Oblique-46" d="M 1081 4666 
L 3756 4666 
L 3653 4134 
L 1606 4134 
L 1338 2759 
L 3188 2759 
L 3084 2228 
L 1234 2228 
L 800 0 
L 172 0 
L 1081 4666 
z
" transform="scale(0.015625)"/>
      <path id="DejaVuSans-4e" d="M 628 4666 
L 1478 4666 
L 3547 763 
L 3547 4666 
L 4159 4666 
L 4159 0 
L 3309 0 
L 1241 3903 
L 1241 0 
L 628 0 
L 628 4666 
z
" transform="scale(0.015625)"/>
     </defs>
     <use xlink:href="#DejaVuSans-43" transform="translate(0 0.015625)"/>
     <use xlink:href="#DejaVuSans-6f" transform="translate(69.824219 0.015625)"/>
     <use xlink:href="#DejaVuSans-6e" transform="translate(131.005859 0.015625)"/>
     <use xlink:href="#DejaVuSans-74" transform="translate(194.384766 0.015625)"/>
     <use xlink:href="#DejaVuSans-72" transform="translate(233.59375 0.015625)"/>
     <use xlink:href="#DejaVuSans-6f" transform="translate(274.707031 0.015625)"/>
     <use xlink:href="#DejaVuSans-6c" transform="translate(335.888672 0.015625)"/>
     <use xlink:href="#DejaVuSans-20" transform="translate(363.671875 0.015625)"/>
     <use xlink:href="#DejaVuSans-69" transform="translate(395.458984 0.015625)"/>
     <use xlink:href="#DejaVuSans-6e" transform="translate(423.242188 0.015625)"/>
     <use xlink:href="#DejaVuSans-70" transform="translate(486.621094 0.015625)"/>
     <use xlink:href="#DejaVuSans-75" transform="translate(550.097656 0.015625)"/>
     <use xlink:href="#DejaVuSans-74" transform="translate(613.476562 0.015625)"/>
     <use xlink:href="#DejaVuSans-20" transform="translate(652.685547 0.015625)"/>
     <use xlink:href="#DejaVuSans-Oblique-46" transform="translate(684.472656 0.015625)"/>
     <use xlink:href="#DejaVuSans-20" transform="translate(741.992188 0.015625)"/>
     <use xlink:href="#DejaVuSans-5b" transform="translate(773.779297 0.015625)"/>
     <use xlink:href="#DejaVuSans-4e" transform="translate(812.792969 0.015625)"/>
     <use xlink:href="#DejaVuSans-5d" transform="translate(887.597656 0.015625)"/>
    </g>
   </g>
  </g>
 </g>
 <defs>
  <clipPath id="pc4c5b251f3">
   <rect x="42.01" y="27.79125" width="379.19" height="87.825226"/>
  </clipPath>
  <clipPath id="p72a24dc729">
   <rect x="42.01" y="149.986506" width="379.19" height="87.825226"/>
  </clipPath>
  <clipPath id="p10e7a3604c">
   <rect x="42.01" y="272.181762" width="379.19" height="87.825226"/>
  </clipPath>
  <clipPath id="pdd984f12ca">
   <rect x="42.01" y="394.377018" width="379.19" height="87.825226"/>
  </clipPath>
  <clipPath id="p9c48125631">
   <rect x="42.01" y="516.572274" width="379.19" height="87.825226"/>
  </clipPath>
 </defs>
</svg>
