<?xml version="1.0" encoding="utf-8" standalone="no"?>
<!DOCTYPE svg PUBLIC "-//W3C//DTD SVG 1.1//EN"
  "http://www.w3.org/Graphics/SVG/1.1/DTD/svg11.dtd">
<svg xmlns:xlink="http://www.w3.org/1999/xlink" width="432pt" height="648pt" viewBox="0 0 432 648" xmlns="http://www.w3.org/2000/svg" version="1.1">
 <metadata>
  <rdf:RDF xmlns:dc="http://purl.org/dc/elements/1.1/" xmlns:cc="http://creativecommons.org/ns#" xmlns:rdf="http://www.w3.org/1999/02/22-rdf-syntax-ns#">
   <cc:Work>
    <dc:type rdf:resource="http://purl.org/dc/dcmitype/StillImage"/>
    <dc:date>2022-11-27T17:28:04.294565</dc:date>
    <dc:format>image/svg+xml</dc:format>
    <dc:creator>
     <cc:Agent>
      <dc:title>Matplotlib v3.6.2, https://matplotlib.org/</dc:title>
     </cc:Agent>
    </dc:creator>
   </cc:Work>
  </rdf:RDF>
 </metadata>
 <defs>
  <style type="text/css">*{stroke-linejoin: round; stroke-linecap: butt}</style>
 </defs>
 <g id="figure_1">
  <g id="patch_1">
   <path d="M 0 648 
L 432 648 
L 432 0 
L 0 0 
z
" style="fill: #ffffff"/>
  </g>
  <g id="axes_1">
   <g id="patch_2">
    <path d="M 48.31 118.0795 
L 421.2 118.0795 
L 421.2 28.32 
L 48.31 28.32 
z
" style="fill: #ffffff"/>
   </g>
   <g id="matplotlib.axis_1">
    <g id="xtick_1">
     <g id="line2d_1">
      <defs>
       <path id="m0909e088f6" d="M 0 0 
L 0 3.5 
" style="stroke: #000000; stroke-width: 0.8"/>
      </defs>
      <g>
       <use xlink:href="#m0909e088f6" x="65.259545" y="118.0795" style="stroke: #000000; stroke-width: 0.8"/>
      </g>
     </g>
    </g>
    <g id="xtick_2">
     <g id="line2d_2">
      <g>
       <use xlink:href="#m0909e088f6" x="121.75803" y="118.0795" style="stroke: #000000; stroke-width: 0.8"/>
      </g>
     </g>
    </g>
    <g id="xtick_3">
     <g id="line2d_3">
      <g>
       <use xlink:href="#m0909e088f6" x="178.256515" y="118.0795" style="stroke: #000000; stroke-width: 0.8"/>
      </g>
     </g>
    </g>
    <g id="xtick_4">
     <g id="line2d_4">
      <g>
       <use xlink:href="#m0909e088f6" x="234.755" y="118.0795" style="stroke: #000000; stroke-width: 0.8"/>
      </g>
     </g>
    </g>
    <g id="xtick_5">
     <g id="line2d_5">
      <g>
       <use xlink:href="#m0909e088f6" x="291.253485" y="118.0795" style="stroke: #000000; stroke-width: 0.8"/>
      </g>
     </g>
    </g>
    <g id="xtick_6">
     <g id="line2d_6">
      <g>
       <use xlink:href="#m0909e088f6" x="347.75197" y="118.0795" style="stroke: #000000; stroke-width: 0.8"/>
      </g>
     </g>
    </g>
    <g id="xtick_7">
     <g id="line2d_7">
      <g>
       <use xlink:href="#m0909e088f6" x="404.250455" y="118.0795" style="stroke: #000000; stroke-width: 0.8"/>
      </g>
     </g>
    </g>
   </g>
   <g id="matplotlib.axis_2">
    <g id="ytick_1">
     <g id="line2d_8">
      <defs>
       <path id="m7e40076c76" d="M 0 0 
L -3.5 0 
" style="stroke: #000000; stroke-width: 0.8"/>
      </defs>
      <g>
       <use xlink:href="#m7e40076c76" x="48.31" y="89.534709" style="stroke: #000000; stroke-width: 0.8"/>
      </g>
     </g>
     <g id="text_1">
      <!-- −4 -->
      <g transform="translate(26.567813 93.333927) scale(0.1 -0.1)">
       <defs>
        <path id="DejaVuSans-2212" d="M 678 2272 
L 4684 2272 
L 4684 1741 
L 678 1741 
L 678 2272 
z
" transform="scale(0.015625)"/>
        <path id="DejaVuSans-34" d="M 2419 4116 
L 825 1625 
L 2419 1625 
L 2419 4116 
z
M 2253 4666 
L 3047 4666 
L 3047 1625 
L 3713 1625 
L 3713 1100 
L 3047 1100 
L 3047 0 
L 2419 0 
L 2419 1100 
L 313 1100 
L 313 1709 
L 2253 4666 
z
" transform="scale(0.015625)"/>
       </defs>
       <use xlink:href="#DejaVuSans-2212"/>
       <use xlink:href="#DejaVuSans-34" x="83.789062"/>
      </g>
     </g>
    </g>
    <g id="ytick_2">
     <g id="line2d_9">
      <g>
       <use xlink:href="#m7e40076c76" x="48.31" y="60.968035" style="stroke: #000000; stroke-width: 0.8"/>
      </g>
     </g>
     <g id="text_2">
      <!-- −2 -->
      <g transform="translate(26.567813 64.767254) scale(0.1 -0.1)">
       <defs>
        <path id="DejaVuSans-32" d="M 1228 531 
L 3431 531 
L 3431 0 
L 469 0 
L 469 531 
Q 828 903 1448 1529 
Q 2069 2156 2228 2338 
Q 2531 2678 2651 2914 
Q 2772 3150 2772 3378 
Q 2772 3750 2511 3984 
Q 2250 4219 1831 4219 
Q 1534 4219 1204 4116 
Q 875 4013 500 3803 
L 500 4441 
Q 881 4594 1212 4672 
Q 1544 4750 1819 4750 
Q 2544 4750 2975 4387 
Q 3406 4025 3406 3419 
Q 3406 3131 3298 2873 
Q 3191 2616 2906 2266 
Q 2828 2175 2409 1742 
Q 1991 1309 1228 531 
z
" transform="scale(0.015625)"/>
       </defs>
       <use xlink:href="#DejaVuSans-2212"/>
       <use xlink:href="#DejaVuSans-32" x="83.789062"/>
      </g>
     </g>
    </g>
    <g id="ytick_3">
     <g id="line2d_10">
      <g>
       <use xlink:href="#m7e40076c76" x="48.31" y="32.401362" style="stroke: #000000; stroke-width: 0.8"/>
      </g>
     </g>
     <g id="text_3">
      <!-- 0 -->
      <g transform="translate(34.9475 36.200581) scale(0.1 -0.1)">
       <defs>
        <path id="DejaVuSans-30" d="M 2034 4250 
Q 1547 4250 1301 3770 
Q 1056 3291 1056 2328 
Q 1056 1369 1301 889 
Q 1547 409 2034 409 
Q 2525 409 2770 889 
Q 3016 1369 3016 2328 
Q 3016 3291 2770 3770 
Q 2525 4250 2034 4250 
z
M 2034 4750 
Q 2819 4750 3233 4129 
Q 3647 3509 3647 2328 
Q 3647 1150 3233 529 
Q 2819 -91 2034 -91 
Q 1250 -91 836 529 
Q 422 1150 422 2328 
Q 422 3509 836 4129 
Q 1250 4750 2034 4750 
z
" transform="scale(0.015625)"/>
       </defs>
       <use xlink:href="#DejaVuSans-30"/>
      </g>
     </g>
    </g>
   </g>
   <g id="line2d_11">
    <path d="M 65.259545 47.358837 
L 66.672008 47.502545 
L 68.08447 47.936354 
L 69.496932 48.664245 
L 70.909394 49.686676 
L 72.321856 51.001756 
L 73.734318 52.606725 
L 75.14678 54.499533 
L 76.559242 56.683777 
L 77.971705 59.174832 
L 79.384167 62.002701 
L 80.796629 65.200374 
L 82.209091 68.783347 
L 85.034015 76.914025 
L 87.858939 85.300825 
L 89.271402 89.155894 
L 90.683864 92.678858 
L 92.096326 95.864711 
L 93.508788 98.72803 
L 94.92125 101.290344 
L 96.333712 103.575355 
L 97.746174 105.603256 
L 99.158636 107.389567 
L 100.571098 108.945953 
L 101.983561 110.281525 
L 103.396023 111.403841 
L 104.808485 112.319383 
L 106.220947 113.033565 
L 107.633409 113.550455 
L 109.045871 113.872373 
L 110.458333 113.999523 
L 111.870795 113.929745 
L 113.283258 113.658458 
L 114.69572 113.178834 
L 116.108182 112.482274 
L 117.520644 111.559178 
L 118.933106 110.399984 
L 120.345568 108.996263 
L 121.75803 107.341506 
L 123.170492 105.431019 
L 124.582955 103.260326 
L 125.995417 100.821823 
L 127.407879 98.100157 
L 128.820341 95.068133 
L 130.232803 91.686938 
L 131.645265 87.917585 
L 134.470189 79.266501 
L 137.295114 70.130367 
L 138.707576 65.912526 
L 140.120038 62.071841 
L 141.5325 58.606355 
L 142.944962 55.480089 
L 144.357424 52.654129 
L 145.769886 50.098492 
L 147.182348 47.793154 
L 148.594811 45.724714 
L 150.007273 43.882329 
L 151.419735 42.254641 
L 152.832197 40.82826 
L 154.244659 39.587571 
L 155.657121 38.51537 
L 157.069583 37.593785 
L 159.894508 36.132719 
L 162.719432 35.076019 
L 165.544356 34.318324 
L 168.36928 33.778231 
L 172.606667 33.247612 
L 178.256515 32.859404 
L 185.318826 32.636906 
L 198.030985 32.509645 
L 241.817311 32.440196 
L 404.250455 32.400377 
L 404.250455 32.400377 
" clip-path="url(#p499f5892a1)" style="fill: none; stroke: #1f77b4; stroke-width: 1.5; stroke-linecap: square"/>
   </g>
   <g id="patch_3">
    <path d="M 48.31 118.0795 
L 48.31 28.32 
" style="fill: none; stroke: #000000; stroke-width: 0.8; stroke-linejoin: miter; stroke-linecap: square"/>
   </g>
   <g id="patch_4">
    <path d="M 421.2 118.0795 
L 421.2 28.32 
" style="fill: none; stroke: #000000; stroke-width: 0.8; stroke-linejoin: miter; stroke-linecap: square"/>
   </g>
   <g id="patch_5">
    <path d="M 48.31 118.0795 
L 421.2 118.0795 
" style="fill: none; stroke: #000000; stroke-width: 0.8; stroke-linejoin: miter; stroke-linecap: square"/>
   </g>
   <g id="patch_6">
    <path d="M 48.31 28.32 
L 421.2 28.32 
" style="fill: none; stroke: #000000; stroke-width: 0.8; stroke-linejoin: miter; stroke-linecap: square"/>
   </g>
   <g id="text_4">
    <!-- Angle $\theta$ [rad] -->
    <g transform="translate(195.515 22.32) scale(0.12 -0.12)">
     <defs>
      <path id="DejaVuSans-41" d="M 2188 4044 
L 1331 1722 
L 3047 1722 
L 2188 4044 
z
M 1831 4666 
L 2547 4666 
L 4325 0 
L 3669 0 
L 3244 1197 
L 1141 1197 
L 716 0 
L 50 0 
L 1831 4666 
z
" transform="scale(0.015625)"/>
      <path id="DejaVuSans-6e" d="M 3513 2113 
L 3513 0 
L 2938 0 
L 2938 2094 
Q 2938 2591 2744 2837 
Q 2550 3084 2163 3084 
Q 1697 3084 1428 2787 
Q 1159 2491 1159 1978 
L 1159 0 
L 581 0 
L 581 3500 
L 1159 3500 
L 1159 2956 
Q 1366 3272 1645 3428 
Q 1925 3584 2291 3584 
Q 2894 3584 3203 3211 
Q 3513 2838 3513 2113 
z
" transform="scale(0.015625)"/>
      <path id="DejaVuSans-67" d="M 2906 1791 
Q 2906 2416 2648 2759 
Q 2391 3103 1925 3103 
Q 1463 3103 1205 2759 
Q 947 2416 947 1791 
Q 947 1169 1205 825 
Q 1463 481 1925 481 
Q 2391 481 2648 825 
Q 2906 1169 2906 1791 
z
M 3481 434 
Q 3481 -459 3084 -895 
Q 2688 -1331 1869 -1331 
Q 1566 -1331 1297 -1286 
Q 1028 -1241 775 -1147 
L 775 -588 
Q 1028 -725 1275 -790 
Q 1522 -856 1778 -856 
Q 2344 -856 2625 -561 
Q 2906 -266 2906 331 
L 2906 616 
Q 2728 306 2450 153 
Q 2172 0 1784 0 
Q 1141 0 747 490 
Q 353 981 353 1791 
Q 353 2603 747 3093 
Q 1141 3584 1784 3584 
Q 2172 3584 2450 3431 
Q 2728 3278 2906 2969 
L 2906 3500 
L 3481 3500 
L 3481 434 
z
" transform="scale(0.015625)"/>
      <path id="DejaVuSans-6c" d="M 603 4863 
L 1178 4863 
L 1178 0 
L 603 0 
L 603 4863 
z
" transform="scale(0.015625)"/>
      <path id="DejaVuSans-65" d="M 3597 1894 
L 3597 1613 
L 953 1613 
Q 991 1019 1311 708 
Q 1631 397 2203 397 
Q 2534 397 2845 478 
Q 3156 559 3463 722 
L 3463 178 
Q 3153 47 2828 -22 
Q 2503 -91 2169 -91 
Q 1331 -91 842 396 
Q 353 884 353 1716 
Q 353 2575 817 3079 
Q 1281 3584 2069 3584 
Q 2775 3584 3186 3129 
Q 3597 2675 3597 1894 
z
M 3022 2063 
Q 3016 2534 2758 2815 
Q 2500 3097 2075 3097 
Q 1594 3097 1305 2825 
Q 1016 2553 972 2059 
L 3022 2063 
z
" transform="scale(0.015625)"/>
      <path id="DejaVuSans-20" transform="scale(0.015625)"/>
      <path id="DejaVuSans-Oblique-3b8" d="M 2913 2219 
L 925 2219 
Q 791 1284 928 888 
Q 1100 400 1566 400 
Q 2034 400 2391 891 
Q 2703 1322 2913 2219 
z
M 3009 2750 
Q 3094 3638 2984 3950 
Q 2813 4444 2353 4444 
Q 1875 4444 1525 3956 
Q 1250 3563 1034 2750 
L 3009 2750 
z
M 2444 4913 
Q 3194 4913 3494 4250 
Q 3794 3591 3566 2422 
Q 3341 1256 2781 594 
Q 2225 -72 1475 -72 
Q 722 -72 425 594 
Q 128 1256 353 2422 
Q 581 3591 1134 4250 
Q 1691 4913 2444 4913 
z
" transform="scale(0.015625)"/>
      <path id="DejaVuSans-5b" d="M 550 4863 
L 1875 4863 
L 1875 4416 
L 1125 4416 
L 1125 -397 
L 1875 -397 
L 1875 -844 
L 550 -844 
L 550 4863 
z
" transform="scale(0.015625)"/>
      <path id="DejaVuSans-72" d="M 2631 2963 
Q 2534 3019 2420 3045 
Q 2306 3072 2169 3072 
Q 1681 3072 1420 2755 
Q 1159 2438 1159 1844 
L 1159 0 
L 581 0 
L 581 3500 
L 1159 3500 
L 1159 2956 
Q 1341 3275 1631 3429 
Q 1922 3584 2338 3584 
Q 2397 3584 2469 3576 
Q 2541 3569 2628 3553 
L 2631 2963 
z
" transform="scale(0.015625)"/>
      <path id="DejaVuSans-61" d="M 2194 1759 
Q 1497 1759 1228 1600 
Q 959 1441 959 1056 
Q 959 750 1161 570 
Q 1363 391 1709 391 
Q 2188 391 2477 730 
Q 2766 1069 2766 1631 
L 2766 1759 
L 2194 1759 
z
M 3341 1997 
L 3341 0 
L 2766 0 
L 2766 531 
Q 2569 213 2275 61 
Q 1981 -91 1556 -91 
Q 1019 -91 701 211 
Q 384 513 384 1019 
Q 384 1609 779 1909 
Q 1175 2209 1959 2209 
L 2766 2209 
L 2766 2266 
Q 2766 2663 2505 2880 
Q 2244 3097 1772 3097 
Q 1472 3097 1187 3025 
Q 903 2953 641 2809 
L 641 3341 
Q 956 3463 1253 3523 
Q 1550 3584 1831 3584 
Q 2591 3584 2966 3190 
Q 3341 2797 3341 1997 
z
" transform="scale(0.015625)"/>
      <path id="DejaVuSans-64" d="M 2906 2969 
L 2906 4863 
L 3481 4863 
L 3481 0 
L 2906 0 
L 2906 525 
Q 2725 213 2448 61 
Q 2172 -91 1784 -91 
Q 1150 -91 751 415 
Q 353 922 353 1747 
Q 353 2572 751 3078 
Q 1150 3584 1784 3584 
Q 2172 3584 2448 3432 
Q 2725 3281 2906 2969 
z
M 947 1747 
Q 947 1113 1208 752 
Q 1469 391 1925 391 
Q 2381 391 2643 752 
Q 2906 1113 2906 1747 
Q 2906 2381 2643 2742 
Q 2381 3103 1925 3103 
Q 1469 3103 1208 2742 
Q 947 2381 947 1747 
z
" transform="scale(0.015625)"/>
      <path id="DejaVuSans-5d" d="M 1947 4863 
L 1947 -844 
L 622 -844 
L 622 -397 
L 1369 -397 
L 1369 4416 
L 622 4416 
L 622 4863 
L 1947 4863 
z
" transform="scale(0.015625)"/>
     </defs>
     <use xlink:href="#DejaVuSans-41" transform="translate(0 0.234375)"/>
     <use xlink:href="#DejaVuSans-6e" transform="translate(68.408203 0.234375)"/>
     <use xlink:href="#DejaVuSans-67" transform="translate(131.787109 0.234375)"/>
     <use xlink:href="#DejaVuSans-6c" transform="translate(195.263672 0.234375)"/>
     <use xlink:href="#DejaVuSans-65" transform="translate(223.046875 0.234375)"/>
     <use xlink:href="#DejaVuSans-20" transform="translate(284.570312 0.234375)"/>
     <use xlink:href="#DejaVuSans-Oblique-3b8" transform="translate(316.357422 0.234375)"/>
     <use xlink:href="#DejaVuSans-20" transform="translate(377.539062 0.234375)"/>
     <use xlink:href="#DejaVuSans-5b" transform="translate(409.326172 0.234375)"/>
     <use xlink:href="#DejaVuSans-72" transform="translate(448.339844 0.234375)"/>
     <use xlink:href="#DejaVuSans-61" transform="translate(489.453125 0.234375)"/>
     <use xlink:href="#DejaVuSans-64" transform="translate(550.732422 0.234375)"/>
     <use xlink:href="#DejaVuSans-5d" transform="translate(614.208984 0.234375)"/>
    </g>
   </g>
  </g>
  <g id="axes_2">
   <g id="patch_7">
    <path d="M 48.31 239.659 
L 421.2 239.659 
L 421.2 149.8995 
L 48.31 149.8995 
z
" style="fill: #ffffff"/>
   </g>
   <g id="matplotlib.axis_3">
    <g id="xtick_8">
     <g id="line2d_12">
      <g>
       <use xlink:href="#m0909e088f6" x="65.259545" y="239.659" style="stroke: #000000; stroke-width: 0.8"/>
      </g>
     </g>
    </g>
    <g id="xtick_9">
     <g id="line2d_13">
      <g>
       <use xlink:href="#m0909e088f6" x="121.75803" y="239.659" style="stroke: #000000; stroke-width: 0.8"/>
      </g>
     </g>
    </g>
    <g id="xtick_10">
     <g id="line2d_14">
      <g>
       <use xlink:href="#m0909e088f6" x="178.256515" y="239.659" style="stroke: #000000; stroke-width: 0.8"/>
      </g>
     </g>
    </g>
    <g id="xtick_11">
     <g id="line2d_15">
      <g>
       <use xlink:href="#m0909e088f6" x="234.755" y="239.659" style="stroke: #000000; stroke-width: 0.8"/>
      </g>
     </g>
    </g>
    <g id="xtick_12">
     <g id="line2d_16">
      <g>
       <use xlink:href="#m0909e088f6" x="291.253485" y="239.659" style="stroke: #000000; stroke-width: 0.8"/>
      </g>
     </g>
    </g>
    <g id="xtick_13">
     <g id="line2d_17">
      <g>
       <use xlink:href="#m0909e088f6" x="347.75197" y="239.659" style="stroke: #000000; stroke-width: 0.8"/>
      </g>
     </g>
    </g>
    <g id="xtick_14">
     <g id="line2d_18">
      <g>
       <use xlink:href="#m0909e088f6" x="404.250455" y="239.659" style="stroke: #000000; stroke-width: 0.8"/>
      </g>
     </g>
    </g>
   </g>
   <g id="matplotlib.axis_4">
    <g id="ytick_4">
     <g id="line2d_19">
      <g>
       <use xlink:href="#m7e40076c76" x="48.31" y="229.238567" style="stroke: #000000; stroke-width: 0.8"/>
      </g>
     </g>
     <g id="text_5">
      <!-- −10 -->
      <g transform="translate(20.205313 233.037786) scale(0.1 -0.1)">
       <defs>
        <path id="DejaVuSans-31" d="M 794 531 
L 1825 531 
L 1825 4091 
L 703 3866 
L 703 4441 
L 1819 4666 
L 2450 4666 
L 2450 531 
L 3481 531 
L 3481 0 
L 794 0 
L 794 531 
z
" transform="scale(0.015625)"/>
       </defs>
       <use xlink:href="#DejaVuSans-2212"/>
       <use xlink:href="#DejaVuSans-31" x="83.789062"/>
       <use xlink:href="#DejaVuSans-30" x="147.412109"/>
      </g>
     </g>
    </g>
    <g id="ytick_5">
     <g id="line2d_20">
      <g>
       <use xlink:href="#m7e40076c76" x="48.31" y="196.382997" style="stroke: #000000; stroke-width: 0.8"/>
      </g>
     </g>
     <g id="text_6">
      <!-- 0 -->
      <g transform="translate(34.9475 200.182215) scale(0.1 -0.1)">
       <use xlink:href="#DejaVuSans-30"/>
      </g>
     </g>
    </g>
    <g id="ytick_6">
     <g id="line2d_21">
      <g>
       <use xlink:href="#m7e40076c76" x="48.31" y="163.527426" style="stroke: #000000; stroke-width: 0.8"/>
      </g>
     </g>
     <g id="text_7">
      <!-- 10 -->
      <g transform="translate(28.585 167.326645) scale(0.1 -0.1)">
       <use xlink:href="#DejaVuSans-31"/>
       <use xlink:href="#DejaVuSans-30" x="63.623047"/>
      </g>
     </g>
    </g>
   </g>
   <g id="line2d_22">
    <path d="M 65.259545 196.382997 
L 75.14678 215.127577 
L 77.971705 220.7903 
L 80.796629 227.575914 
L 82.209091 231.086212 
L 83.621553 234.019989 
L 85.034015 235.579023 
L 86.446477 235.247423 
L 87.858939 233.258926 
L 90.683864 227.233247 
L 93.508788 221.307513 
L 96.333712 216.196015 
L 99.158636 211.7466 
L 101.983561 207.682759 
L 106.220947 202.045034 
L 113.283258 192.942886 
L 116.108182 188.948417 
L 118.933106 184.604159 
L 123.170492 177.613559 
L 125.995417 172.674372 
L 127.407879 169.965769 
L 128.820341 166.947549 
L 131.645265 159.849983 
L 133.057727 156.383403 
L 134.470189 154.116152 
L 135.882652 153.979477 
L 137.295114 155.994197 
L 138.707576 159.260809 
L 141.5325 166.120419 
L 142.944962 169.053815 
L 145.769886 174.0435 
L 148.594811 178.406351 
L 151.419735 182.354378 
L 154.244659 185.769622 
L 155.657121 187.238187 
L 157.069583 188.542042 
L 158.482045 189.6866 
L 161.30697 191.54238 
L 164.131894 192.913287 
L 166.956818 193.910356 
L 169.781742 194.628481 
L 172.606667 195.142268 
L 176.844053 195.648806 
L 182.493902 196.02016 
L 189.556212 196.231554 
L 202.268371 196.345011 
L 246.054697 196.371562 
L 404.250455 196.383204 
L 404.250455 196.383204 
" clip-path="url(#p6ef714c9f1)" style="fill: none; stroke: #1f77b4; stroke-width: 1.5; stroke-linecap: square"/>
   </g>
   <g id="patch_8">
    <path d="M 48.31 239.659 
L 48.31 149.8995 
" style="fill: none; stroke: #000000; stroke-width: 0.8; stroke-linejoin: miter; stroke-linecap: square"/>
   </g>
   <g id="patch_9">
    <path d="M 421.2 239.659 
L 421.2 149.8995 
" style="fill: none; stroke: #000000; stroke-width: 0.8; stroke-linejoin: miter; stroke-linecap: square"/>
   </g>
   <g id="patch_10">
    <path d="M 48.31 239.659 
L 421.2 239.659 
" style="fill: none; stroke: #000000; stroke-width: 0.8; stroke-linejoin: miter; stroke-linecap: square"/>
   </g>
   <g id="patch_11">
    <path d="M 48.31 149.8995 
L 421.2 149.8995 
" style="fill: none; stroke: #000000; stroke-width: 0.8; stroke-linejoin: miter; stroke-linecap: square"/>
   </g>
   <g id="text_8">
    <!-- Angular velocity $\omega$ [rad/s] -->
    <g transform="translate(157.415 143.8995) scale(0.12 -0.12)">
     <defs>
      <path id="DejaVuSans-75" d="M 544 1381 
L 544 3500 
L 1119 3500 
L 1119 1403 
Q 1119 906 1312 657 
Q 1506 409 1894 409 
Q 2359 409 2629 706 
Q 2900 1003 2900 1516 
L 2900 3500 
L 3475 3500 
L 3475 0 
L 2900 0 
L 2900 538 
Q 2691 219 2414 64 
Q 2138 -91 1772 -91 
Q 1169 -91 856 284 
Q 544 659 544 1381 
z
M 1991 3584 
L 1991 3584 
z
" transform="scale(0.015625)"/>
      <path id="DejaVuSans-76" d="M 191 3500 
L 800 3500 
L 1894 563 
L 2988 3500 
L 3597 3500 
L 2284 0 
L 1503 0 
L 191 3500 
z
" transform="scale(0.015625)"/>
      <path id="DejaVuSans-6f" d="M 1959 3097 
Q 1497 3097 1228 2736 
Q 959 2375 959 1747 
Q 959 1119 1226 758 
Q 1494 397 1959 397 
Q 2419 397 2687 759 
Q 2956 1122 2956 1747 
Q 2956 2369 2687 2733 
Q 2419 3097 1959 3097 
z
M 1959 3584 
Q 2709 3584 3137 3096 
Q 3566 2609 3566 1747 
Q 3566 888 3137 398 
Q 2709 -91 1959 -91 
Q 1206 -91 779 398 
Q 353 888 353 1747 
Q 353 2609 779 3096 
Q 1206 3584 1959 3584 
z
" transform="scale(0.015625)"/>
      <path id="DejaVuSans-63" d="M 3122 3366 
L 3122 2828 
Q 2878 2963 2633 3030 
Q 2388 3097 2138 3097 
Q 1578 3097 1268 2742 
Q 959 2388 959 1747 
Q 959 1106 1268 751 
Q 1578 397 2138 397 
Q 2388 397 2633 464 
Q 2878 531 3122 666 
L 3122 134 
Q 2881 22 2623 -34 
Q 2366 -91 2075 -91 
Q 1284 -91 818 406 
Q 353 903 353 1747 
Q 353 2603 823 3093 
Q 1294 3584 2113 3584 
Q 2378 3584 2631 3529 
Q 2884 3475 3122 3366 
z
" transform="scale(0.015625)"/>
      <path id="DejaVuSans-69" d="M 603 3500 
L 1178 3500 
L 1178 0 
L 603 0 
L 603 3500 
z
M 603 4863 
L 1178 4863 
L 1178 4134 
L 603 4134 
L 603 4863 
z
" transform="scale(0.015625)"/>
      <path id="DejaVuSans-74" d="M 1172 4494 
L 1172 3500 
L 2356 3500 
L 2356 3053 
L 1172 3053 
L 1172 1153 
Q 1172 725 1289 603 
Q 1406 481 1766 481 
L 2356 481 
L 2356 0 
L 1766 0 
Q 1100 0 847 248 
Q 594 497 594 1153 
L 594 3053 
L 172 3053 
L 172 3500 
L 594 3500 
L 594 4494 
L 1172 4494 
z
" transform="scale(0.015625)"/>
      <path id="DejaVuSans-79" d="M 2059 -325 
Q 1816 -950 1584 -1140 
Q 1353 -1331 966 -1331 
L 506 -1331 
L 506 -850 
L 844 -850 
Q 1081 -850 1212 -737 
Q 1344 -625 1503 -206 
L 1606 56 
L 191 3500 
L 800 3500 
L 1894 763 
L 2988 3500 
L 3597 3500 
L 2059 -325 
z
" transform="scale(0.015625)"/>
      <path id="DejaVuSans-Oblique-3c9" d="M 1369 -91 
Q 72 -91 434 1766 
Q 575 2500 1256 3500 
L 1875 3500 
Q 1231 2500 1088 1750 
Q 819 397 1519 397 
Q 2166 397 2478 2078 
L 3009 2078 
Q 2669 388 3316 397 
Q 4013 403 4275 1750 
Q 4419 2500 4169 3500 
L 4788 3500 
Q 5075 2500 4934 1766 
Q 4578 -94 3278 -91 
Q 2428 -88 2503 844 
Q 2194 -91 1369 -91 
z
" transform="scale(0.015625)"/>
      <path id="DejaVuSans-2f" d="M 1625 4666 
L 2156 4666 
L 531 -594 
L 0 -594 
L 1625 4666 
z
" transform="scale(0.015625)"/>
      <path id="DejaVuSans-73" d="M 2834 3397 
L 2834 2853 
Q 2591 2978 2328 3040 
Q 2066 3103 1784 3103 
Q 1356 3103 1142 2972 
Q 928 2841 928 2578 
Q 928 2378 1081 2264 
Q 1234 2150 1697 2047 
L 1894 2003 
Q 2506 1872 2764 1633 
Q 3022 1394 3022 966 
Q 3022 478 2636 193 
Q 2250 -91 1575 -91 
Q 1294 -91 989 -36 
Q 684 19 347 128 
L 347 722 
Q 666 556 975 473 
Q 1284 391 1588 391 
Q 1994 391 2212 530 
Q 2431 669 2431 922 
Q 2431 1156 2273 1281 
Q 2116 1406 1581 1522 
L 1381 1569 
Q 847 1681 609 1914 
Q 372 2147 372 2553 
Q 372 3047 722 3315 
Q 1072 3584 1716 3584 
Q 2034 3584 2315 3537 
Q 2597 3491 2834 3397 
z
" transform="scale(0.015625)"/>
     </defs>
     <use xlink:href="#DejaVuSans-41" transform="translate(0 0.015625)"/>
     <use xlink:href="#DejaVuSans-6e" transform="translate(68.408203 0.015625)"/>
     <use xlink:href="#DejaVuSans-67" transform="translate(131.787109 0.015625)"/>
     <use xlink:href="#DejaVuSans-75" transform="translate(195.263672 0.015625)"/>
     <use xlink:href="#DejaVuSans-6c" transform="translate(258.642578 0.015625)"/>
     <use xlink:href="#DejaVuSans-61" transform="translate(286.425781 0.015625)"/>
     <use xlink:href="#DejaVuSans-72" transform="translate(347.705078 0.015625)"/>
     <use xlink:href="#DejaVuSans-20" transform="translate(388.818359 0.015625)"/>
     <use xlink:href="#DejaVuSans-76" transform="translate(420.605469 0.015625)"/>
     <use xlink:href="#DejaVuSans-65" transform="translate(479.785156 0.015625)"/>
     <use xlink:href="#DejaVuSans-6c" transform="translate(541.308594 0.015625)"/>
     <use xlink:href="#DejaVuSans-6f" transform="translate(569.091797 0.015625)"/>
     <use xlink:href="#DejaVuSans-63" transform="translate(630.273438 0.015625)"/>
     <use xlink:href="#DejaVuSans-69" transform="translate(685.253906 0.015625)"/>
     <use xlink:href="#DejaVuSans-74" transform="translate(713.037109 0.015625)"/>
     <use xlink:href="#DejaVuSans-79" transform="translate(752.246094 0.015625)"/>
     <use xlink:href="#DejaVuSans-20" transform="translate(811.425781 0.015625)"/>
     <use xlink:href="#DejaVuSans-Oblique-3c9" transform="translate(843.212891 0.015625)"/>
     <use xlink:href="#DejaVuSans-20" transform="translate(926.953125 0.015625)"/>
     <use xlink:href="#DejaVuSans-5b" transform="translate(958.740234 0.015625)"/>
     <use xlink:href="#DejaVuSans-72" transform="translate(997.753906 0.015625)"/>
     <use xlink:href="#DejaVuSans-61" transform="translate(1038.867188 0.015625)"/>
     <use xlink:href="#DejaVuSans-64" transform="translate(1100.146484 0.015625)"/>
     <use xlink:href="#DejaVuSans-2f" transform="translate(1163.623047 0.015625)"/>
     <use xlink:href="#DejaVuSans-73" transform="translate(1197.314453 0.015625)"/>
     <use xlink:href="#DejaVuSans-5d" transform="translate(1249.414062 0.015625)"/>
    </g>
   </g>
  </g>
  <g id="axes_3">
   <g id="patch_12">
    <path d="M 48.31 361.2385 
L 421.2 361.2385 
L 421.2 271.479 
L 48.31 271.479 
z
" style="fill: #ffffff"/>
   </g>
   <g id="matplotlib.axis_5">
    <g id="xtick_15">
     <g id="line2d_23">
      <g>
       <use xlink:href="#m0909e088f6" x="65.259545" y="361.2385" style="stroke: #000000; stroke-width: 0.8"/>
      </g>
     </g>
    </g>
    <g id="xtick_16">
     <g id="line2d_24">
      <g>
       <use xlink:href="#m0909e088f6" x="121.75803" y="361.2385" style="stroke: #000000; stroke-width: 0.8"/>
      </g>
     </g>
    </g>
    <g id="xtick_17">
     <g id="line2d_25">
      <g>
       <use xlink:href="#m0909e088f6" x="178.256515" y="361.2385" style="stroke: #000000; stroke-width: 0.8"/>
      </g>
     </g>
    </g>
    <g id="xtick_18">
     <g id="line2d_26">
      <g>
       <use xlink:href="#m0909e088f6" x="234.755" y="361.2385" style="stroke: #000000; stroke-width: 0.8"/>
      </g>
     </g>
    </g>
    <g id="xtick_19">
     <g id="line2d_27">
      <g>
       <use xlink:href="#m0909e088f6" x="291.253485" y="361.2385" style="stroke: #000000; stroke-width: 0.8"/>
      </g>
     </g>
    </g>
    <g id="xtick_20">
     <g id="line2d_28">
      <g>
       <use xlink:href="#m0909e088f6" x="347.75197" y="361.2385" style="stroke: #000000; stroke-width: 0.8"/>
      </g>
     </g>
    </g>
    <g id="xtick_21">
     <g id="line2d_29">
      <g>
       <use xlink:href="#m0909e088f6" x="404.250455" y="361.2385" style="stroke: #000000; stroke-width: 0.8"/>
      </g>
     </g>
    </g>
   </g>
   <g id="matplotlib.axis_6">
    <g id="ytick_7">
     <g id="line2d_30">
      <g>
       <use xlink:href="#m7e40076c76" x="48.31" y="342.929597" style="stroke: #000000; stroke-width: 0.8"/>
      </g>
     </g>
     <g id="text_9">
      <!-- −0.10 -->
      <g transform="translate(10.664688 346.728816) scale(0.1 -0.1)">
       <defs>
        <path id="DejaVuSans-2e" d="M 684 794 
L 1344 794 
L 1344 0 
L 684 0 
L 684 794 
z
" transform="scale(0.015625)"/>
       </defs>
       <use xlink:href="#DejaVuSans-2212"/>
       <use xlink:href="#DejaVuSans-30" x="83.789062"/>
       <use xlink:href="#DejaVuSans-2e" x="147.412109"/>
       <use xlink:href="#DejaVuSans-31" x="179.199219"/>
       <use xlink:href="#DejaVuSans-30" x="242.822266"/>
      </g>
     </g>
    </g>
    <g id="ytick_8">
     <g id="line2d_31">
      <g>
       <use xlink:href="#m7e40076c76" x="48.31" y="319.131217" style="stroke: #000000; stroke-width: 0.8"/>
      </g>
     </g>
     <g id="text_10">
      <!-- −0.05 -->
      <g transform="translate(10.664688 322.930436) scale(0.1 -0.1)">
       <defs>
        <path id="DejaVuSans-35" d="M 691 4666 
L 3169 4666 
L 3169 4134 
L 1269 4134 
L 1269 2991 
Q 1406 3038 1543 3061 
Q 1681 3084 1819 3084 
Q 2600 3084 3056 2656 
Q 3513 2228 3513 1497 
Q 3513 744 3044 326 
Q 2575 -91 1722 -91 
Q 1428 -91 1123 -41 
Q 819 9 494 109 
L 494 744 
Q 775 591 1075 516 
Q 1375 441 1709 441 
Q 2250 441 2565 725 
Q 2881 1009 2881 1497 
Q 2881 1984 2565 2268 
Q 2250 2553 1709 2553 
Q 1456 2553 1204 2497 
Q 953 2441 691 2322 
L 691 4666 
z
" transform="scale(0.015625)"/>
       </defs>
       <use xlink:href="#DejaVuSans-2212"/>
       <use xlink:href="#DejaVuSans-30" x="83.789062"/>
       <use xlink:href="#DejaVuSans-2e" x="147.412109"/>
       <use xlink:href="#DejaVuSans-30" x="179.199219"/>
       <use xlink:href="#DejaVuSans-35" x="242.822266"/>
      </g>
     </g>
    </g>
    <g id="ytick_9">
     <g id="line2d_32">
      <g>
       <use xlink:href="#m7e40076c76" x="48.31" y="295.332837" style="stroke: #000000; stroke-width: 0.8"/>
      </g>
     </g>
     <g id="text_11">
      <!-- 0.00 -->
      <g transform="translate(19.044375 299.132056) scale(0.1 -0.1)">
       <use xlink:href="#DejaVuSans-30"/>
       <use xlink:href="#DejaVuSans-2e" x="63.623047"/>
       <use xlink:href="#DejaVuSans-30" x="95.410156"/>
       <use xlink:href="#DejaVuSans-30" x="159.033203"/>
      </g>
     </g>
    </g>
    <g id="ytick_10">
     <g id="line2d_33">
      <g>
       <use xlink:href="#m7e40076c76" x="48.31" y="271.534457" style="stroke: #000000; stroke-width: 0.8"/>
      </g>
     </g>
     <g id="text_12">
      <!-- 0.05 -->
      <g transform="translate(19.044375 275.333676) scale(0.1 -0.1)">
       <use xlink:href="#DejaVuSans-30"/>
       <use xlink:href="#DejaVuSans-2e" x="63.623047"/>
       <use xlink:href="#DejaVuSans-30" x="95.410156"/>
       <use xlink:href="#DejaVuSans-35" x="159.033203"/>
      </g>
     </g>
    </g>
   </g>
   <g id="line2d_34">
    <path d="M 65.259545 295.332837 
L 66.672008 294.988296 
L 68.08447 293.916511 
L 69.496932 292.080726 
L 70.909394 289.544609 
L 72.321856 286.460116 
L 75.14678 279.755524 
L 76.559242 277.037531 
L 77.971705 275.558977 
L 79.384167 275.990889 
L 80.796629 278.7976 
L 82.209091 284.144675 
L 83.621553 291.864378 
L 89.271402 328.884947 
L 90.683864 335.178164 
L 92.096326 339.762644 
L 93.508788 342.771133 
L 94.92125 344.351523 
L 96.333712 344.741599 
L 97.746174 344.211367 
L 99.158636 343.026859 
L 100.571098 341.429124 
L 104.808485 336.035552 
L 106.220947 334.493463 
L 107.633409 333.239868 
L 109.045871 332.343521 
L 110.458333 331.86189 
L 111.870795 331.844153 
L 113.283258 332.332162 
L 114.69572 333.35902 
L 116.108182 334.944818 
L 117.520644 337.089047 
L 118.933106 339.759336 
L 120.345568 342.876712 
L 124.582955 353.069637 
L 125.995417 355.688858 
L 127.407879 357.158523 
L 128.820341 356.92211 
L 130.232803 354.433306 
L 131.645265 349.280574 
L 133.057727 341.395667 
L 134.470189 331.308728 
L 137.295114 309.740096 
L 138.707576 301.083938 
L 140.120038 294.887142 
L 141.5325 291.186447 
L 142.944962 289.675029 
L 144.357424 289.899565 
L 145.769886 291.37933 
L 147.182348 293.670912 
L 152.832197 304.710662 
L 154.244659 307.049156 
L 155.657121 309.072933 
L 157.069583 310.774918 
L 158.482045 312.166659 
L 159.894508 313.270386 
L 161.30697 314.113568 
L 162.719432 314.725395 
L 164.131894 315.134621 
L 165.544356 315.368363 
L 166.956818 315.451492 
L 169.781742 315.253007 
L 172.606667 314.689281 
L 175.431591 313.875625 
L 179.668977 312.370285 
L 188.14375 308.985665 
L 195.206061 306.243044 
L 200.855909 304.24747 
L 206.505758 302.46807 
L 212.155606 300.911854 
L 217.805455 299.571539 
L 223.455303 298.432639 
L 230.517614 297.265016 
L 237.579924 296.347303 
L 244.642235 295.643144 
L 253.117008 295.032279 
L 263.004242 294.576166 
L 274.303939 294.306266 
L 288.428561 294.221772 
L 308.20303 294.359845 
L 394.36322 295.217731 
L 404.250455 295.25791 
L 404.250455 295.25791 
" clip-path="url(#p982050a18b)" style="fill: none; stroke: #1f77b4; stroke-width: 1.5; stroke-linecap: square"/>
   </g>
   <g id="patch_13">
    <path d="M 48.31 361.2385 
L 48.31 271.479 
" style="fill: none; stroke: #000000; stroke-width: 0.8; stroke-linejoin: miter; stroke-linecap: square"/>
   </g>
   <g id="patch_14">
    <path d="M 421.2 361.2385 
L 421.2 271.479 
" style="fill: none; stroke: #000000; stroke-width: 0.8; stroke-linejoin: miter; stroke-linecap: square"/>
   </g>
   <g id="patch_15">
    <path d="M 48.31 361.2385 
L 421.2 361.2385 
" style="fill: none; stroke: #000000; stroke-width: 0.8; stroke-linejoin: miter; stroke-linecap: square"/>
   </g>
   <g id="patch_16">
    <path d="M 48.31 271.479 
L 421.2 271.479 
" style="fill: none; stroke: #000000; stroke-width: 0.8; stroke-linejoin: miter; stroke-linecap: square"/>
   </g>
   <g id="text_13">
    <!-- Position $x$ [m] -->
    <g transform="translate(193.235 265.479) scale(0.12 -0.12)">
     <defs>
      <path id="DejaVuSans-50" d="M 1259 4147 
L 1259 2394 
L 2053 2394 
Q 2494 2394 2734 2622 
Q 2975 2850 2975 3272 
Q 2975 3691 2734 3919 
Q 2494 4147 2053 4147 
L 1259 4147 
z
M 628 4666 
L 2053 4666 
Q 2838 4666 3239 4311 
Q 3641 3956 3641 3272 
Q 3641 2581 3239 2228 
Q 2838 1875 2053 1875 
L 1259 1875 
L 1259 0 
L 628 0 
L 628 4666 
z
" transform="scale(0.015625)"/>
      <path id="DejaVuSans-Oblique-78" d="M 3841 3500 
L 2234 1784 
L 3219 0 
L 2559 0 
L 1819 1388 
L 531 0 
L -166 0 
L 1556 1844 
L 641 3500 
L 1300 3500 
L 1972 2234 
L 3144 3500 
L 3841 3500 
z
" transform="scale(0.015625)"/>
      <path id="DejaVuSans-6d" d="M 3328 2828 
Q 3544 3216 3844 3400 
Q 4144 3584 4550 3584 
Q 5097 3584 5394 3201 
Q 5691 2819 5691 2113 
L 5691 0 
L 5113 0 
L 5113 2094 
Q 5113 2597 4934 2840 
Q 4756 3084 4391 3084 
Q 3944 3084 3684 2787 
Q 3425 2491 3425 1978 
L 3425 0 
L 2847 0 
L 2847 2094 
Q 2847 2600 2669 2842 
Q 2491 3084 2119 3084 
Q 1678 3084 1418 2786 
Q 1159 2488 1159 1978 
L 1159 0 
L 581 0 
L 581 3500 
L 1159 3500 
L 1159 2956 
Q 1356 3278 1631 3431 
Q 1906 3584 2284 3584 
Q 2666 3584 2933 3390 
Q 3200 3197 3328 2828 
z
" transform="scale(0.015625)"/>
     </defs>
     <use xlink:href="#DejaVuSans-50" transform="translate(0 0.015625)"/>
     <use xlink:href="#DejaVuSans-6f" transform="translate(60.302734 0.015625)"/>
     <use xlink:href="#DejaVuSans-73" transform="translate(121.484375 0.015625)"/>
     <use xlink:href="#DejaVuSans-69" transform="translate(173.583984 0.015625)"/>
     <use xlink:href="#DejaVuSans-74" transform="translate(201.367188 0.015625)"/>
     <use xlink:href="#DejaVuSans-69" transform="translate(240.576172 0.015625)"/>
     <use xlink:href="#DejaVuSans-6f" transform="translate(268.359375 0.015625)"/>
     <use xlink:href="#DejaVuSans-6e" transform="translate(329.541016 0.015625)"/>
     <use xlink:href="#DejaVuSans-20" transform="translate(392.919922 0.015625)"/>
     <use xlink:href="#DejaVuSans-Oblique-78" transform="translate(424.707031 0.015625)"/>
     <use xlink:href="#DejaVuSans-20" transform="translate(483.886719 0.015625)"/>
     <use xlink:href="#DejaVuSans-5b" transform="translate(515.673828 0.015625)"/>
     <use xlink:href="#DejaVuSans-6d" transform="translate(554.6875 0.015625)"/>
     <use xlink:href="#DejaVuSans-5d" transform="translate(652.099609 0.015625)"/>
    </g>
   </g>
  </g>
  <g id="axes_4">
   <g id="patch_17">
    <path d="M 48.31 482.818 
L 421.2 482.818 
L 421.2 393.0585 
L 48.31 393.0585 
z
" style="fill: #ffffff"/>
   </g>
   <g id="matplotlib.axis_7">
    <g id="xtick_22">
     <g id="line2d_35">
      <g>
       <use xlink:href="#m0909e088f6" x="65.259545" y="482.818" style="stroke: #000000; stroke-width: 0.8"/>
      </g>
     </g>
    </g>
    <g id="xtick_23">
     <g id="line2d_36">
      <g>
       <use xlink:href="#m0909e088f6" x="121.75803" y="482.818" style="stroke: #000000; stroke-width: 0.8"/>
      </g>
     </g>
    </g>
    <g id="xtick_24">
     <g id="line2d_37">
      <g>
       <use xlink:href="#m0909e088f6" x="178.256515" y="482.818" style="stroke: #000000; stroke-width: 0.8"/>
      </g>
     </g>
    </g>
    <g id="xtick_25">
     <g id="line2d_38">
      <g>
       <use xlink:href="#m0909e088f6" x="234.755" y="482.818" style="stroke: #000000; stroke-width: 0.8"/>
      </g>
     </g>
    </g>
    <g id="xtick_26">
     <g id="line2d_39">
      <g>
       <use xlink:href="#m0909e088f6" x="291.253485" y="482.818" style="stroke: #000000; stroke-width: 0.8"/>
      </g>
     </g>
    </g>
    <g id="xtick_27">
     <g id="line2d_40">
      <g>
       <use xlink:href="#m0909e088f6" x="347.75197" y="482.818" style="stroke: #000000; stroke-width: 0.8"/>
      </g>
     </g>
    </g>
    <g id="xtick_28">
     <g id="line2d_41">
      <g>
       <use xlink:href="#m0909e088f6" x="404.250455" y="482.818" style="stroke: #000000; stroke-width: 0.8"/>
      </g>
     </g>
    </g>
   </g>
   <g id="matplotlib.axis_8">
    <g id="ytick_11">
     <g id="line2d_42">
      <g>
       <use xlink:href="#m7e40076c76" x="48.31" y="463.185045" style="stroke: #000000; stroke-width: 0.8"/>
      </g>
     </g>
     <g id="text_14">
      <!-- −0.5 -->
      <g transform="translate(17.027188 466.984263) scale(0.1 -0.1)">
       <use xlink:href="#DejaVuSans-2212"/>
       <use xlink:href="#DejaVuSans-30" x="83.789062"/>
       <use xlink:href="#DejaVuSans-2e" x="147.412109"/>
       <use xlink:href="#DejaVuSans-35" x="179.199219"/>
      </g>
     </g>
    </g>
    <g id="ytick_12">
     <g id="line2d_43">
      <g>
       <use xlink:href="#m7e40076c76" x="48.31" y="440.067594" style="stroke: #000000; stroke-width: 0.8"/>
      </g>
     </g>
     <g id="text_15">
      <!-- 0.0 -->
      <g transform="translate(25.406875 443.866812) scale(0.1 -0.1)">
       <use xlink:href="#DejaVuSans-30"/>
       <use xlink:href="#DejaVuSans-2e" x="63.623047"/>
       <use xlink:href="#DejaVuSans-30" x="95.410156"/>
      </g>
     </g>
    </g>
    <g id="ytick_13">
     <g id="line2d_44">
      <g>
       <use xlink:href="#m7e40076c76" x="48.31" y="416.950143" style="stroke: #000000; stroke-width: 0.8"/>
      </g>
     </g>
     <g id="text_16">
      <!-- 0.5 -->
      <g transform="translate(25.406875 420.749361) scale(0.1 -0.1)">
       <use xlink:href="#DejaVuSans-30"/>
       <use xlink:href="#DejaVuSans-2e" x="63.623047"/>
       <use xlink:href="#DejaVuSans-35" x="95.410156"/>
      </g>
     </g>
    </g>
    <g id="ytick_14">
     <g id="line2d_45">
      <g>
       <use xlink:href="#m7e40076c76" x="48.31" y="393.832692" style="stroke: #000000; stroke-width: 0.8"/>
      </g>
     </g>
     <g id="text_17">
      <!-- 1.0 -->
      <g transform="translate(25.406875 397.63191) scale(0.1 -0.1)">
       <use xlink:href="#DejaVuSans-31"/>
       <use xlink:href="#DejaVuSans-2e" x="63.623047"/>
       <use xlink:href="#DejaVuSans-30" x="95.410156"/>
      </g>
     </g>
    </g>
   </g>
   <g id="line2d_46">
    <path d="M 65.259545 440.067594 
L 66.672008 437.402676 
L 69.496932 431.494289 
L 70.909394 429.031368 
L 72.321856 427.269118 
L 73.734318 426.694918 
L 75.14678 427.887356 
L 76.559242 431.357393 
L 77.971705 437.529287 
L 79.384167 446.180378 
L 82.209091 465.7067 
L 83.621553 473.994735 
L 85.034015 478.738023 
L 86.446477 478.722453 
L 87.858939 474.513874 
L 93.508788 448.92447 
L 94.92125 443.771577 
L 96.333712 439.639844 
L 97.746174 436.574118 
L 99.158636 434.509275 
L 100.571098 433.321491 
L 101.983561 432.865344 
L 103.396023 432.999209 
L 104.808485 433.599931 
L 106.220947 434.56912 
L 107.633409 435.833284 
L 109.045871 437.340212 
L 110.458333 439.053011 
L 113.283258 442.980061 
L 118.933106 451.378773 
L 120.345568 452.891098 
L 121.75803 453.704507 
L 123.170492 453.477079 
L 124.582955 451.830606 
L 125.995417 448.394409 
L 127.407879 442.871943 
L 128.820341 435.144063 
L 130.232803 425.442989 
L 133.057727 404.574809 
L 134.470189 397.966405 
L 135.882652 397.138477 
L 137.295114 402.197089 
L 138.707576 410.999694 
L 141.5325 430.198075 
L 142.944962 437.880396 
L 144.357424 443.689122 
L 145.769886 447.669762 
L 147.182348 450.047282 
L 148.594811 451.129472 
L 150.007273 451.243493 
L 151.419735 450.692719 
L 152.832197 449.731403 
L 159.894508 443.828782 
L 162.719432 442.030461 
L 165.544356 440.665465 
L 168.36928 439.66777 
L 171.194205 438.961369 
L 174.019129 438.478442 
L 178.256515 438.055523 
L 182.493902 437.876297 
L 188.14375 437.862587 
L 198.030985 438.127794 
L 236.167462 439.408395 
L 257.354394 439.8065 
L 282.778712 440.045121 
L 319.502727 440.138007 
L 404.250455 440.087012 
L 404.250455 440.087012 
" clip-path="url(#p6c1ec4d176)" style="fill: none; stroke: #1f77b4; stroke-width: 1.5; stroke-linecap: square"/>
   </g>
   <g id="patch_18">
    <path d="M 48.31 482.818 
L 48.31 393.0585 
" style="fill: none; stroke: #000000; stroke-width: 0.8; stroke-linejoin: miter; stroke-linecap: square"/>
   </g>
   <g id="patch_19">
    <path d="M 421.2 482.818 
L 421.2 393.0585 
" style="fill: none; stroke: #000000; stroke-width: 0.8; stroke-linejoin: miter; stroke-linecap: square"/>
   </g>
   <g id="patch_20">
    <path d="M 48.31 482.818 
L 421.2 482.818 
" style="fill: none; stroke: #000000; stroke-width: 0.8; stroke-linejoin: miter; stroke-linecap: square"/>
   </g>
   <g id="patch_21">
    <path d="M 48.31 393.0585 
L 421.2 393.0585 
" style="fill: none; stroke: #000000; stroke-width: 0.8; stroke-linejoin: miter; stroke-linecap: square"/>
   </g>
   <g id="text_18">
    <!-- Velocity $v$ [m/s] -->
    <g transform="translate(187.655 387.0585) scale(0.12 -0.12)">
     <defs>
      <path id="DejaVuSans-56" d="M 1831 0 
L 50 4666 
L 709 4666 
L 2188 738 
L 3669 4666 
L 4325 4666 
L 2547 0 
L 1831 0 
z
" transform="scale(0.015625)"/>
      <path id="DejaVuSans-Oblique-76" d="M 459 3500 
L 1069 3500 
L 1581 525 
L 3256 3500 
L 3866 3500 
L 1875 0 
L 1100 0 
L 459 3500 
z
" transform="scale(0.015625)"/>
     </defs>
     <use xlink:href="#DejaVuSans-56" transform="translate(0 0.015625)"/>
     <use xlink:href="#DejaVuSans-65" transform="translate(68.408203 0.015625)"/>
     <use xlink:href="#DejaVuSans-6c" transform="translate(129.931641 0.015625)"/>
     <use xlink:href="#DejaVuSans-6f" transform="translate(157.714844 0.015625)"/>
     <use xlink:href="#DejaVuSans-63" transform="translate(218.896484 0.015625)"/>
     <use xlink:href="#DejaVuSans-69" transform="translate(273.876953 0.015625)"/>
     <use xlink:href="#DejaVuSans-74" transform="translate(301.660156 0.015625)"/>
     <use xlink:href="#DejaVuSans-79" transform="translate(340.869141 0.015625)"/>
     <use xlink:href="#DejaVuSans-20" transform="translate(400.048828 0.015625)"/>
     <use xlink:href="#DejaVuSans-Oblique-76" transform="translate(431.835938 0.015625)"/>
     <use xlink:href="#DejaVuSans-20" transform="translate(491.015625 0.015625)"/>
     <use xlink:href="#DejaVuSans-5b" transform="translate(522.802734 0.015625)"/>
     <use xlink:href="#DejaVuSans-6d" transform="translate(561.816406 0.015625)"/>
     <use xlink:href="#DejaVuSans-2f" transform="translate(659.228516 0.015625)"/>
     <use xlink:href="#DejaVuSans-73" transform="translate(692.919922 0.015625)"/>
     <use xlink:href="#DejaVuSans-5d" transform="translate(745.019531 0.015625)"/>
    </g>
   </g>
  </g>
  <g id="axes_5">
   <g id="patch_22">
    <path d="M 48.31 604.3975 
L 421.2 604.3975 
L 421.2 514.638 
L 48.31 514.638 
z
" style="fill: #ffffff"/>
   </g>
   <g id="matplotlib.axis_9">
    <g id="xtick_29">
     <g id="line2d_47">
      <g>
       <use xlink:href="#m0909e088f6" x="65.259545" y="604.3975" style="stroke: #000000; stroke-width: 0.8"/>
      </g>
     </g>
     <g id="text_19">
      <!-- 0 -->
      <g transform="translate(62.078295 618.995938) scale(0.1 -0.1)">
       <use xlink:href="#DejaVuSans-30"/>
      </g>
     </g>
    </g>
    <g id="xtick_30">
     <g id="line2d_48">
      <g>
       <use xlink:href="#m0909e088f6" x="121.75803" y="604.3975" style="stroke: #000000; stroke-width: 0.8"/>
      </g>
     </g>
     <g id="text_20">
      <!-- 1 -->
      <g transform="translate(118.57678 618.995938) scale(0.1 -0.1)">
       <use xlink:href="#DejaVuSans-31"/>
      </g>
     </g>
    </g>
    <g id="xtick_31">
     <g id="line2d_49">
      <g>
       <use xlink:href="#m0909e088f6" x="178.256515" y="604.3975" style="stroke: #000000; stroke-width: 0.8"/>
      </g>
     </g>
     <g id="text_21">
      <!-- 2 -->
      <g transform="translate(175.075265 618.995938) scale(0.1 -0.1)">
       <use xlink:href="#DejaVuSans-32"/>
      </g>
     </g>
    </g>
    <g id="xtick_32">
     <g id="line2d_50">
      <g>
       <use xlink:href="#m0909e088f6" x="234.755" y="604.3975" style="stroke: #000000; stroke-width: 0.8"/>
      </g>
     </g>
     <g id="text_22">
      <!-- 3 -->
      <g transform="translate(231.57375 618.995938) scale(0.1 -0.1)">
       <defs>
        <path id="DejaVuSans-33" d="M 2597 2516 
Q 3050 2419 3304 2112 
Q 3559 1806 3559 1356 
Q 3559 666 3084 287 
Q 2609 -91 1734 -91 
Q 1441 -91 1130 -33 
Q 819 25 488 141 
L 488 750 
Q 750 597 1062 519 
Q 1375 441 1716 441 
Q 2309 441 2620 675 
Q 2931 909 2931 1356 
Q 2931 1769 2642 2001 
Q 2353 2234 1838 2234 
L 1294 2234 
L 1294 2753 
L 1863 2753 
Q 2328 2753 2575 2939 
Q 2822 3125 2822 3475 
Q 2822 3834 2567 4026 
Q 2313 4219 1838 4219 
Q 1578 4219 1281 4162 
Q 984 4106 628 3988 
L 628 4550 
Q 988 4650 1302 4700 
Q 1616 4750 1894 4750 
Q 2613 4750 3031 4423 
Q 3450 4097 3450 3541 
Q 3450 3153 3228 2886 
Q 3006 2619 2597 2516 
z
" transform="scale(0.015625)"/>
       </defs>
       <use xlink:href="#DejaVuSans-33"/>
      </g>
     </g>
    </g>
    <g id="xtick_33">
     <g id="line2d_51">
      <g>
       <use xlink:href="#m0909e088f6" x="291.253485" y="604.3975" style="stroke: #000000; stroke-width: 0.8"/>
      </g>
     </g>
     <g id="text_23">
      <!-- 4 -->
      <g transform="translate(288.072235 618.995938) scale(0.1 -0.1)">
       <use xlink:href="#DejaVuSans-34"/>
      </g>
     </g>
    </g>
    <g id="xtick_34">
     <g id="line2d_52">
      <g>
       <use xlink:href="#m0909e088f6" x="347.75197" y="604.3975" style="stroke: #000000; stroke-width: 0.8"/>
      </g>
     </g>
     <g id="text_24">
      <!-- 5 -->
      <g transform="translate(344.57072 618.995938) scale(0.1 -0.1)">
       <use xlink:href="#DejaVuSans-35"/>
      </g>
     </g>
    </g>
    <g id="xtick_35">
     <g id="line2d_53">
      <g>
       <use xlink:href="#m0909e088f6" x="404.250455" y="604.3975" style="stroke: #000000; stroke-width: 0.8"/>
      </g>
     </g>
     <g id="text_25">
      <!-- 6 -->
      <g transform="translate(401.069205 618.995938) scale(0.1 -0.1)">
       <defs>
        <path id="DejaVuSans-36" d="M 2113 2584 
Q 1688 2584 1439 2293 
Q 1191 2003 1191 1497 
Q 1191 994 1439 701 
Q 1688 409 2113 409 
Q 2538 409 2786 701 
Q 3034 994 3034 1497 
Q 3034 2003 2786 2293 
Q 2538 2584 2113 2584 
z
M 3366 4563 
L 3366 3988 
Q 3128 4100 2886 4159 
Q 2644 4219 2406 4219 
Q 1781 4219 1451 3797 
Q 1122 3375 1075 2522 
Q 1259 2794 1537 2939 
Q 1816 3084 2150 3084 
Q 2853 3084 3261 2657 
Q 3669 2231 3669 1497 
Q 3669 778 3244 343 
Q 2819 -91 2113 -91 
Q 1303 -91 875 529 
Q 447 1150 447 2328 
Q 447 3434 972 4092 
Q 1497 4750 2381 4750 
Q 2619 4750 2861 4703 
Q 3103 4656 3366 4563 
z
" transform="scale(0.015625)"/>
       </defs>
       <use xlink:href="#DejaVuSans-36"/>
      </g>
     </g>
    </g>
    <g id="text_26">
     <!-- Simulation time $t$ [s] -->
     <g transform="translate(183.555 632.674062) scale(0.1 -0.1)">
      <defs>
       <path id="DejaVuSans-53" d="M 3425 4513 
L 3425 3897 
Q 3066 4069 2747 4153 
Q 2428 4238 2131 4238 
Q 1616 4238 1336 4038 
Q 1056 3838 1056 3469 
Q 1056 3159 1242 3001 
Q 1428 2844 1947 2747 
L 2328 2669 
Q 3034 2534 3370 2195 
Q 3706 1856 3706 1288 
Q 3706 609 3251 259 
Q 2797 -91 1919 -91 
Q 1588 -91 1214 -16 
Q 841 59 441 206 
L 441 856 
Q 825 641 1194 531 
Q 1563 422 1919 422 
Q 2459 422 2753 634 
Q 3047 847 3047 1241 
Q 3047 1584 2836 1778 
Q 2625 1972 2144 2069 
L 1759 2144 
Q 1053 2284 737 2584 
Q 422 2884 422 3419 
Q 422 4038 858 4394 
Q 1294 4750 2059 4750 
Q 2388 4750 2728 4690 
Q 3069 4631 3425 4513 
z
" transform="scale(0.015625)"/>
       <path id="DejaVuSans-Oblique-74" d="M 2706 3500 
L 2619 3053 
L 1472 3053 
L 1100 1153 
Q 1081 1047 1072 975 
Q 1063 903 1063 863 
Q 1063 663 1183 572 
Q 1303 481 1569 481 
L 2150 481 
L 2053 0 
L 1503 0 
Q 991 0 739 200 
Q 488 400 488 806 
Q 488 878 497 964 
Q 506 1050 525 1153 
L 897 3053 
L 409 3053 
L 500 3500 
L 978 3500 
L 1172 4494 
L 1747 4494 
L 1556 3500 
L 2706 3500 
z
" transform="scale(0.015625)"/>
      </defs>
      <use xlink:href="#DejaVuSans-53" transform="translate(0 0.015625)"/>
      <use xlink:href="#DejaVuSans-69" transform="translate(63.476562 0.015625)"/>
      <use xlink:href="#DejaVuSans-6d" transform="translate(91.259766 0.015625)"/>
      <use xlink:href="#DejaVuSans-75" transform="translate(188.671875 0.015625)"/>
      <use xlink:href="#DejaVuSans-6c" transform="translate(252.050781 0.015625)"/>
      <use xlink:href="#DejaVuSans-61" transform="translate(279.833984 0.015625)"/>
      <use xlink:href="#DejaVuSans-74" transform="translate(341.113281 0.015625)"/>
      <use xlink:href="#DejaVuSans-69" transform="translate(380.322266 0.015625)"/>
      <use xlink:href="#DejaVuSans-6f" transform="translate(408.105469 0.015625)"/>
      <use xlink:href="#DejaVuSans-6e" transform="translate(469.287109 0.015625)"/>
      <use xlink:href="#DejaVuSans-20" transform="translate(532.666016 0.015625)"/>
      <use xlink:href="#DejaVuSans-74" transform="translate(564.453125 0.015625)"/>
      <use xlink:href="#DejaVuSans-69" transform="translate(603.662109 0.015625)"/>
      <use xlink:href="#DejaVuSans-6d" transform="translate(631.445312 0.015625)"/>
      <use xlink:href="#DejaVuSans-65" transform="translate(728.857422 0.015625)"/>
      <use xlink:href="#DejaVuSans-20" transform="translate(790.380859 0.015625)"/>
      <use xlink:href="#DejaVuSans-Oblique-74" transform="translate(822.167969 0.015625)"/>
      <use xlink:href="#DejaVuSans-20" transform="translate(861.376953 0.015625)"/>
      <use xlink:href="#DejaVuSans-5b" transform="translate(893.164062 0.015625)"/>
      <use xlink:href="#DejaVuSans-73" transform="translate(932.177734 0.015625)"/>
      <use xlink:href="#DejaVuSans-5d" transform="translate(984.277344 0.015625)"/>
     </g>
    </g>
   </g>
   <g id="matplotlib.axis_10">
    <g id="ytick_15">
     <g id="line2d_54">
      <g>
       <use xlink:href="#m7e40076c76" x="48.31" y="600.317523" style="stroke: #000000; stroke-width: 0.8"/>
      </g>
     </g>
     <g id="text_27">
      <!-- −2 -->
      <g transform="translate(26.567813 604.116741) scale(0.1 -0.1)">
       <use xlink:href="#DejaVuSans-2212"/>
       <use xlink:href="#DejaVuSans-32" x="83.789062"/>
      </g>
     </g>
    </g>
    <g id="ytick_16">
     <g id="line2d_55">
      <g>
       <use xlink:href="#m7e40076c76" x="48.31" y="559.51775" style="stroke: #000000; stroke-width: 0.8"/>
      </g>
     </g>
     <g id="text_28">
      <!-- 0 -->
      <g transform="translate(34.9475 563.316969) scale(0.1 -0.1)">
       <use xlink:href="#DejaVuSans-30"/>
      </g>
     </g>
    </g>
    <g id="ytick_17">
     <g id="line2d_56">
      <g>
       <use xlink:href="#m7e40076c76" x="48.31" y="518.717977" style="stroke: #000000; stroke-width: 0.8"/>
      </g>
     </g>
     <g id="text_29">
      <!-- 2 -->
      <g transform="translate(34.9475 522.517196) scale(0.1 -0.1)">
       <use xlink:href="#DejaVuSans-32"/>
      </g>
     </g>
    </g>
   </g>
   <g id="line2d_57">
    <path d="M 65.259545 533.272581 
L 66.672008 524.624362 
L 68.08447 518.901148 
L 69.496932 518.717977 
L 70.909394 518.717977 
L 72.321856 523.876312 
L 73.734318 536.104666 
L 75.14678 554.738343 
L 76.559242 579.41891 
L 77.971705 600.317523 
L 89.271402 600.317523 
L 90.683864 595.082205 
L 92.096326 570.589274 
L 93.508788 552.890698 
L 94.92125 542.009031 
L 96.333712 536.799394 
L 97.746174 535.739948 
L 99.158636 537.408654 
L 100.571098 540.681285 
L 103.396023 549.149645 
L 106.220947 557.750115 
L 109.045871 565.472335 
L 111.870795 572.163017 
L 113.283258 575.084293 
L 114.69572 577.647697 
L 116.108182 579.73423 
L 117.520644 581.157909 
L 118.933106 581.658571 
L 120.345568 580.910473 
L 121.75803 578.561783 
L 123.170492 574.319167 
L 124.582955 568.078389 
L 125.995417 560.076477 
L 128.820341 542.067666 
L 130.232803 534.734674 
L 131.645265 530.449344 
L 133.057727 530.045109 
L 134.470189 533.394141 
L 135.882652 539.483949 
L 138.707576 553.403677 
L 140.120038 558.193061 
L 141.5325 560.601992 
L 142.944962 560.893943 
L 144.357424 559.75656 
L 148.594811 554.399092 
L 150.007273 553.196212 
L 151.419735 552.452953 
L 152.832197 552.118912 
L 154.244659 552.114028 
L 155.657121 552.354408 
L 158.482045 553.284789 
L 168.36928 557.268665 
L 171.194205 558.132563 
L 175.431591 559.135854 
L 179.668977 559.840031 
L 183.906364 560.308604 
L 189.556212 560.671528 
L 196.618523 560.854627 
L 206.505758 560.84433 
L 224.867765 560.541562 
L 263.004242 559.912092 
L 292.665947 559.64314 
L 337.864735 559.503115 
L 402.837992 559.49925 
L 402.837992 559.49925 
" clip-path="url(#pc8a6ac28fd)" style="fill: none; stroke: #1f77b4; stroke-width: 1.5; stroke-linecap: square"/>
   </g>
   <g id="patch_23">
    <path d="M 48.31 604.3975 
L 48.31 514.638 
" style="fill: none; stroke: #000000; stroke-width: 0.8; stroke-linejoin: miter; stroke-linecap: square"/>
   </g>
   <g id="patch_24">
    <path d="M 421.2 604.3975 
L 421.2 514.638 
" style="fill: none; stroke: #000000; stroke-width: 0.8; stroke-linejoin: miter; stroke-linecap: square"/>
   </g>
   <g id="patch_25">
    <path d="M 48.31 604.3975 
L 421.2 604.3975 
" style="fill: none; stroke: #000000; stroke-width: 0.8; stroke-linejoin: miter; stroke-linecap: square"/>
   </g>
   <g id="patch_26">
    <path d="M 48.31 514.638 
L 421.2 514.638 
" style="fill: none; stroke: #000000; stroke-width: 0.8; stroke-linejoin: miter; stroke-linecap: square"/>
   </g>
   <g id="text_30">
    <!-- Control input $F$ [N] -->
    <g transform="translate(179.135 508.638) scale(0.12 -0.12)">
     <defs>
      <path id="DejaVuSans-43" d="M 4122 4306 
L 4122 3641 
Q 3803 3938 3442 4084 
Q 3081 4231 2675 4231 
Q 1875 4231 1450 3742 
Q 1025 3253 1025 2328 
Q 1025 1406 1450 917 
Q 1875 428 2675 428 
Q 3081 428 3442 575 
Q 3803 722 4122 1019 
L 4122 359 
Q 3791 134 3420 21 
Q 3050 -91 2638 -91 
Q 1578 -91 968 557 
Q 359 1206 359 2328 
Q 359 3453 968 4101 
Q 1578 4750 2638 4750 
Q 3056 4750 3426 4639 
Q 3797 4528 4122 4306 
z
" transform="scale(0.015625)"/>
      <path id="DejaVuSans-70" d="M 1159 525 
L 1159 -1331 
L 581 -1331 
L 581 3500 
L 1159 3500 
L 1159 2969 
Q 1341 3281 1617 3432 
Q 1894 3584 2278 3584 
Q 2916 3584 3314 3078 
Q 3713 2572 3713 1747 
Q 3713 922 3314 415 
Q 2916 -91 2278 -91 
Q 1894 -91 1617 61 
Q 1341 213 1159 525 
z
M 3116 1747 
Q 3116 2381 2855 2742 
Q 2594 3103 2138 3103 
Q 1681 3103 1420 2742 
Q 1159 2381 1159 1747 
Q 1159 1113 1420 752 
Q 1681 391 2138 391 
Q 2594 391 2855 752 
Q 3116 1113 3116 1747 
z
" transform="scale(0.015625)"/>
      <path id="DejaVuSans-Oblique-46" d="M 1081 4666 
L 3756 4666 
L 3653 4134 
L 1606 4134 
L 1338 2759 
L 3188 2759 
L 3084 2228 
L 1234 2228 
L 800 0 
L 172 0 
L 1081 4666 
z
" transform="scale(0.015625)"/>
      <path id="DejaVuSans-4e" d="M 628 4666 
L 1478 4666 
L 3547 763 
L 3547 4666 
L 4159 4666 
L 4159 0 
L 3309 0 
L 1241 3903 
L 1241 0 
L 628 0 
L 628 4666 
z
" transform="scale(0.015625)"/>
     </defs>
     <use xlink:href="#DejaVuSans-43" transform="translate(0 0.015625)"/>
     <use xlink:href="#DejaVuSans-6f" transform="translate(69.824219 0.015625)"/>
     <use xlink:href="#DejaVuSans-6e" transform="translate(131.005859 0.015625)"/>
     <use xlink:href="#DejaVuSans-74" transform="translate(194.384766 0.015625)"/>
     <use xlink:href="#DejaVuSans-72" transform="translate(233.59375 0.015625)"/>
     <use xlink:href="#DejaVuSans-6f" transform="translate(274.707031 0.015625)"/>
     <use xlink:href="#DejaVuSans-6c" transform="translate(335.888672 0.015625)"/>
     <use xlink:href="#DejaVuSans-20" transform="translate(363.671875 0.015625)"/>
     <use xlink:href="#DejaVuSans-69" transform="translate(395.458984 0.015625)"/>
     <use xlink:href="#DejaVuSans-6e" transform="translate(423.242188 0.015625)"/>
     <use xlink:href="#DejaVuSans-70" transform="translate(486.621094 0.015625)"/>
     <use xlink:href="#DejaVuSans-75" transform="translate(550.097656 0.015625)"/>
     <use xlink:href="#DejaVuSans-74" transform="translate(613.476562 0.015625)"/>
     <use xlink:href="#DejaVuSans-20" transform="translate(652.685547 0.015625)"/>
     <use xlink:href="#DejaVuSans-Oblique-46" transform="translate(684.472656 0.015625)"/>
     <use xlink:href="#DejaVuSans-20" transform="translate(741.992188 0.015625)"/>
     <use xlink:href="#DejaVuSans-5b" transform="translate(773.779297 0.015625)"/>
     <use xlink:href="#DejaVuSans-4e" transform="translate(812.792969 0.015625)"/>
     <use xlink:href="#DejaVuSans-5d" transform="translate(887.597656 0.015625)"/>
    </g>
   </g>
  </g>
 </g>
 <defs>
  <clipPath id="p499f5892a1">
   <rect x="48.31" y="28.32" width="372.89" height="89.7595"/>
  </clipPath>
  <clipPath id="p6ef714c9f1">
   <rect x="48.31" y="149.8995" width="372.89" height="89.7595"/>
  </clipPath>
  <clipPath id="p982050a18b">
   <rect x="48.31" y="271.479" width="372.89" height="89.7595"/>
  </clipPath>
  <clipPath id="p6c1ec4d176">
   <rect x="48.31" y="393.0585" width="372.89" height="89.7595"/>
  </clipPath>
  <clipPath id="pc8a6ac28fd">
   <rect x="48.31" y="514.638" width="372.89" height="89.7595"/>
  </clipPath>
 </defs>
</svg>
