<?xml version="1.0" encoding="UTF-8" standalone="no"?>
<!DOCTYPE svg PUBLIC "-//W3C//DTD SVG 1.1//EN"
 "http://www.w3.org/Graphics/SVG/1.1/DTD/svg11.dtd">
<!-- Generated by graphviz version 2.40.1 (0)
 -->
<!-- Pages: 1 -->
<svg width="620pt" height="955pt"
 viewBox="0.00 0.00 620.23 954.77" xmlns="http://www.w3.org/2000/svg" xmlns:xlink="http://www.w3.org/1999/xlink">
<g id="graph0" class="graph" transform="scale(1 1) rotate(0) translate(4 950.7737)">
<polygon fill="#ffffff" stroke="transparent" points="-4,4 -4,-950.7737 616.234,-950.7737 616.234,4 -4,4"/>
<!-- x -->
<g id="node1" class="node">
<title>x</title>
<ellipse fill="none" stroke="#000000" cx="363.234" cy="-926.9747" rx="27" ry="19.6"/>
<text text-anchor="middle" x="363.234" y="-922.5747" font-family="TeX Gyre Termes Math" font-size="18.00" fill="#000000">x</text>
</g>
<!-- gx -->
<g id="node2" class="node">
<title>gx</title>
<ellipse fill="none" stroke="#000000" cx="96.234" cy="-851.3768" rx="36.5405" ry="19.6"/>
<text text-anchor="middle" x="96.234" y="-846.9768" font-family="TeX Gyre Termes Math" font-size="18.00" fill="#000000">g(x)</text>
</g>
<!-- x&#45;&gt;gx -->
<g id="edge1" class="edge">
<title>x&#45;&gt;gx</title>
<path fill="none" stroke="#000000" d="M336.9868,-921.7642C295.1914,-913.1526 211.1912,-894.5552 142.234,-871.1758 139.5322,-870.2597 136.7673,-869.2533 133.9999,-868.1946"/>
<polygon fill="#000000" stroke="#000000" points="135.253,-864.9262 124.6688,-864.4495 132.6456,-871.4225 135.253,-864.9262"/>
</g>
<!-- fx -->
<g id="node11" class="node">
<title>fx</title>
<ellipse fill="none" stroke="#000000" cx="33.234" cy="-700.1808" rx="33.4697" ry="19.6"/>
<text text-anchor="middle" x="33.234" y="-695.7808" font-family="TeX Gyre Termes Math" font-size="18.00" fill="#000000">f(x)</text>
</g>
<!-- x&#45;&gt;fx -->
<g id="edge11" class="edge">
<title>x&#45;&gt;fx</title>
<path fill="none" stroke="#000000" d="M336.2476,-926.1861C267.5586,-923.5796 88.8043,-912.8501 50.234,-871.1758 14.9486,-833.0507 19.7996,-767.6778 26.5113,-729.7635"/>
<polygon fill="#000000" stroke="#000000" points="29.9675,-730.3248 28.4219,-719.8433 23.0938,-729.0009 29.9675,-730.3248"/>
</g>
<!-- gradfx -->
<g id="node13" class="node">
<title>gradfx</title>
<ellipse fill="none" stroke="#000000" cx="293.234" cy="-624.5828" rx="41.9398" ry="19.6"/>
<text text-anchor="middle" x="293.234" y="-620.1828" font-family="TeX Gyre Termes Math" font-size="18.00" fill="#000000">∇f(x)</text>
</g>
<!-- x&#45;&gt;gradfx -->
<g id="edge16" class="edge">
<title>x&#45;&gt;gradfx</title>
<path fill="none" stroke="#000000" d="M358.2019,-907.3754C355.4871,-896.6891 352.1125,-883.2212 349.234,-871.1758 330.5855,-793.1373 310.0219,-700.8412 299.7824,-654.42"/>
<polygon fill="#000000" stroke="#000000" points="303.1525,-653.4486 297.5834,-644.4356 296.3163,-654.9544 303.1525,-653.4486"/>
</g>
<!-- gradgx -->
<g id="node14" class="node">
<title>gradgx</title>
<ellipse fill="none" stroke="#000000" cx="328.234" cy="-548.9848" rx="45.011" ry="19.6"/>
<text text-anchor="middle" x="328.234" y="-544.5848" font-family="TeX Gyre Termes Math" font-size="18.00" fill="#000000">∇g(x)</text>
</g>
<!-- x&#45;&gt;gradgx -->
<g id="edge17" class="edge">
<title>x&#45;&gt;gradgx</title>
<path fill="none" stroke="#000000" d="M363.234,-906.9199C363.234,-877.9647 363.234,-822.765 363.234,-775.7788 363.234,-775.7788 363.234,-775.7788 363.234,-700.1808 363.234,-656.8503 349.4216,-608.2925 339.1508,-578.1751"/>
<polygon fill="#000000" stroke="#000000" points="342.4409,-576.9805 335.8285,-568.7025 335.8354,-579.2973 342.4409,-576.9805"/>
</g>
<!-- xhat -->
<g id="node18" class="node">
<title>xhat</title>
<ellipse fill="none" stroke="#000000" cx="360.234" cy="-397.7889" rx="27" ry="19.6"/>
<text text-anchor="middle" x="360.234" y="-393.3889" font-family="TeX Gyre Termes Math" font-size="18.00" fill="#000000">x̂</text>
</g>
<!-- x&#45;&gt;xhat -->
<g id="edge21" class="edge">
<title>x&#45;&gt;xhat</title>
<path fill="none" stroke="#000000" d="M371.2928,-907.7913C382.4474,-879.4542 401.234,-824.4969 401.234,-775.7788 401.234,-775.7788 401.234,-775.7788 401.234,-548.9848 401.234,-505.0017 384.8725,-456.2515 372.821,-426.309"/>
<polygon fill="#000000" stroke="#000000" points="375.9885,-424.81 368.9291,-416.9097 369.521,-427.488 375.9885,-424.81"/>
</g>
<!-- p -->
<g id="node19" class="node">
<title>p</title>
<ellipse fill="none" stroke="#000000" cx="470.234" cy="-322.1909" rx="27" ry="19.6"/>
<text text-anchor="middle" x="470.234" y="-317.7909" font-family="TeX Gyre Termes Math" font-size="18.00" fill="#000000">p</text>
</g>
<!-- x&#45;&gt;p -->
<g id="edge25" class="edge">
<title>x&#45;&gt;p</title>
<path fill="none" stroke="#000000" d="M386.359,-916.5739C427.984,-896.0891 511.234,-846.304 511.234,-775.7788 511.234,-775.7788 511.234,-775.7788 511.234,-473.3869 511.234,-429.4038 494.8725,-380.6535 482.821,-350.7111"/>
<polygon fill="#000000" stroke="#000000" points="485.9885,-349.212 478.9291,-341.3117 479.521,-351.89 485.9885,-349.212"/>
</g>
<!-- xplus -->
<g id="node24" class="node">
<title>xplus</title>
<ellipse fill="none" stroke="#000000" cx="521.234" cy="-95.397" rx="28.0702" ry="19.6"/>
<text text-anchor="start" x="509.234" y="-91.997" font-family="TeX Gyre Termes Math" font-size="18.00" fill="#000000">x</text>
<text text-anchor="start" x="520.234" y="-91.997" font-family="TeX Gyre Termes Math" baseline-shift="super" font-size="18.00" fill="#000000">+</text>
</g>
<!-- x&#45;&gt;xplus -->
<g id="edge35" class="edge">
<title>x&#45;&gt;xplus</title>
<path fill="none" stroke="#000000" d="M389.8814,-923.5647C454.1166,-913.7034 612.234,-878.9509 612.234,-775.7788 612.234,-775.7788 612.234,-775.7788 612.234,-246.5929 612.234,-195.0654 572.9561,-145.9832 546.01,-118.3738"/>
<polygon fill="#000000" stroke="#000000" points="548.3347,-115.7493 538.7797,-111.1717 543.3946,-120.7087 548.3347,-115.7493"/>
</g>
<!-- zeta -->
<g id="node3" class="node">
<title>zeta</title>
<ellipse fill="none" stroke="#000000" cx="96.234" cy="-775.7788" rx="27" ry="19.6"/>
<text text-anchor="middle" x="96.234" y="-771.3788" font-family="TeX Gyre Termes Math" font-size="18.00" fill="#000000">ζ</text>
</g>
<!-- gx&#45;&gt;zeta -->
<g id="edge2" class="edge">
<title>gx&#45;&gt;zeta</title>
<path fill="none" stroke="#000000" d="M96.234,-831.5143C96.234,-823.6768 96.234,-814.4999 96.234,-805.8806"/>
<polygon fill="#000000" stroke="#000000" points="99.7341,-805.7711 96.234,-795.7711 92.7341,-805.7711 99.7341,-805.7711"/>
</g>
<!-- zhat -->
<g id="node4" class="node">
<title>zhat</title>
<ellipse fill="none" stroke="#000000" cx="151.234" cy="-700.1808" rx="27" ry="19.6"/>
<text text-anchor="middle" x="151.234" y="-695.7808" font-family="TeX Gyre Termes Math" font-size="18.00" fill="#000000">ẑ</text>
</g>
<!-- zeta&#45;&gt;zhat -->
<g id="edge6" class="edge">
<title>zeta&#45;&gt;zhat</title>
<path fill="none" stroke="#000000" d="M108.9904,-758.2451C115.9514,-748.6771 124.7019,-736.6495 132.4307,-726.0261"/>
<polygon fill="#000000" stroke="#000000" points="135.3034,-728.0268 138.3563,-717.8813 129.643,-723.9086 135.3034,-728.0268"/>
</g>
<!-- dhat -->
<g id="node5" class="node">
<title>dhat</title>
<ellipse fill="none" stroke="#000000" cx="148.234" cy="-624.5828" rx="27" ry="19.6"/>
<text text-anchor="middle" x="148.234" y="-620.1828" font-family="TeX Gyre Termes Math" font-size="18.00" fill="#000000">d</text>
</g>
<!-- zeta&#45;&gt;dhat -->
<g id="edge7" class="edge">
<title>zeta&#45;&gt;dhat</title>
<path fill="none" stroke="#000000" d="M98.2186,-755.8711C100.6351,-736.1869 105.6412,-705.4605 115.234,-680.3818 119.0941,-670.2904 124.6997,-659.9208 130.1989,-650.9008"/>
<polygon fill="#000000" stroke="#000000" points="133.1956,-652.7107 135.5941,-642.3909 127.2836,-648.9625 133.1956,-652.7107"/>
</g>
<!-- zhat&#45;&gt;dhat -->
<g id="edge8" class="edge">
<title>zhat&#45;&gt;dhat</title>
<path fill="none" stroke="#000000" d="M150.4458,-680.3183C150.1348,-672.4808 149.7706,-663.3039 149.4286,-654.6847"/>
<polygon fill="#000000" stroke="#000000" points="152.9213,-654.4284 149.0274,-644.5751 145.9268,-654.7061 152.9213,-654.4284"/>
</g>
<!-- yhat -->
<g id="node6" class="node">
<title>yhat</title>
<ellipse fill="none" stroke="#000000" cx="200.234" cy="-548.9848" rx="27" ry="19.6"/>
<text text-anchor="middle" x="200.234" y="-544.5848" font-family="TeX Gyre Termes Math" font-size="18.00" fill="#000000">ŷ</text>
</g>
<!-- dhat&#45;&gt;yhat -->
<g id="edge9" class="edge">
<title>dhat&#45;&gt;yhat</title>
<path fill="none" stroke="#000000" d="M160.5573,-606.6672C167.0332,-597.2524 175.0917,-585.5369 182.2512,-575.1284"/>
<polygon fill="#000000" stroke="#000000" points="185.2156,-576.9946 187.9992,-566.7719 179.4482,-573.0275 185.2156,-576.9946"/>
</g>
<!-- dy -->
<g id="node7" class="node">
<title>dy</title>
<ellipse fill="none" stroke="#000000" cx="152.234" cy="-473.3869" rx="31.6406" ry="19.6"/>
<text text-anchor="middle" x="152.234" y="-468.9869" font-family="TeX Gyre Termes Math" font-size="18.00" fill="#000000">dᵀŷ</text>
</g>
<!-- dhat&#45;&gt;dy -->
<g id="edge12" class="edge">
<title>dhat&#45;&gt;dy</title>
<path fill="none" stroke="#000000" d="M148.7652,-604.5052C149.4466,-578.7498 150.6349,-533.8332 151.428,-503.8537"/>
<polygon fill="#000000" stroke="#000000" points="154.9349,-503.6367 151.7007,-493.5476 147.9373,-503.4515 154.9349,-503.6367"/>
</g>
<!-- yhat&#45;&gt;dy -->
<g id="edge13" class="edge">
<title>yhat&#45;&gt;dy</title>
<path fill="none" stroke="#000000" d="M188.6146,-530.6847C182.8634,-521.6269 175.8061,-510.512 169.4429,-500.4902"/>
<polygon fill="#000000" stroke="#000000" points="172.3949,-498.6097 164.0799,-492.0437 166.4854,-502.3619 172.3949,-498.6097"/>
</g>
<!-- gradpsix -->
<g id="node15" class="node">
<title>gradpsix</title>
<ellipse fill="none" stroke="#000000" cx="255.234" cy="-473.3869" rx="45.9239" ry="19.6"/>
<text text-anchor="middle" x="255.234" y="-468.9869" font-family="TeX Gyre Termes Math" font-size="18.00" fill="#000000">∇ψ(x)</text>
</g>
<!-- yhat&#45;&gt;gradpsix -->
<g id="edge20" class="edge">
<title>yhat&#45;&gt;gradpsix</title>
<path fill="none" stroke="#000000" d="M212.9904,-531.4511C219.6346,-522.3186 227.909,-510.9453 235.3693,-500.6912"/>
<polygon fill="#000000" stroke="#000000" points="238.3378,-502.5601 241.3907,-492.4146 232.6773,-498.4419 238.3378,-502.5601"/>
</g>
<!-- psix -->
<g id="node12" class="node">
<title>psix</title>
<ellipse fill="none" stroke="#000000" cx="152.234" cy="-397.7889" rx="37.4533" ry="19.6"/>
<text text-anchor="middle" x="152.234" y="-393.3889" font-family="TeX Gyre Termes Math" font-size="18.00" fill="#000000">ψ(x)</text>
</g>
<!-- dy&#45;&gt;psix -->
<g id="edge15" class="edge">
<title>dy&#45;&gt;psix</title>
<path fill="none" stroke="#000000" d="M152.234,-453.5244C152.234,-445.6869 152.234,-436.51 152.234,-427.8907"/>
<polygon fill="#000000" stroke="#000000" points="155.7341,-427.7812 152.234,-417.7812 148.7341,-427.7812 155.7341,-427.7812"/>
</g>
<!-- sigma -->
<g id="node8" class="node">
<title>sigma</title>
<ellipse fill="#d3d3d3" stroke="#000000" cx="250.234" cy="-851.3768" rx="27" ry="19.6"/>
<text text-anchor="middle" x="250.234" y="-846.9768" font-family="TeX Gyre Termes Math" font-size="18.00" fill="#000000">Σ</text>
</g>
<!-- sigma&#45;&gt;zeta -->
<g id="edge3" class="edge">
<title>sigma&#45;&gt;zeta</title>
<path fill="none" stroke="#000000" d="M228.6969,-839.125C223.9728,-836.5523 218.9677,-833.9128 214.234,-831.5778 178.5386,-813.97 167.9295,-813.1855 132.234,-795.5778 130.4589,-794.7021 128.6456,-793.7837 126.8232,-792.842"/>
<polygon fill="#000000" stroke="#000000" points="128.244,-789.6335 117.7711,-788.0305 124.9585,-795.8146 128.244,-789.6335"/>
</g>
<!-- sigma&#45;&gt;yhat -->
<g id="edge10" class="edge">
<title>sigma&#45;&gt;yhat</title>
<path fill="none" stroke="#000000" d="M246.9534,-831.536C238.4068,-779.8478 215.414,-640.7908 205.2188,-579.1322"/>
<polygon fill="#000000" stroke="#000000" points="208.6113,-578.1937 203.5267,-568.8987 201.705,-579.3357 208.6113,-578.1937"/>
</g>
<!-- y -->
<g id="node9" class="node">
<title>y</title>
<ellipse fill="#d3d3d3" stroke="#000000" cx="178.234" cy="-851.3768" rx="27" ry="19.6"/>
<text text-anchor="middle" x="178.234" y="-846.9768" font-family="TeX Gyre Termes Math" font-size="18.00" fill="#000000">y</text>
</g>
<!-- y&#45;&gt;zeta -->
<g id="edge4" class="edge">
<title>y&#45;&gt;zeta</title>
<path fill="none" stroke="#000000" d="M161.2436,-835.7128C149.5892,-824.9683 133.9385,-810.5396 120.9139,-798.5318"/>
<polygon fill="#000000" stroke="#000000" points="122.9274,-795.6276 113.2027,-791.4227 118.1826,-800.7742 122.9274,-795.6276"/>
</g>
<!-- D -->
<g id="node10" class="node">
<title>D</title>
<ellipse fill="#d3d3d3" stroke="#000000" cx="168.234" cy="-775.7788" rx="27" ry="19.6"/>
<text text-anchor="middle" x="168.234" y="-771.3788" font-family="TeX Gyre Termes Math" font-size="18.00" fill="#000000">D</text>
</g>
<!-- D&#45;&gt;zhat -->
<g id="edge5" class="edge">
<title>D&#45;&gt;zhat</title>
<path fill="none" stroke="#000000" d="M163.7675,-755.9163C161.9715,-747.9298 159.8628,-738.5525 157.8927,-729.7917"/>
<polygon fill="#000000" stroke="#000000" points="161.2795,-728.8991 155.6707,-719.9106 154.45,-730.4349 161.2795,-728.8991"/>
</g>
<!-- fx&#45;&gt;psix -->
<g id="edge14" class="edge">
<title>fx&#45;&gt;psix</title>
<path fill="none" stroke="#000000" d="M37.1619,-680.4748C46.2042,-637.5442 70.8665,-533.0528 111.234,-453.5879 116.4327,-443.3542 123.4571,-432.9919 130.2222,-424.0206"/>
<polygon fill="#000000" stroke="#000000" points="133.1696,-425.9326 136.5607,-415.895 127.6503,-421.627 133.1696,-425.9326"/>
</g>
<!-- phigamma -->
<g id="node21" class="node">
<title>phigamma</title>
<ellipse fill="none" stroke="#000000" cx="337.234" cy="-246.5929" rx="45.011" ry="19.6"/>
<text text-anchor="start" x="313.234" y="-243.1929" font-family="TeX Gyre Termes Math" font-size="18.00" fill="#000000">φ</text>
<text text-anchor="start" x="326.234" y="-243.1929" font-family="TeX Gyre Termes Math" baseline-shift="sub" font-size="18.00" fill="#000000">γ</text>
<text text-anchor="start" x="336.234" y="-243.1929" font-family="TeX Gyre Termes Math" font-size="18.00" fill="#000000">(x)</text>
</g>
<!-- psix&#45;&gt;phigamma -->
<g id="edge29" class="edge">
<title>psix&#45;&gt;phigamma</title>
<path fill="none" stroke="#000000" d="M172.7391,-381.0306C205.5372,-354.2255 269.9385,-301.5919 307.6972,-270.7327"/>
<polygon fill="#000000" stroke="#000000" points="310.2538,-273.1635 315.7819,-264.1252 305.824,-267.7434 310.2538,-273.1635"/>
</g>
<!-- gradfx&#45;&gt;gradpsix -->
<g id="edge18" class="edge">
<title>gradfx&#45;&gt;gradpsix</title>
<path fill="none" stroke="#000000" d="M285.8215,-604.8929C282.0128,-594.2963 277.4991,-580.9402 274.234,-568.7838 268.4214,-547.1422 263.5297,-522.3051 260.166,-503.3998"/>
<polygon fill="#000000" stroke="#000000" points="263.5708,-502.549 258.4126,-493.2946 256.6738,-503.7458 263.5708,-502.549"/>
</g>
<!-- gradgx&#45;&gt;gradpsix -->
<g id="edge19" class="edge">
<title>gradgx&#45;&gt;gradpsix</title>
<path fill="none" stroke="#000000" d="M310.5628,-530.6847C301.3949,-521.1906 290.0447,-509.4364 280.0152,-499.0499"/>
<polygon fill="#000000" stroke="#000000" points="282.4597,-496.5429 272.9956,-491.7805 277.4242,-501.4054 282.4597,-496.5429"/>
</g>
<!-- gradpsix&#45;&gt;xhat -->
<g id="edge24" class="edge">
<title>gradpsix&#45;&gt;xhat</title>
<path fill="none" stroke="#000000" d="M279.0601,-456.2325C294.9299,-444.8066 315.8421,-429.7503 332.466,-417.7814"/>
<polygon fill="#000000" stroke="#000000" points="334.6485,-420.5228 340.7189,-411.8394 330.5584,-414.842 334.6485,-420.5228"/>
</g>
<!-- gradpsix&#45;&gt;phigamma -->
<g id="edge32" class="edge">
<title>gradpsix&#45;&gt;phigamma</title>
<path fill="none" stroke="#000000" d="M262.3675,-453.6571C276.8155,-413.6973 309.6023,-323.0161 326.5883,-276.0368"/>
<polygon fill="#000000" stroke="#000000" points="329.9498,-277.0328 330.0586,-266.4385 323.3669,-274.6526 329.9498,-277.0328"/>
</g>
<!-- C -->
<g id="node16" class="node">
<title>C</title>
<ellipse fill="#d3d3d3" stroke="#000000" cx="346.234" cy="-473.3869" rx="27" ry="19.6"/>
<text text-anchor="middle" x="346.234" y="-468.9869" font-family="TeX Gyre Termes Math" font-size="18.00" fill="#000000">C</text>
</g>
<!-- C&#45;&gt;xhat -->
<g id="edge22" class="edge">
<title>C&#45;&gt;xhat</title>
<path fill="none" stroke="#000000" d="M349.9124,-453.5244C351.3914,-445.5379 353.128,-436.1606 354.7504,-427.3997"/>
<polygon fill="#000000" stroke="#000000" points="358.2007,-427.9889 356.5803,-417.5187 351.3177,-426.7142 358.2007,-427.9889"/>
</g>
<!-- gamma -->
<g id="node17" class="node">
<title>gamma</title>
<ellipse fill="none" stroke="#000000" cx="456.234" cy="-473.3869" rx="27" ry="19.6"/>
<text text-anchor="middle" x="456.234" y="-468.9869" font-family="TeX Gyre Termes Math" font-size="18.00" fill="#000000">γ</text>
</g>
<!-- gamma&#45;&gt;xhat -->
<g id="edge23" class="edge">
<title>gamma&#45;&gt;xhat</title>
<path fill="none" stroke="#000000" d="M437.7243,-458.8108C423.2482,-447.4112 402.9295,-431.4107 386.73,-418.6539"/>
<polygon fill="#000000" stroke="#000000" points="388.7088,-415.7573 378.687,-412.3202 384.378,-421.2568 388.7088,-415.7573"/>
</g>
<!-- r -->
<g id="node20" class="node">
<title>r</title>
<ellipse fill="none" stroke="#000000" cx="485.234" cy="-246.5929" rx="27" ry="19.6"/>
<text text-anchor="middle" x="485.234" y="-242.1929" font-family="TeX Gyre Termes Math" font-size="18.00" fill="#000000">r</text>
</g>
<!-- gamma&#45;&gt;r -->
<g id="edge27" class="edge">
<title>gamma&#45;&gt;r</title>
<path fill="none" stroke="#000000" d="M465.9741,-454.436C478.2161,-429.4506 498.5554,-383.7595 506.234,-341.9899 509.416,-324.6808 509.3844,-319.7068 506.234,-302.3919 504.5513,-293.1432 501.4194,-283.434 498.0785,-274.755"/>
<polygon fill="#000000" stroke="#000000" points="501.3078,-273.405 494.2837,-265.4733 494.8285,-276.0541 501.3078,-273.405"/>
</g>
<!-- gamma&#45;&gt;phigamma -->
<g id="edge30" class="edge">
<title>gamma&#45;&gt;phigamma</title>
<path fill="none" stroke="#000000" d="M446.4957,-454.8274C425.7232,-415.2384 376.9472,-322.2795 352.1999,-275.1153"/>
<polygon fill="#000000" stroke="#000000" points="355.1898,-273.2807 347.4442,-266.0518 348.9913,-276.5331 355.1898,-273.2807"/>
</g>
<!-- xhat&#45;&gt;p -->
<g id="edge26" class="edge">
<title>xhat&#45;&gt;p</title>
<path fill="none" stroke="#000000" d="M380.1542,-384.0987C397.4422,-372.2174 422.6664,-354.882 442.0282,-341.5755"/>
<polygon fill="#000000" stroke="#000000" points="444.203,-344.3277 450.462,-335.7793 440.2383,-338.5588 444.203,-344.3277"/>
</g>
<!-- p&#45;&gt;r -->
<g id="edge28" class="edge">
<title>p&#45;&gt;r</title>
<path fill="none" stroke="#000000" d="M474.1751,-302.3284C475.7598,-294.3419 477.6204,-284.9646 479.3587,-276.2038"/>
<polygon fill="#000000" stroke="#000000" points="482.806,-276.8127 481.3193,-266.3228 475.9399,-275.4503 482.806,-276.8127"/>
</g>
<!-- p&#45;&gt;phigamma -->
<g id="edge31" class="edge">
<title>p&#45;&gt;phigamma</title>
<path fill="none" stroke="#000000" d="M448.8653,-310.0448C428.6807,-298.5718 397.9929,-281.1286 373.8978,-267.4328"/>
<polygon fill="#000000" stroke="#000000" points="375.4449,-264.2863 365.0215,-262.3875 371.9857,-270.3719 375.4449,-264.2863"/>
</g>
<!-- p&#45;&gt;xplus -->
<g id="edge36" class="edge">
<title>p&#45;&gt;xplus</title>
<path fill="none" stroke="#000000" d="M461.1844,-303.3105C456.6111,-292.7231 451.5501,-279.1213 449.234,-266.3919 446.0837,-249.0771 445.3553,-243.9603 449.234,-226.7939 458.2597,-186.8479 483.4153,-146.3387 501.4477,-121.0671"/>
<polygon fill="#000000" stroke="#000000" points="504.4211,-122.93 507.4908,-112.7896 498.7675,-118.8024 504.4211,-122.93"/>
</g>
<!-- q -->
<g id="node23" class="node">
<title>q</title>
<ellipse fill="none" stroke="#000000" cx="521.234" cy="-170.9949" rx="27" ry="19.6"/>
<text text-anchor="middle" x="521.234" y="-166.5949" font-family="TeX Gyre Termes Math" font-size="18.00" fill="#000000">q</text>
</g>
<!-- r&#45;&gt;q -->
<g id="edge34" class="edge">
<title>r&#45;&gt;q</title>
<path fill="none" stroke="#000000" d="M494.3183,-227.5164C498.4426,-218.8557 503.4023,-208.4407 507.9344,-198.9234"/>
<polygon fill="#000000" stroke="#000000" points="511.1378,-200.3369 512.2773,-189.8035 504.8178,-197.3273 511.1378,-200.3369"/>
</g>
<!-- H -->
<g id="node22" class="node">
<title>H</title>
<ellipse fill="none" stroke="#000000" cx="557.234" cy="-246.5929" rx="27" ry="19.6"/>
<text text-anchor="middle" x="557.234" y="-242.1929" font-family="TeX Gyre Termes Math" font-size="18.00" fill="#000000">H</text>
</g>
<!-- H&#45;&gt;q -->
<g id="edge33" class="edge">
<title>H&#45;&gt;q</title>
<path fill="none" stroke="#000000" d="M548.1497,-227.5164C544.0255,-218.8557 539.0658,-208.4407 534.5336,-198.9234"/>
<polygon fill="#000000" stroke="#000000" points="537.6502,-197.3273 530.1907,-189.8035 531.3302,-200.3369 537.6502,-197.3273"/>
</g>
<!-- q&#45;&gt;xplus -->
<g id="edge37" class="edge">
<title>q&#45;&gt;xplus</title>
<path fill="none" stroke="#000000" d="M521.234,-151.1325C521.234,-143.295 521.234,-134.1181 521.234,-125.4988"/>
<polygon fill="#000000" stroke="#000000" points="524.7341,-125.3892 521.234,-115.3893 517.7341,-125.3893 524.7341,-125.3892"/>
</g>
<!-- dotdotdot -->
<g id="node25" class="node">
<title>dotdotdot</title>
<ellipse fill="none" stroke="#000000" cx="521.234" cy="-19.799" rx="27" ry="19.6"/>
<text text-anchor="middle" x="521.234" y="-15.399" font-family="TeX Gyre Termes Math" font-size="18.00" fill="#000000">...</text>
</g>
<!-- xplus&#45;&gt;dotdotdot -->
<g id="edge38" class="edge">
<title>xplus&#45;&gt;dotdotdot</title>
<path fill="none" stroke="#000000" d="M521.234,-75.5345C521.234,-67.697 521.234,-58.5201 521.234,-49.9008"/>
<polygon fill="#000000" stroke="#000000" points="524.7341,-49.7913 521.234,-39.7913 517.7341,-49.7913 524.7341,-49.7913"/>
</g>
</g>
</svg>
