<?xml version="1.0" encoding="utf-8" standalone="no"?>
<!DOCTYPE svg PUBLIC "-//W3C//DTD SVG 1.1//EN"
  "http://www.w3.org/Graphics/SVG/1.1/DTD/svg11.dtd">
<svg xmlns:xlink="http://www.w3.org/1999/xlink" width="576pt" height="360pt" viewBox="0 0 576 360" xmlns="http://www.w3.org/2000/svg" version="1.1">
 <metadata>
  <rdf:RDF xmlns:dc="http://purl.org/dc/elements/1.1/" xmlns:cc="http://creativecommons.org/ns#" xmlns:rdf="http://www.w3.org/1999/02/22-rdf-syntax-ns#">
   <cc:Work>
    <dc:type rdf:resource="http://purl.org/dc/dcmitype/StillImage"/>
    <dc:date>2023-04-04T21:27:16.646478</dc:date>
    <dc:format>image/svg+xml</dc:format>
    <dc:creator>
     <cc:Agent>
      <dc:title>Matplotlib v3.6.2, https://matplotlib.org/</dc:title>
     </cc:Agent>
    </dc:creator>
   </cc:Work>
  </rdf:RDF>
 </metadata>
 <defs>
  <style type="text/css">*{stroke-linejoin: round; stroke-linecap: butt}</style>
 </defs>
 <g id="figure_1">
  <g id="patch_1">
   <path d="M 0 360 
L 576 360 
L 576 0 
L 0 0 
z
" style="fill: #ffffff"/>
  </g>
  <g id="axes_1">
   <g id="patch_2">
    <path d="M 32.47 332.12 
L 565.2 332.12 
L 565.2 26.88 
L 32.47 26.88 
z
" style="fill: #ffffff"/>
   </g>
   <g id="matplotlib.axis_1">
    <g id="xtick_1">
     <g id="line2d_1">
      <defs>
       <path id="m404adde339" d="M 0 0 
L 0 3.5 
" style="stroke: #000000; stroke-width: 0.8"/>
      </defs>
      <g>
       <use xlink:href="#m404adde339" x="56.685" y="332.12" style="stroke: #000000; stroke-width: 0.8"/>
      </g>
     </g>
     <g id="text_1">
      <!-- −1.00 -->
      <g transform="translate(41.362344 346.718437) scale(0.1 -0.1)">
       <defs>
        <path id="DejaVuSans-2212" d="M 678 2272 
L 4684 2272 
L 4684 1741 
L 678 1741 
L 678 2272 
z
" transform="scale(0.015625)"/>
        <path id="DejaVuSans-31" d="M 794 531 
L 1825 531 
L 1825 4091 
L 703 3866 
L 703 4441 
L 1819 4666 
L 2450 4666 
L 2450 531 
L 3481 531 
L 3481 0 
L 794 0 
L 794 531 
z
" transform="scale(0.015625)"/>
        <path id="DejaVuSans-2e" d="M 684 794 
L 1344 794 
L 1344 0 
L 684 0 
L 684 794 
z
" transform="scale(0.015625)"/>
        <path id="DejaVuSans-30" d="M 2034 4250 
Q 1547 4250 1301 3770 
Q 1056 3291 1056 2328 
Q 1056 1369 1301 889 
Q 1547 409 2034 409 
Q 2525 409 2770 889 
Q 3016 1369 3016 2328 
Q 3016 3291 2770 3770 
Q 2525 4250 2034 4250 
z
M 2034 4750 
Q 2819 4750 3233 4129 
Q 3647 3509 3647 2328 
Q 3647 1150 3233 529 
Q 2819 -91 2034 -91 
Q 1250 -91 836 529 
Q 422 1150 422 2328 
Q 422 3509 836 4129 
Q 1250 4750 2034 4750 
z
" transform="scale(0.015625)"/>
       </defs>
       <use xlink:href="#DejaVuSans-2212"/>
       <use xlink:href="#DejaVuSans-31" x="83.789062"/>
       <use xlink:href="#DejaVuSans-2e" x="147.412109"/>
       <use xlink:href="#DejaVuSans-30" x="179.199219"/>
       <use xlink:href="#DejaVuSans-30" x="242.822266"/>
      </g>
     </g>
    </g>
    <g id="xtick_2">
     <g id="line2d_2">
      <g>
       <use xlink:href="#m404adde339" x="117.2225" y="332.12" style="stroke: #000000; stroke-width: 0.8"/>
      </g>
     </g>
     <g id="text_2">
      <!-- −0.75 -->
      <g transform="translate(101.899844 346.718437) scale(0.1 -0.1)">
       <defs>
        <path id="DejaVuSans-37" d="M 525 4666 
L 3525 4666 
L 3525 4397 
L 1831 0 
L 1172 0 
L 2766 4134 
L 525 4134 
L 525 4666 
z
" transform="scale(0.015625)"/>
        <path id="DejaVuSans-35" d="M 691 4666 
L 3169 4666 
L 3169 4134 
L 1269 4134 
L 1269 2991 
Q 1406 3038 1543 3061 
Q 1681 3084 1819 3084 
Q 2600 3084 3056 2656 
Q 3513 2228 3513 1497 
Q 3513 744 3044 326 
Q 2575 -91 1722 -91 
Q 1428 -91 1123 -41 
Q 819 9 494 109 
L 494 744 
Q 775 591 1075 516 
Q 1375 441 1709 441 
Q 2250 441 2565 725 
Q 2881 1009 2881 1497 
Q 2881 1984 2565 2268 
Q 2250 2553 1709 2553 
Q 1456 2553 1204 2497 
Q 953 2441 691 2322 
L 691 4666 
z
" transform="scale(0.015625)"/>
       </defs>
       <use xlink:href="#DejaVuSans-2212"/>
       <use xlink:href="#DejaVuSans-30" x="83.789062"/>
       <use xlink:href="#DejaVuSans-2e" x="147.412109"/>
       <use xlink:href="#DejaVuSans-37" x="179.199219"/>
       <use xlink:href="#DejaVuSans-35" x="242.822266"/>
      </g>
     </g>
    </g>
    <g id="xtick_3">
     <g id="line2d_3">
      <g>
       <use xlink:href="#m404adde339" x="177.76" y="332.12" style="stroke: #000000; stroke-width: 0.8"/>
      </g>
     </g>
     <g id="text_3">
      <!-- −0.50 -->
      <g transform="translate(162.437344 346.718437) scale(0.1 -0.1)">
       <use xlink:href="#DejaVuSans-2212"/>
       <use xlink:href="#DejaVuSans-30" x="83.789062"/>
       <use xlink:href="#DejaVuSans-2e" x="147.412109"/>
       <use xlink:href="#DejaVuSans-35" x="179.199219"/>
       <use xlink:href="#DejaVuSans-30" x="242.822266"/>
      </g>
     </g>
    </g>
    <g id="xtick_4">
     <g id="line2d_4">
      <g>
       <use xlink:href="#m404adde339" x="238.2975" y="332.12" style="stroke: #000000; stroke-width: 0.8"/>
      </g>
     </g>
     <g id="text_4">
      <!-- −0.25 -->
      <g transform="translate(222.974844 346.718437) scale(0.1 -0.1)">
       <defs>
        <path id="DejaVuSans-32" d="M 1228 531 
L 3431 531 
L 3431 0 
L 469 0 
L 469 531 
Q 828 903 1448 1529 
Q 2069 2156 2228 2338 
Q 2531 2678 2651 2914 
Q 2772 3150 2772 3378 
Q 2772 3750 2511 3984 
Q 2250 4219 1831 4219 
Q 1534 4219 1204 4116 
Q 875 4013 500 3803 
L 500 4441 
Q 881 4594 1212 4672 
Q 1544 4750 1819 4750 
Q 2544 4750 2975 4387 
Q 3406 4025 3406 3419 
Q 3406 3131 3298 2873 
Q 3191 2616 2906 2266 
Q 2828 2175 2409 1742 
Q 1991 1309 1228 531 
z
" transform="scale(0.015625)"/>
       </defs>
       <use xlink:href="#DejaVuSans-2212"/>
       <use xlink:href="#DejaVuSans-30" x="83.789062"/>
       <use xlink:href="#DejaVuSans-2e" x="147.412109"/>
       <use xlink:href="#DejaVuSans-32" x="179.199219"/>
       <use xlink:href="#DejaVuSans-35" x="242.822266"/>
      </g>
     </g>
    </g>
    <g id="xtick_5">
     <g id="line2d_5">
      <g>
       <use xlink:href="#m404adde339" x="298.835" y="332.12" style="stroke: #000000; stroke-width: 0.8"/>
      </g>
     </g>
     <g id="text_5">
      <!-- 0.00 -->
      <g transform="translate(287.702187 346.718437) scale(0.1 -0.1)">
       <use xlink:href="#DejaVuSans-30"/>
       <use xlink:href="#DejaVuSans-2e" x="63.623047"/>
       <use xlink:href="#DejaVuSans-30" x="95.410156"/>
       <use xlink:href="#DejaVuSans-30" x="159.033203"/>
      </g>
     </g>
    </g>
    <g id="xtick_6">
     <g id="line2d_6">
      <g>
       <use xlink:href="#m404adde339" x="359.3725" y="332.12" style="stroke: #000000; stroke-width: 0.8"/>
      </g>
     </g>
     <g id="text_6">
      <!-- 0.25 -->
      <g transform="translate(348.239687 346.718437) scale(0.1 -0.1)">
       <use xlink:href="#DejaVuSans-30"/>
       <use xlink:href="#DejaVuSans-2e" x="63.623047"/>
       <use xlink:href="#DejaVuSans-32" x="95.410156"/>
       <use xlink:href="#DejaVuSans-35" x="159.033203"/>
      </g>
     </g>
    </g>
    <g id="xtick_7">
     <g id="line2d_7">
      <g>
       <use xlink:href="#m404adde339" x="419.91" y="332.12" style="stroke: #000000; stroke-width: 0.8"/>
      </g>
     </g>
     <g id="text_7">
      <!-- 0.50 -->
      <g transform="translate(408.777187 346.718437) scale(0.1 -0.1)">
       <use xlink:href="#DejaVuSans-30"/>
       <use xlink:href="#DejaVuSans-2e" x="63.623047"/>
       <use xlink:href="#DejaVuSans-35" x="95.410156"/>
       <use xlink:href="#DejaVuSans-30" x="159.033203"/>
      </g>
     </g>
    </g>
    <g id="xtick_8">
     <g id="line2d_8">
      <g>
       <use xlink:href="#m404adde339" x="480.4475" y="332.12" style="stroke: #000000; stroke-width: 0.8"/>
      </g>
     </g>
     <g id="text_8">
      <!-- 0.75 -->
      <g transform="translate(469.314687 346.718437) scale(0.1 -0.1)">
       <use xlink:href="#DejaVuSans-30"/>
       <use xlink:href="#DejaVuSans-2e" x="63.623047"/>
       <use xlink:href="#DejaVuSans-37" x="95.410156"/>
       <use xlink:href="#DejaVuSans-35" x="159.033203"/>
      </g>
     </g>
    </g>
    <g id="xtick_9">
     <g id="line2d_9">
      <g>
       <use xlink:href="#m404adde339" x="540.985" y="332.12" style="stroke: #000000; stroke-width: 0.8"/>
      </g>
     </g>
     <g id="text_9">
      <!-- 1.00 -->
      <g transform="translate(529.852187 346.718437) scale(0.1 -0.1)">
       <use xlink:href="#DejaVuSans-31"/>
       <use xlink:href="#DejaVuSans-2e" x="63.623047"/>
       <use xlink:href="#DejaVuSans-30" x="95.410156"/>
       <use xlink:href="#DejaVuSans-30" x="159.033203"/>
      </g>
     </g>
    </g>
   </g>
   <g id="matplotlib.axis_2">
    <g id="ytick_1">
     <g id="line2d_10">
      <defs>
       <path id="meb1e1e0b16" d="M 0 0 
L -3.5 0 
" style="stroke: #000000; stroke-width: 0.8"/>
      </defs>
      <g>
       <use xlink:href="#meb1e1e0b16" x="32.47" y="294.514196" style="stroke: #000000; stroke-width: 0.8"/>
      </g>
     </g>
     <g id="text_10">
      <!-- −2 -->
      <g transform="translate(10.727813 298.313415) scale(0.1 -0.1)">
       <use xlink:href="#DejaVuSans-2212"/>
       <use xlink:href="#DejaVuSans-32" x="83.789062"/>
      </g>
     </g>
    </g>
    <g id="ytick_2">
     <g id="line2d_11">
      <g>
       <use xlink:href="#meb1e1e0b16" x="32.47" y="256.599523" style="stroke: #000000; stroke-width: 0.8"/>
      </g>
     </g>
     <g id="text_11">
      <!-- 0 -->
      <g transform="translate(19.1075 260.398742) scale(0.1 -0.1)">
       <use xlink:href="#DejaVuSans-30"/>
      </g>
     </g>
    </g>
    <g id="ytick_3">
     <g id="line2d_12">
      <g>
       <use xlink:href="#meb1e1e0b16" x="32.47" y="218.68485" style="stroke: #000000; stroke-width: 0.8"/>
      </g>
     </g>
     <g id="text_12">
      <!-- 2 -->
      <g transform="translate(19.1075 222.484069) scale(0.1 -0.1)">
       <use xlink:href="#DejaVuSans-32"/>
      </g>
     </g>
    </g>
    <g id="ytick_4">
     <g id="line2d_13">
      <g>
       <use xlink:href="#meb1e1e0b16" x="32.47" y="180.770177" style="stroke: #000000; stroke-width: 0.8"/>
      </g>
     </g>
     <g id="text_13">
      <!-- 4 -->
      <g transform="translate(19.1075 184.569396) scale(0.1 -0.1)">
       <defs>
        <path id="DejaVuSans-34" d="M 2419 4116 
L 825 1625 
L 2419 1625 
L 2419 4116 
z
M 2253 4666 
L 3047 4666 
L 3047 1625 
L 3713 1625 
L 3713 1100 
L 3047 1100 
L 3047 0 
L 2419 0 
L 2419 1100 
L 313 1100 
L 313 1709 
L 2253 4666 
z
" transform="scale(0.015625)"/>
       </defs>
       <use xlink:href="#DejaVuSans-34"/>
      </g>
     </g>
    </g>
    <g id="ytick_5">
     <g id="line2d_14">
      <g>
       <use xlink:href="#meb1e1e0b16" x="32.47" y="142.855504" style="stroke: #000000; stroke-width: 0.8"/>
      </g>
     </g>
     <g id="text_14">
      <!-- 6 -->
      <g transform="translate(19.1075 146.654722) scale(0.1 -0.1)">
       <defs>
        <path id="DejaVuSans-36" d="M 2113 2584 
Q 1688 2584 1439 2293 
Q 1191 2003 1191 1497 
Q 1191 994 1439 701 
Q 1688 409 2113 409 
Q 2538 409 2786 701 
Q 3034 994 3034 1497 
Q 3034 2003 2786 2293 
Q 2538 2584 2113 2584 
z
M 3366 4563 
L 3366 3988 
Q 3128 4100 2886 4159 
Q 2644 4219 2406 4219 
Q 1781 4219 1451 3797 
Q 1122 3375 1075 2522 
Q 1259 2794 1537 2939 
Q 1816 3084 2150 3084 
Q 2853 3084 3261 2657 
Q 3669 2231 3669 1497 
Q 3669 778 3244 343 
Q 2819 -91 2113 -91 
Q 1303 -91 875 529 
Q 447 1150 447 2328 
Q 447 3434 972 4092 
Q 1497 4750 2381 4750 
Q 2619 4750 2861 4703 
Q 3103 4656 3366 4563 
z
" transform="scale(0.015625)"/>
       </defs>
       <use xlink:href="#DejaVuSans-36"/>
      </g>
     </g>
    </g>
    <g id="ytick_6">
     <g id="line2d_15">
      <g>
       <use xlink:href="#meb1e1e0b16" x="32.47" y="104.940831" style="stroke: #000000; stroke-width: 0.8"/>
      </g>
     </g>
     <g id="text_15">
      <!-- 8 -->
      <g transform="translate(19.1075 108.740049) scale(0.1 -0.1)">
       <defs>
        <path id="DejaVuSans-38" d="M 2034 2216 
Q 1584 2216 1326 1975 
Q 1069 1734 1069 1313 
Q 1069 891 1326 650 
Q 1584 409 2034 409 
Q 2484 409 2743 651 
Q 3003 894 3003 1313 
Q 3003 1734 2745 1975 
Q 2488 2216 2034 2216 
z
M 1403 2484 
Q 997 2584 770 2862 
Q 544 3141 544 3541 
Q 544 4100 942 4425 
Q 1341 4750 2034 4750 
Q 2731 4750 3128 4425 
Q 3525 4100 3525 3541 
Q 3525 3141 3298 2862 
Q 3072 2584 2669 2484 
Q 3125 2378 3379 2068 
Q 3634 1759 3634 1313 
Q 3634 634 3220 271 
Q 2806 -91 2034 -91 
Q 1263 -91 848 271 
Q 434 634 434 1313 
Q 434 1759 690 2068 
Q 947 2378 1403 2484 
z
M 1172 3481 
Q 1172 3119 1398 2916 
Q 1625 2713 2034 2713 
Q 2441 2713 2670 2916 
Q 2900 3119 2900 3481 
Q 2900 3844 2670 4047 
Q 2441 4250 2034 4250 
Q 1625 4250 1398 4047 
Q 1172 3844 1172 3481 
z
" transform="scale(0.015625)"/>
       </defs>
       <use xlink:href="#DejaVuSans-38"/>
      </g>
     </g>
    </g>
    <g id="ytick_7">
     <g id="line2d_16">
      <g>
       <use xlink:href="#meb1e1e0b16" x="32.47" y="67.026157" style="stroke: #000000; stroke-width: 0.8"/>
      </g>
     </g>
     <g id="text_16">
      <!-- 10 -->
      <g transform="translate(12.745 70.825376) scale(0.1 -0.1)">
       <use xlink:href="#DejaVuSans-31"/>
       <use xlink:href="#DejaVuSans-30" x="63.623047"/>
      </g>
     </g>
    </g>
    <g id="ytick_8">
     <g id="line2d_17">
      <g>
       <use xlink:href="#meb1e1e0b16" x="32.47" y="29.111484" style="stroke: #000000; stroke-width: 0.8"/>
      </g>
     </g>
     <g id="text_17">
      <!-- 12 -->
      <g transform="translate(12.745 32.910703) scale(0.1 -0.1)">
       <use xlink:href="#DejaVuSans-31"/>
       <use xlink:href="#DejaVuSans-32" x="63.623047"/>
      </g>
     </g>
    </g>
   </g>
   <g id="line2d_18">
    <defs>
     <path id="m197917aff6" d="M -3 3 
L 3 -3 
M -3 -3 
L 3 3 
" style="stroke: #1f77b4"/>
    </defs>
    <g clip-path="url(#pbe0e3fda2f)">
     <use xlink:href="#m197917aff6" x="56.685" y="98.690206" style="fill: #1f77b4; stroke: #1f77b4"/>
     <use xlink:href="#m197917aff6" x="66.568673" y="43.465806" style="fill: #1f77b4; stroke: #1f77b4"/>
     <use xlink:href="#m197917aff6" x="76.452347" y="84.357097" style="fill: #1f77b4; stroke: #1f77b4"/>
     <use xlink:href="#m197917aff6" x="86.33602" y="77.880518" style="fill: #1f77b4; stroke: #1f77b4"/>
     <use xlink:href="#m197917aff6" x="96.219694" y="83.985562" style="fill: #1f77b4; stroke: #1f77b4"/>
     <use xlink:href="#m197917aff6" x="106.103367" y="110.268746" style="fill: #1f77b4; stroke: #1f77b4"/>
     <use xlink:href="#m197917aff6" x="115.987041" y="139.32865" style="fill: #1f77b4; stroke: #1f77b4"/>
     <use xlink:href="#m197917aff6" x="125.870714" y="121.069302" style="fill: #1f77b4; stroke: #1f77b4"/>
     <use xlink:href="#m197917aff6" x="135.754388" y="148.464837" style="fill: #1f77b4; stroke: #1f77b4"/>
     <use xlink:href="#m197917aff6" x="145.638061" y="215.326317" style="fill: #1f77b4; stroke: #1f77b4"/>
     <use xlink:href="#m197917aff6" x="155.521735" y="156.902606" style="fill: #1f77b4; stroke: #1f77b4"/>
     <use xlink:href="#m197917aff6" x="165.405408" y="205.28475" style="fill: #1f77b4; stroke: #1f77b4"/>
     <use xlink:href="#m197917aff6" x="175.289082" y="258.502949" style="fill: #1f77b4; stroke: #1f77b4"/>
     <use xlink:href="#m197917aff6" x="185.172755" y="244.837042" style="fill: #1f77b4; stroke: #1f77b4"/>
     <use xlink:href="#m197917aff6" x="195.056429" y="285.25687" style="fill: #1f77b4; stroke: #1f77b4"/>
     <use xlink:href="#m197917aff6" x="204.940102" y="288.050251" style="fill: #1f77b4; stroke: #1f77b4"/>
     <use xlink:href="#m197917aff6" x="214.823776" y="278.035506" style="fill: #1f77b4; stroke: #1f77b4"/>
     <use xlink:href="#m197917aff6" x="224.707449" y="318.245455" style="fill: #1f77b4; stroke: #1f77b4"/>
     <use xlink:href="#m197917aff6" x="234.591122" y="280.220999" style="fill: #1f77b4; stroke: #1f77b4"/>
     <use xlink:href="#m197917aff6" x="244.474796" y="256.751358" style="fill: #1f77b4; stroke: #1f77b4"/>
     <use xlink:href="#m197917aff6" x="254.358469" y="246.085229" style="fill: #1f77b4; stroke: #1f77b4"/>
     <use xlink:href="#m197917aff6" x="264.242143" y="260.962855" style="fill: #1f77b4; stroke: #1f77b4"/>
     <use xlink:href="#m197917aff6" x="274.125816" y="219.200731" style="fill: #1f77b4; stroke: #1f77b4"/>
     <use xlink:href="#m197917aff6" x="284.00949" y="245.789377" style="fill: #1f77b4; stroke: #1f77b4"/>
     <use xlink:href="#m197917aff6" x="293.893163" y="195.355425" style="fill: #1f77b4; stroke: #1f77b4"/>
     <use xlink:href="#m197917aff6" x="303.776837" y="160.662757" style="fill: #1f77b4; stroke: #1f77b4"/>
     <use xlink:href="#m197917aff6" x="313.66051" y="171.962964" style="fill: #1f77b4; stroke: #1f77b4"/>
     <use xlink:href="#m197917aff6" x="323.544184" y="126.771256" style="fill: #1f77b4; stroke: #1f77b4"/>
     <use xlink:href="#m197917aff6" x="333.427857" y="73.562508" style="fill: #1f77b4; stroke: #1f77b4"/>
     <use xlink:href="#m197917aff6" x="343.311531" y="40.754545" style="fill: #1f77b4; stroke: #1f77b4"/>
     <use xlink:href="#m197917aff6" x="353.195204" y="63.531379" style="fill: #1f77b4; stroke: #1f77b4"/>
     <use xlink:href="#m197917aff6" x="363.078878" y="54.693951" style="fill: #1f77b4; stroke: #1f77b4"/>
     <use xlink:href="#m197917aff6" x="372.962551" y="85.297844" style="fill: #1f77b4; stroke: #1f77b4"/>
     <use xlink:href="#m197917aff6" x="382.846224" y="91.477241" style="fill: #1f77b4; stroke: #1f77b4"/>
     <use xlink:href="#m197917aff6" x="392.729898" y="101.413909" style="fill: #1f77b4; stroke: #1f77b4"/>
     <use xlink:href="#m197917aff6" x="402.613571" y="74.869386" style="fill: #1f77b4; stroke: #1f77b4"/>
     <use xlink:href="#m197917aff6" x="412.497245" y="85.345268" style="fill: #1f77b4; stroke: #1f77b4"/>
     <use xlink:href="#m197917aff6" x="422.380918" y="129.921704" style="fill: #1f77b4; stroke: #1f77b4"/>
     <use xlink:href="#m197917aff6" x="432.264592" y="161.187887" style="fill: #1f77b4; stroke: #1f77b4"/>
     <use xlink:href="#m197917aff6" x="442.148265" y="155.254503" style="fill: #1f77b4; stroke: #1f77b4"/>
     <use xlink:href="#m197917aff6" x="452.031939" y="177.303312" style="fill: #1f77b4; stroke: #1f77b4"/>
     <use xlink:href="#m197917aff6" x="461.915612" y="208.710658" style="fill: #1f77b4; stroke: #1f77b4"/>
     <use xlink:href="#m197917aff6" x="471.799286" y="204.094275" style="fill: #1f77b4; stroke: #1f77b4"/>
     <use xlink:href="#m197917aff6" x="481.682959" y="249.90373" style="fill: #1f77b4; stroke: #1f77b4"/>
     <use xlink:href="#m197917aff6" x="491.566633" y="266.570852" style="fill: #1f77b4; stroke: #1f77b4"/>
     <use xlink:href="#m197917aff6" x="501.450306" y="299.991894" style="fill: #1f77b4; stroke: #1f77b4"/>
     <use xlink:href="#m197917aff6" x="511.33398" y="285.99569" style="fill: #1f77b4; stroke: #1f77b4"/>
     <use xlink:href="#m197917aff6" x="521.217653" y="268.151678" style="fill: #1f77b4; stroke: #1f77b4"/>
     <use xlink:href="#m197917aff6" x="531.101327" y="292.958494" style="fill: #1f77b4; stroke: #1f77b4"/>
     <use xlink:href="#m197917aff6" x="540.985" y="288.497726" style="fill: #1f77b4; stroke: #1f77b4"/>
    </g>
   </g>
   <g id="line2d_19">
    <path d="M 56.685 71.698276 
L 58.584216 70.517169 
L 60.483431 69.505596 
L 62.382647 68.665111 
L 64.281863 67.997007 
L 66.181078 67.502311 
L 68.080294 67.181784 
L 69.97951 67.035919 
L 71.878725 67.06494 
L 73.777941 67.268803 
L 75.677157 67.647193 
L 77.576373 68.19953 
L 79.475588 68.924963 
L 81.374804 69.822378 
L 83.27402 70.890395 
L 85.173235 72.12737 
L 87.072451 73.531403 
L 88.971667 75.100333 
L 90.870882 76.83175 
L 92.770098 78.72299 
L 96.568529 82.973065 
L 100.366961 87.82443 
L 104.165392 93.247255 
L 107.963824 99.2082 
L 111.762255 105.670614 
L 115.560686 112.594766 
L 119.359118 119.938082 
L 123.157549 127.655413 
L 128.855196 139.828339 
L 134.552843 152.56728 
L 142.149706 170.127785 
L 159.242647 209.927972 
L 164.940294 222.631107 
L 170.637941 234.755521 
L 174.436373 242.433776 
L 178.234804 249.732903 
L 182.033235 256.608025 
L 185.831667 263.016871 
L 189.630098 268.920038 
L 193.428529 274.28123 
L 197.226961 279.067485 
L 201.025392 283.249377 
L 202.924608 285.105502 
L 204.823824 286.801193 
L 206.723039 288.333843 
L 208.622255 289.701095 
L 210.521471 290.900848 
L 212.420686 291.931255 
L 214.319902 292.790733 
L 216.219118 293.47796 
L 218.118333 293.991879 
L 220.017549 294.3317 
L 221.916765 294.496901 
L 223.81598 294.487227 
L 225.715196 294.302694 
L 227.614412 293.943584 
L 229.513627 293.410451 
L 231.412843 292.704115 
L 233.312059 291.82566 
L 235.211275 290.776438 
L 237.11049 289.558063 
L 239.009706 288.172407 
L 240.908922 286.621602 
L 242.808137 284.908032 
L 244.707353 283.034333 
L 248.505784 278.818309 
L 252.304216 273.999454 
L 256.102647 268.607395 
L 259.901078 262.675283 
L 263.69951 256.239592 
L 267.497941 249.339891 
L 271.296373 242.0186 
L 275.094804 234.320734 
L 280.792451 222.171951 
L 286.490098 209.450793 
L 294.086961 191.903696 
L 311.179902 152.089561 
L 316.877549 139.368403 
L 322.575196 127.219619 
L 326.373627 119.521753 
L 330.172059 112.200463 
L 333.97049 105.300761 
L 337.768922 98.86507 
L 341.567353 92.932959 
L 345.365784 87.5409 
L 349.164216 82.722044 
L 352.962647 78.506021 
L 354.861863 76.632321 
L 356.761078 74.918751 
L 358.660294 73.367946 
L 360.55951 71.982291 
L 362.458725 70.763915 
L 364.357941 69.714694 
L 366.257157 68.836239 
L 368.156373 68.129902 
L 370.055588 67.596769 
L 371.954804 67.23766 
L 373.85402 67.053127 
L 375.753235 67.043453 
L 377.652451 67.208654 
L 379.551667 67.548475 
L 381.450882 68.062394 
L 383.350098 68.749621 
L 385.249314 69.609099 
L 387.148529 70.639506 
L 389.047745 71.839258 
L 390.946961 73.206511 
L 392.846176 74.739161 
L 394.745392 76.434852 
L 396.644608 78.290977 
L 400.443039 82.472868 
L 404.241471 87.259124 
L 408.039902 92.620316 
L 411.838333 98.523482 
L 415.636765 104.932328 
L 419.435196 111.80745 
L 423.233627 119.106578 
L 427.032059 126.784833 
L 432.729706 138.909246 
L 438.427353 151.612382 
L 446.024216 169.14574 
L 463.117157 208.973073 
L 468.814804 221.712015 
L 474.512451 233.88494 
L 478.310882 241.602272 
L 482.109314 248.945588 
L 485.907745 255.869739 
L 489.706176 262.332154 
L 493.504608 268.293099 
L 497.303039 273.715924 
L 501.101471 278.567288 
L 504.899902 282.817364 
L 506.799118 284.708604 
L 508.698333 286.44002 
L 510.597549 288.008951 
L 512.496765 289.412984 
L 514.39598 290.649959 
L 516.295196 291.717975 
L 518.194412 292.61539 
L 520.093627 293.340824 
L 521.992843 293.89316 
L 523.892059 294.271551 
L 525.791275 294.475414 
L 527.69049 294.504435 
L 529.589706 294.35857 
L 531.488922 294.038043 
L 533.388137 293.543347 
L 535.287353 292.875243 
L 537.186569 292.034758 
L 539.085784 291.023185 
L 540.985 289.842078 
L 540.985 289.842078 
" clip-path="url(#pbe0e3fda2f)" style="fill: none; stroke: #ff7f0e; stroke-width: 1.5; stroke-linecap: square"/>
   </g>
   <g id="line2d_20">
    <path d="M 56.685 74.745101 
L 58.584216 73.512547 
L 60.483431 72.444496 
L 62.382647 71.542605 
L 64.281863 70.808273 
L 66.181078 70.242637 
L 68.080294 69.846574 
L 69.97951 69.620699 
L 71.878725 69.565362 
L 73.777941 69.680648 
L 75.677157 69.966378 
L 77.576373 70.422111 
L 79.475588 71.047138 
L 81.374804 71.840492 
L 83.27402 72.800942 
L 85.173235 73.927 
L 87.072451 75.216919 
L 88.971667 76.6687 
L 90.870882 78.280092 
L 92.770098 80.048597 
L 96.568529 84.045741 
L 100.366961 88.635353 
L 104.165392 93.788983 
L 107.963824 99.474686 
L 111.762255 105.657217 
L 115.560686 112.298252 
L 119.359118 119.356625 
L 123.157549 126.788582 
L 128.855196 138.535648 
L 134.552843 150.855416 
L 142.149706 167.874994 
L 159.242647 206.579837 
L 164.940294 218.96815 
L 170.637941 230.808075 
L 174.436373 238.31482 
L 178.234804 245.457754 
L 182.033235 252.192599 
L 185.831667 258.477609 
L 189.630098 264.273824 
L 193.428529 269.545313 
L 197.226961 274.259401 
L 201.025392 278.386866 
L 202.924608 280.222473 
L 204.823824 281.902123 
L 206.723039 283.423212 
L 208.622255 284.783381 
L 210.521471 285.980523 
L 212.420686 287.012781 
L 214.319902 287.878554 
L 216.219118 288.576502 
L 218.118333 289.105541 
L 220.017549 289.464851 
L 221.916765 289.653876 
L 223.81598 289.672322 
L 225.715196 289.520161 
L 227.614412 289.197629 
L 229.513627 288.705226 
L 231.412843 288.043714 
L 233.312059 287.21412 
L 235.211275 286.21773 
L 237.11049 285.056089 
L 239.009706 283.730996 
L 240.908922 282.244508 
L 242.808137 280.598927 
L 244.707353 278.796806 
L 248.505784 274.734354 
L 252.304216 270.082336 
L 256.102647 264.869586 
L 259.901078 259.12842 
L 263.69951 252.894423 
L 267.497941 246.206241 
L 271.296373 239.10533 
L 275.094804 231.635709 
L 280.792451 219.841785 
L 286.490098 207.487298 
L 294.086961 190.441115 
L 311.179902 151.760857 
L 316.877549 139.406369 
L 322.575196 127.612445 
L 326.373627 120.142824 
L 330.172059 113.041914 
L 333.97049 106.353731 
L 337.768922 100.119735 
L 341.567353 94.378568 
L 345.365784 89.165819 
L 349.164216 84.5138 
L 352.962647 80.451349 
L 354.861863 78.649227 
L 356.761078 77.003647 
L 358.660294 75.517158 
L 360.55951 74.192066 
L 362.458725 73.030424 
L 364.357941 72.034034 
L 366.257157 71.20444 
L 368.156373 70.542929 
L 370.055588 70.050525 
L 371.954804 69.727993 
L 373.85402 69.575832 
L 375.753235 69.594278 
L 377.652451 69.783303 
L 379.551667 70.142614 
L 381.450882 70.671653 
L 383.350098 71.3696 
L 385.249314 72.235374 
L 387.148529 73.267631 
L 389.047745 74.464773 
L 390.946961 75.824942 
L 392.846176 77.346031 
L 394.745392 79.025681 
L 398.543824 82.850006 
L 402.342255 87.274212 
L 406.140686 92.270874 
L 409.939118 97.809019 
L 413.737549 103.854317 
L 417.53598 110.369295 
L 421.334412 117.313568 
L 425.132843 124.644089 
L 430.83049 136.264102 
L 436.528137 148.488476 
L 444.125 165.432346 
L 465.016373 212.5525 
L 470.71402 224.700101 
L 476.411667 236.219421 
L 480.210098 243.470206 
L 484.008529 250.325224 
L 487.806961 256.741981 
L 491.605392 262.680701 
L 495.403824 268.104572 
L 499.202255 272.979972 
L 503.000686 277.276681 
L 506.799118 280.968062 
L 508.698333 282.579454 
L 510.597549 284.031235 
L 512.496765 285.321154 
L 514.39598 286.447212 
L 516.295196 287.407662 
L 518.194412 288.201016 
L 520.093627 288.826044 
L 521.992843 289.281776 
L 523.892059 289.567507 
L 525.791275 289.682793 
L 527.69049 289.627455 
L 529.589706 289.40158 
L 531.488922 289.005518 
L 533.388137 288.439882 
L 535.287353 287.705549 
L 537.186569 286.803658 
L 539.085784 285.735608 
L 540.985 284.503053 
L 540.985 284.503053 
" clip-path="url(#pbe0e3fda2f)" style="fill: none; stroke-dasharray: 5.55,2.4; stroke-dashoffset: 0; stroke: #2ca02c; stroke-width: 1.5"/>
   </g>
   <g id="patch_3">
    <path d="M 32.47 332.12 
L 32.47 26.88 
" style="fill: none; stroke: #000000; stroke-width: 0.8; stroke-linejoin: miter; stroke-linecap: square"/>
   </g>
   <g id="patch_4">
    <path d="M 565.2 332.12 
L 565.2 26.88 
" style="fill: none; stroke: #000000; stroke-width: 0.8; stroke-linejoin: miter; stroke-linecap: square"/>
   </g>
   <g id="patch_5">
    <path d="M 32.47 332.12 
L 565.2 332.12 
" style="fill: none; stroke: #000000; stroke-width: 0.8; stroke-linejoin: miter; stroke-linecap: square"/>
   </g>
   <g id="patch_6">
    <path d="M 32.47 26.88 
L 565.2 26.88 
" style="fill: none; stroke: #000000; stroke-width: 0.8; stroke-linejoin: miter; stroke-linecap: square"/>
   </g>
   <g id="text_18">
    <!-- PANTR nonlinear regression example -->
    <g transform="translate(188.129375 20.88) scale(0.12 -0.12)">
     <defs>
      <path id="DejaVuSans-50" d="M 1259 4147 
L 1259 2394 
L 2053 2394 
Q 2494 2394 2734 2622 
Q 2975 2850 2975 3272 
Q 2975 3691 2734 3919 
Q 2494 4147 2053 4147 
L 1259 4147 
z
M 628 4666 
L 2053 4666 
Q 2838 4666 3239 4311 
Q 3641 3956 3641 3272 
Q 3641 2581 3239 2228 
Q 2838 1875 2053 1875 
L 1259 1875 
L 1259 0 
L 628 0 
L 628 4666 
z
" transform="scale(0.015625)"/>
      <path id="DejaVuSans-41" d="M 2188 4044 
L 1331 1722 
L 3047 1722 
L 2188 4044 
z
M 1831 4666 
L 2547 4666 
L 4325 0 
L 3669 0 
L 3244 1197 
L 1141 1197 
L 716 0 
L 50 0 
L 1831 4666 
z
" transform="scale(0.015625)"/>
      <path id="DejaVuSans-4e" d="M 628 4666 
L 1478 4666 
L 3547 763 
L 3547 4666 
L 4159 4666 
L 4159 0 
L 3309 0 
L 1241 3903 
L 1241 0 
L 628 0 
L 628 4666 
z
" transform="scale(0.015625)"/>
      <path id="DejaVuSans-54" d="M -19 4666 
L 3928 4666 
L 3928 4134 
L 2272 4134 
L 2272 0 
L 1638 0 
L 1638 4134 
L -19 4134 
L -19 4666 
z
" transform="scale(0.015625)"/>
      <path id="DejaVuSans-52" d="M 2841 2188 
Q 3044 2119 3236 1894 
Q 3428 1669 3622 1275 
L 4263 0 
L 3584 0 
L 2988 1197 
Q 2756 1666 2539 1819 
Q 2322 1972 1947 1972 
L 1259 1972 
L 1259 0 
L 628 0 
L 628 4666 
L 2053 4666 
Q 2853 4666 3247 4331 
Q 3641 3997 3641 3322 
Q 3641 2881 3436 2590 
Q 3231 2300 2841 2188 
z
M 1259 4147 
L 1259 2491 
L 2053 2491 
Q 2509 2491 2742 2702 
Q 2975 2913 2975 3322 
Q 2975 3731 2742 3939 
Q 2509 4147 2053 4147 
L 1259 4147 
z
" transform="scale(0.015625)"/>
      <path id="DejaVuSans-20" transform="scale(0.015625)"/>
      <path id="DejaVuSans-6e" d="M 3513 2113 
L 3513 0 
L 2938 0 
L 2938 2094 
Q 2938 2591 2744 2837 
Q 2550 3084 2163 3084 
Q 1697 3084 1428 2787 
Q 1159 2491 1159 1978 
L 1159 0 
L 581 0 
L 581 3500 
L 1159 3500 
L 1159 2956 
Q 1366 3272 1645 3428 
Q 1925 3584 2291 3584 
Q 2894 3584 3203 3211 
Q 3513 2838 3513 2113 
z
" transform="scale(0.015625)"/>
      <path id="DejaVuSans-6f" d="M 1959 3097 
Q 1497 3097 1228 2736 
Q 959 2375 959 1747 
Q 959 1119 1226 758 
Q 1494 397 1959 397 
Q 2419 397 2687 759 
Q 2956 1122 2956 1747 
Q 2956 2369 2687 2733 
Q 2419 3097 1959 3097 
z
M 1959 3584 
Q 2709 3584 3137 3096 
Q 3566 2609 3566 1747 
Q 3566 888 3137 398 
Q 2709 -91 1959 -91 
Q 1206 -91 779 398 
Q 353 888 353 1747 
Q 353 2609 779 3096 
Q 1206 3584 1959 3584 
z
" transform="scale(0.015625)"/>
      <path id="DejaVuSans-6c" d="M 603 4863 
L 1178 4863 
L 1178 0 
L 603 0 
L 603 4863 
z
" transform="scale(0.015625)"/>
      <path id="DejaVuSans-69" d="M 603 3500 
L 1178 3500 
L 1178 0 
L 603 0 
L 603 3500 
z
M 603 4863 
L 1178 4863 
L 1178 4134 
L 603 4134 
L 603 4863 
z
" transform="scale(0.015625)"/>
      <path id="DejaVuSans-65" d="M 3597 1894 
L 3597 1613 
L 953 1613 
Q 991 1019 1311 708 
Q 1631 397 2203 397 
Q 2534 397 2845 478 
Q 3156 559 3463 722 
L 3463 178 
Q 3153 47 2828 -22 
Q 2503 -91 2169 -91 
Q 1331 -91 842 396 
Q 353 884 353 1716 
Q 353 2575 817 3079 
Q 1281 3584 2069 3584 
Q 2775 3584 3186 3129 
Q 3597 2675 3597 1894 
z
M 3022 2063 
Q 3016 2534 2758 2815 
Q 2500 3097 2075 3097 
Q 1594 3097 1305 2825 
Q 1016 2553 972 2059 
L 3022 2063 
z
" transform="scale(0.015625)"/>
      <path id="DejaVuSans-61" d="M 2194 1759 
Q 1497 1759 1228 1600 
Q 959 1441 959 1056 
Q 959 750 1161 570 
Q 1363 391 1709 391 
Q 2188 391 2477 730 
Q 2766 1069 2766 1631 
L 2766 1759 
L 2194 1759 
z
M 3341 1997 
L 3341 0 
L 2766 0 
L 2766 531 
Q 2569 213 2275 61 
Q 1981 -91 1556 -91 
Q 1019 -91 701 211 
Q 384 513 384 1019 
Q 384 1609 779 1909 
Q 1175 2209 1959 2209 
L 2766 2209 
L 2766 2266 
Q 2766 2663 2505 2880 
Q 2244 3097 1772 3097 
Q 1472 3097 1187 3025 
Q 903 2953 641 2809 
L 641 3341 
Q 956 3463 1253 3523 
Q 1550 3584 1831 3584 
Q 2591 3584 2966 3190 
Q 3341 2797 3341 1997 
z
" transform="scale(0.015625)"/>
      <path id="DejaVuSans-72" d="M 2631 2963 
Q 2534 3019 2420 3045 
Q 2306 3072 2169 3072 
Q 1681 3072 1420 2755 
Q 1159 2438 1159 1844 
L 1159 0 
L 581 0 
L 581 3500 
L 1159 3500 
L 1159 2956 
Q 1341 3275 1631 3429 
Q 1922 3584 2338 3584 
Q 2397 3584 2469 3576 
Q 2541 3569 2628 3553 
L 2631 2963 
z
" transform="scale(0.015625)"/>
      <path id="DejaVuSans-67" d="M 2906 1791 
Q 2906 2416 2648 2759 
Q 2391 3103 1925 3103 
Q 1463 3103 1205 2759 
Q 947 2416 947 1791 
Q 947 1169 1205 825 
Q 1463 481 1925 481 
Q 2391 481 2648 825 
Q 2906 1169 2906 1791 
z
M 3481 434 
Q 3481 -459 3084 -895 
Q 2688 -1331 1869 -1331 
Q 1566 -1331 1297 -1286 
Q 1028 -1241 775 -1147 
L 775 -588 
Q 1028 -725 1275 -790 
Q 1522 -856 1778 -856 
Q 2344 -856 2625 -561 
Q 2906 -266 2906 331 
L 2906 616 
Q 2728 306 2450 153 
Q 2172 0 1784 0 
Q 1141 0 747 490 
Q 353 981 353 1791 
Q 353 2603 747 3093 
Q 1141 3584 1784 3584 
Q 2172 3584 2450 3431 
Q 2728 3278 2906 2969 
L 2906 3500 
L 3481 3500 
L 3481 434 
z
" transform="scale(0.015625)"/>
      <path id="DejaVuSans-73" d="M 2834 3397 
L 2834 2853 
Q 2591 2978 2328 3040 
Q 2066 3103 1784 3103 
Q 1356 3103 1142 2972 
Q 928 2841 928 2578 
Q 928 2378 1081 2264 
Q 1234 2150 1697 2047 
L 1894 2003 
Q 2506 1872 2764 1633 
Q 3022 1394 3022 966 
Q 3022 478 2636 193 
Q 2250 -91 1575 -91 
Q 1294 -91 989 -36 
Q 684 19 347 128 
L 347 722 
Q 666 556 975 473 
Q 1284 391 1588 391 
Q 1994 391 2212 530 
Q 2431 669 2431 922 
Q 2431 1156 2273 1281 
Q 2116 1406 1581 1522 
L 1381 1569 
Q 847 1681 609 1914 
Q 372 2147 372 2553 
Q 372 3047 722 3315 
Q 1072 3584 1716 3584 
Q 2034 3584 2315 3537 
Q 2597 3491 2834 3397 
z
" transform="scale(0.015625)"/>
      <path id="DejaVuSans-78" d="M 3513 3500 
L 2247 1797 
L 3578 0 
L 2900 0 
L 1881 1375 
L 863 0 
L 184 0 
L 1544 1831 
L 300 3500 
L 978 3500 
L 1906 2253 
L 2834 3500 
L 3513 3500 
z
" transform="scale(0.015625)"/>
      <path id="DejaVuSans-6d" d="M 3328 2828 
Q 3544 3216 3844 3400 
Q 4144 3584 4550 3584 
Q 5097 3584 5394 3201 
Q 5691 2819 5691 2113 
L 5691 0 
L 5113 0 
L 5113 2094 
Q 5113 2597 4934 2840 
Q 4756 3084 4391 3084 
Q 3944 3084 3684 2787 
Q 3425 2491 3425 1978 
L 3425 0 
L 2847 0 
L 2847 2094 
Q 2847 2600 2669 2842 
Q 2491 3084 2119 3084 
Q 1678 3084 1418 2786 
Q 1159 2488 1159 1978 
L 1159 0 
L 581 0 
L 581 3500 
L 1159 3500 
L 1159 2956 
Q 1356 3278 1631 3431 
Q 1906 3584 2284 3584 
Q 2666 3584 2933 3390 
Q 3200 3197 3328 2828 
z
" transform="scale(0.015625)"/>
      <path id="DejaVuSans-70" d="M 1159 525 
L 1159 -1331 
L 581 -1331 
L 581 3500 
L 1159 3500 
L 1159 2969 
Q 1341 3281 1617 3432 
Q 1894 3584 2278 3584 
Q 2916 3584 3314 3078 
Q 3713 2572 3713 1747 
Q 3713 922 3314 415 
Q 2916 -91 2278 -91 
Q 1894 -91 1617 61 
Q 1341 213 1159 525 
z
M 3116 1747 
Q 3116 2381 2855 2742 
Q 2594 3103 2138 3103 
Q 1681 3103 1420 2742 
Q 1159 2381 1159 1747 
Q 1159 1113 1420 752 
Q 1681 391 2138 391 
Q 2594 391 2855 752 
Q 3116 1113 3116 1747 
z
" transform="scale(0.015625)"/>
     </defs>
     <use xlink:href="#DejaVuSans-50"/>
     <use xlink:href="#DejaVuSans-41" x="53.927734"/>
     <use xlink:href="#DejaVuSans-4e" x="122.335938"/>
     <use xlink:href="#DejaVuSans-54" x="197.140625"/>
     <use xlink:href="#DejaVuSans-52" x="258.224609"/>
     <use xlink:href="#DejaVuSans-20" x="327.707031"/>
     <use xlink:href="#DejaVuSans-6e" x="359.494141"/>
     <use xlink:href="#DejaVuSans-6f" x="422.873047"/>
     <use xlink:href="#DejaVuSans-6e" x="484.054688"/>
     <use xlink:href="#DejaVuSans-6c" x="547.433594"/>
     <use xlink:href="#DejaVuSans-69" x="575.216797"/>
     <use xlink:href="#DejaVuSans-6e" x="603"/>
     <use xlink:href="#DejaVuSans-65" x="666.378906"/>
     <use xlink:href="#DejaVuSans-61" x="727.902344"/>
     <use xlink:href="#DejaVuSans-72" x="789.181641"/>
     <use xlink:href="#DejaVuSans-20" x="830.294922"/>
     <use xlink:href="#DejaVuSans-72" x="862.082031"/>
     <use xlink:href="#DejaVuSans-65" x="900.945312"/>
     <use xlink:href="#DejaVuSans-67" x="962.46875"/>
     <use xlink:href="#DejaVuSans-72" x="1025.945312"/>
     <use xlink:href="#DejaVuSans-65" x="1064.808594"/>
     <use xlink:href="#DejaVuSans-73" x="1126.332031"/>
     <use xlink:href="#DejaVuSans-73" x="1178.431641"/>
     <use xlink:href="#DejaVuSans-69" x="1230.53125"/>
     <use xlink:href="#DejaVuSans-6f" x="1258.314453"/>
     <use xlink:href="#DejaVuSans-6e" x="1319.496094"/>
     <use xlink:href="#DejaVuSans-20" x="1382.875"/>
     <use xlink:href="#DejaVuSans-65" x="1414.662109"/>
     <use xlink:href="#DejaVuSans-78" x="1474.435547"/>
     <use xlink:href="#DejaVuSans-61" x="1533.615234"/>
     <use xlink:href="#DejaVuSans-6d" x="1594.894531"/>
     <use xlink:href="#DejaVuSans-70" x="1692.306641"/>
     <use xlink:href="#DejaVuSans-6c" x="1755.783203"/>
     <use xlink:href="#DejaVuSans-65" x="1783.566406"/>
    </g>
   </g>
   <g id="legend_1">
    <g id="patch_7">
     <path d="M 415.8 101.31 
L 558.2 101.31 
Q 560.2 101.31 560.2 99.31 
L 560.2 33.88 
Q 560.2 31.88 558.2 31.88 
L 415.8 31.88 
Q 413.8 31.88 413.8 33.88 
L 413.8 99.31 
Q 413.8 101.31 415.8 101.31 
z
" style="fill: #ffffff; opacity: 0.8; stroke: #cccccc; stroke-linejoin: miter"/>
    </g>
    <g id="line2d_21">
     <g>
      <use xlink:href="#m197917aff6" x="427.8" y="39.978437" style="fill: #1f77b4; stroke: #1f77b4"/>
     </g>
    </g>
    <g id="text_19">
     <!-- Samples -->
     <g transform="translate(445.8 43.478437) scale(0.1 -0.1)">
      <defs>
       <path id="DejaVuSans-53" d="M 3425 4513 
L 3425 3897 
Q 3066 4069 2747 4153 
Q 2428 4238 2131 4238 
Q 1616 4238 1336 4038 
Q 1056 3838 1056 3469 
Q 1056 3159 1242 3001 
Q 1428 2844 1947 2747 
L 2328 2669 
Q 3034 2534 3370 2195 
Q 3706 1856 3706 1288 
Q 3706 609 3251 259 
Q 2797 -91 1919 -91 
Q 1588 -91 1214 -16 
Q 841 59 441 206 
L 441 856 
Q 825 641 1194 531 
Q 1563 422 1919 422 
Q 2459 422 2753 634 
Q 3047 847 3047 1241 
Q 3047 1584 2836 1778 
Q 2625 1972 2144 2069 
L 1759 2144 
Q 1053 2284 737 2584 
Q 422 2884 422 3419 
Q 422 4038 858 4394 
Q 1294 4750 2059 4750 
Q 2388 4750 2728 4690 
Q 3069 4631 3425 4513 
z
" transform="scale(0.015625)"/>
      </defs>
      <use xlink:href="#DejaVuSans-53"/>
      <use xlink:href="#DejaVuSans-61" x="63.476562"/>
      <use xlink:href="#DejaVuSans-6d" x="124.755859"/>
      <use xlink:href="#DejaVuSans-70" x="222.167969"/>
      <use xlink:href="#DejaVuSans-6c" x="285.644531"/>
      <use xlink:href="#DejaVuSans-65" x="313.427734"/>
      <use xlink:href="#DejaVuSans-73" x="374.951172"/>
     </g>
    </g>
    <g id="line2d_22">
     <path d="M 417.8 61.295312 
L 427.8 61.295312 
L 437.8 61.295312 
" style="fill: none; stroke: #ff7f0e; stroke-width: 1.5; stroke-linecap: square"/>
    </g>
    <g id="text_20">
     <!-- True model -->
     <g transform="translate(445.8 58.156562) scale(0.1 -0.1)">
      <defs>
       <path id="DejaVuSans-75" d="M 544 1381 
L 544 3500 
L 1119 3500 
L 1119 1403 
Q 1119 906 1312 657 
Q 1506 409 1894 409 
Q 2359 409 2629 706 
Q 2900 1003 2900 1516 
L 2900 3500 
L 3475 3500 
L 3475 0 
L 2900 0 
L 2900 538 
Q 2691 219 2414 64 
Q 2138 -91 1772 -91 
Q 1169 -91 856 284 
Q 544 659 544 1381 
z
M 1991 3584 
L 1991 3584 
z
" transform="scale(0.015625)"/>
       <path id="DejaVuSans-64" d="M 2906 2969 
L 2906 4863 
L 3481 4863 
L 3481 0 
L 2906 0 
L 2906 525 
Q 2725 213 2448 61 
Q 2172 -91 1784 -91 
Q 1150 -91 751 415 
Q 353 922 353 1747 
Q 353 2572 751 3078 
Q 1150 3584 1784 3584 
Q 2172 3584 2448 3432 
Q 2725 3281 2906 2969 
z
M 947 1747 
Q 947 1113 1208 752 
Q 1469 391 1925 391 
Q 2381 391 2643 752 
Q 2906 1113 2906 1747 
Q 2906 2381 2643 2742 
Q 2381 3103 1925 3103 
Q 1469 3103 1208 2742 
Q 947 2381 947 1747 
z
" transform="scale(0.015625)"/>
      </defs>
      <use xlink:href="#DejaVuSans-54"/>
      <use xlink:href="#DejaVuSans-72" x="46.333984"/>
      <use xlink:href="#DejaVuSans-75" x="87.447266"/>
      <use xlink:href="#DejaVuSans-65" x="150.826172"/>
      <use xlink:href="#DejaVuSans-20" x="212.349609"/>
      <use xlink:href="#DejaVuSans-6d" x="244.136719"/>
      <use xlink:href="#DejaVuSans-6f" x="341.548828"/>
      <use xlink:href="#DejaVuSans-64" x="402.730469"/>
      <use xlink:href="#DejaVuSans-65" x="466.207031"/>
      <use xlink:href="#DejaVuSans-6c" x="527.730469"/>
     </g>
     <!-- $6.00\ \sin(5.00 x) + 4.00$ -->
     <g transform="translate(445.8 69.354375) scale(0.1 -0.1)">
      <defs>
       <path id="DejaVuSans-28" d="M 1984 4856 
Q 1566 4138 1362 3434 
Q 1159 2731 1159 2009 
Q 1159 1288 1364 580 
Q 1569 -128 1984 -844 
L 1484 -844 
Q 1016 -109 783 600 
Q 550 1309 550 2009 
Q 550 2706 781 3412 
Q 1013 4119 1484 4856 
L 1984 4856 
z
" transform="scale(0.015625)"/>
       <path id="DejaVuSans-Oblique-78" d="M 3841 3500 
L 2234 1784 
L 3219 0 
L 2559 0 
L 1819 1388 
L 531 0 
L -166 0 
L 1556 1844 
L 641 3500 
L 1300 3500 
L 1972 2234 
L 3144 3500 
L 3841 3500 
z
" transform="scale(0.015625)"/>
       <path id="DejaVuSans-29" d="M 513 4856 
L 1013 4856 
Q 1481 4119 1714 3412 
Q 1947 2706 1947 2009 
Q 1947 1309 1714 600 
Q 1481 -109 1013 -844 
L 513 -844 
Q 928 -128 1133 580 
Q 1338 1288 1338 2009 
Q 1338 2731 1133 3434 
Q 928 4138 513 4856 
z
" transform="scale(0.015625)"/>
       <path id="DejaVuSans-2b" d="M 2944 4013 
L 2944 2272 
L 4684 2272 
L 4684 1741 
L 2944 1741 
L 2944 0 
L 2419 0 
L 2419 1741 
L 678 1741 
L 678 2272 
L 2419 2272 
L 2419 4013 
L 2944 4013 
z
" transform="scale(0.015625)"/>
      </defs>
      <use xlink:href="#DejaVuSans-36" transform="translate(0 0.015625)"/>
      <use xlink:href="#DejaVuSans-2e" transform="translate(63.623047 0.015625)"/>
      <use xlink:href="#DejaVuSans-30" transform="translate(95.410156 0.015625)"/>
      <use xlink:href="#DejaVuSans-30" transform="translate(159.033203 0.015625)"/>
      <use xlink:href="#DejaVuSans-73" transform="translate(255.126628 0.015625)"/>
      <use xlink:href="#DejaVuSans-69" transform="translate(307.226238 0.015625)"/>
      <use xlink:href="#DejaVuSans-6e" transform="translate(335.009441 0.015625)"/>
      <use xlink:href="#DejaVuSans-28" transform="translate(398.388347 0.015625)"/>
      <use xlink:href="#DejaVuSans-35" transform="translate(437.402019 0.015625)"/>
      <use xlink:href="#DejaVuSans-2e" transform="translate(501.025066 0.015625)"/>
      <use xlink:href="#DejaVuSans-30" transform="translate(532.812175 0.015625)"/>
      <use xlink:href="#DejaVuSans-30" transform="translate(596.435222 0.015625)"/>
      <use xlink:href="#DejaVuSans-Oblique-78" transform="translate(660.058269 0.015625)"/>
      <use xlink:href="#DejaVuSans-29" transform="translate(719.237957 0.015625)"/>
      <use xlink:href="#DejaVuSans-2b" transform="translate(777.73405 0.015625)"/>
      <use xlink:href="#DejaVuSans-34" transform="translate(881.005535 0.015625)"/>
      <use xlink:href="#DejaVuSans-2e" transform="translate(944.628582 0.015625)"/>
      <use xlink:href="#DejaVuSans-30" transform="translate(976.415691 0.015625)"/>
      <use xlink:href="#DejaVuSans-30" transform="translate(1040.038738 0.015625)"/>
     </g>
    </g>
    <g id="line2d_23">
     <path d="M 417.8 87.17125 
L 427.8 87.17125 
L 437.8 87.17125 
" style="fill: none; stroke-dasharray: 5.55,2.4; stroke-dashoffset: 0; stroke: #2ca02c; stroke-width: 1.5"/>
    </g>
    <g id="text_21">
     <!-- Est. model -->
     <g transform="translate(445.8 84.0325) scale(0.1 -0.1)">
      <defs>
       <path id="DejaVuSans-45" d="M 628 4666 
L 3578 4666 
L 3578 4134 
L 1259 4134 
L 1259 2753 
L 3481 2753 
L 3481 2222 
L 1259 2222 
L 1259 531 
L 3634 531 
L 3634 0 
L 628 0 
L 628 4666 
z
" transform="scale(0.015625)"/>
       <path id="DejaVuSans-74" d="M 1172 4494 
L 1172 3500 
L 2356 3500 
L 2356 3053 
L 1172 3053 
L 1172 1153 
Q 1172 725 1289 603 
Q 1406 481 1766 481 
L 2356 481 
L 2356 0 
L 1766 0 
Q 1100 0 847 248 
Q 594 497 594 1153 
L 594 3053 
L 172 3053 
L 172 3500 
L 594 3500 
L 594 4494 
L 1172 4494 
z
" transform="scale(0.015625)"/>
      </defs>
      <use xlink:href="#DejaVuSans-45"/>
      <use xlink:href="#DejaVuSans-73" x="63.183594"/>
      <use xlink:href="#DejaVuSans-74" x="115.283203"/>
      <use xlink:href="#DejaVuSans-2e" x="154.492188"/>
      <use xlink:href="#DejaVuSans-20" x="186.279297"/>
      <use xlink:href="#DejaVuSans-6d" x="218.066406"/>
      <use xlink:href="#DejaVuSans-6f" x="315.478516"/>
      <use xlink:href="#DejaVuSans-64" x="376.660156"/>
      <use xlink:href="#DejaVuSans-65" x="440.136719"/>
      <use xlink:href="#DejaVuSans-6c" x="501.660156"/>
     </g>
     <!-- $5.81\ \sin(5.02 x) + 4.06$ -->
     <g transform="translate(445.8 95.230312) scale(0.1 -0.1)">
      <use xlink:href="#DejaVuSans-35" transform="translate(0 0.015625)"/>
      <use xlink:href="#DejaVuSans-2e" transform="translate(63.623047 0.015625)"/>
      <use xlink:href="#DejaVuSans-38" transform="translate(92.785156 0.015625)"/>
      <use xlink:href="#DejaVuSans-31" transform="translate(156.408203 0.015625)"/>
      <use xlink:href="#DejaVuSans-73" transform="translate(252.501628 0.015625)"/>
      <use xlink:href="#DejaVuSans-69" transform="translate(304.601238 0.015625)"/>
      <use xlink:href="#DejaVuSans-6e" transform="translate(332.384441 0.015625)"/>
      <use xlink:href="#DejaVuSans-28" transform="translate(395.763347 0.015625)"/>
      <use xlink:href="#DejaVuSans-35" transform="translate(434.777019 0.015625)"/>
      <use xlink:href="#DejaVuSans-2e" transform="translate(498.400066 0.015625)"/>
      <use xlink:href="#DejaVuSans-30" transform="translate(530.187175 0.015625)"/>
      <use xlink:href="#DejaVuSans-32" transform="translate(593.810222 0.015625)"/>
      <use xlink:href="#DejaVuSans-Oblique-78" transform="translate(657.433269 0.015625)"/>
      <use xlink:href="#DejaVuSans-29" transform="translate(716.612957 0.015625)"/>
      <use xlink:href="#DejaVuSans-2b" transform="translate(775.10905 0.015625)"/>
      <use xlink:href="#DejaVuSans-34" transform="translate(878.380535 0.015625)"/>
      <use xlink:href="#DejaVuSans-2e" transform="translate(942.003582 0.015625)"/>
      <use xlink:href="#DejaVuSans-30" transform="translate(973.790691 0.015625)"/>
      <use xlink:href="#DejaVuSans-36" transform="translate(1037.413738 0.015625)"/>
     </g>
    </g>
   </g>
  </g>
 </g>
 <defs>
  <clipPath id="pbe0e3fda2f">
   <rect x="32.47" y="26.88" width="532.73" height="305.24"/>
  </clipPath>
 </defs>
</svg>
